%TF.GenerationSoftware,KiCad,Pcbnew,10.0.6*%
%TF.CreationDate,2026-09-05T19:52:01+08:00*%
%TF.ProjectId,sl25,736c3235-2e6b-4696-9361-645f70636258,B*%
%TF.SameCoordinates,Original*%
%TF.FileFunction,Legend,Bot*%
%TF.FilePolarity,Positive*%
%FSLAX46Y46*%
G04 Gerber Fmt 4.6, Leading zero omitted, Abs format (unit mm)*
G04 Created by KiCad (PCBNEW 10.0.6) date 2026-09-05 19:52:01*
%MOMM*%
%LPD*%
G01*
G04 APERTURE LIST*
%ADD10C,0.120000*%
%ADD11C,0.100000*%
G04 APERTURE END LIST*
D10*
X103152380Y-122563855D02*
X103533332Y-122563855D01*
X103533332Y-122563855D02*
X103571428Y-122944807D01*
X103571428Y-122944807D02*
X103533332Y-122906712D01*
X103533332Y-122906712D02*
X103457142Y-122868617D01*
X103457142Y-122868617D02*
X103266666Y-122868617D01*
X103266666Y-122868617D02*
X103190475Y-122906712D01*
X103190475Y-122906712D02*
X103152380Y-122944807D01*
X103152380Y-122944807D02*
X103114285Y-123020998D01*
X103114285Y-123020998D02*
X103114285Y-123211474D01*
X103114285Y-123211474D02*
X103152380Y-123287664D01*
X103152380Y-123287664D02*
X103190475Y-123325760D01*
X103190475Y-123325760D02*
X103266666Y-123363855D01*
X103266666Y-123363855D02*
X103457142Y-123363855D01*
X103457142Y-123363855D02*
X103533332Y-123325760D01*
X103533332Y-123325760D02*
X103571428Y-123287664D01*
X102885713Y-122563855D02*
X102619046Y-123363855D01*
X102619046Y-123363855D02*
X102352380Y-122563855D01*
X106109523Y-122601950D02*
X106185713Y-122563855D01*
X106185713Y-122563855D02*
X106299999Y-122563855D01*
X106299999Y-122563855D02*
X106414285Y-122601950D01*
X106414285Y-122601950D02*
X106490475Y-122678140D01*
X106490475Y-122678140D02*
X106528570Y-122754331D01*
X106528570Y-122754331D02*
X106566666Y-122906712D01*
X106566666Y-122906712D02*
X106566666Y-123020998D01*
X106566666Y-123020998D02*
X106528570Y-123173379D01*
X106528570Y-123173379D02*
X106490475Y-123249569D01*
X106490475Y-123249569D02*
X106414285Y-123325760D01*
X106414285Y-123325760D02*
X106299999Y-123363855D01*
X106299999Y-123363855D02*
X106223808Y-123363855D01*
X106223808Y-123363855D02*
X106109523Y-123325760D01*
X106109523Y-123325760D02*
X106071427Y-123287664D01*
X106071427Y-123287664D02*
X106071427Y-123020998D01*
X106071427Y-123020998D02*
X106223808Y-123020998D01*
X105728570Y-123363855D02*
X105728570Y-122563855D01*
X105728570Y-122563855D02*
X105271427Y-123363855D01*
X105271427Y-123363855D02*
X105271427Y-122563855D01*
X104890475Y-123363855D02*
X104890475Y-122563855D01*
X104890475Y-122563855D02*
X104699999Y-122563855D01*
X104699999Y-122563855D02*
X104585713Y-122601950D01*
X104585713Y-122601950D02*
X104509523Y-122678140D01*
X104509523Y-122678140D02*
X104471428Y-122754331D01*
X104471428Y-122754331D02*
X104433332Y-122906712D01*
X104433332Y-122906712D02*
X104433332Y-123020998D01*
X104433332Y-123020998D02*
X104471428Y-123173379D01*
X104471428Y-123173379D02*
X104509523Y-123249569D01*
X104509523Y-123249569D02*
X104585713Y-123325760D01*
X104585713Y-123325760D02*
X104699999Y-123363855D01*
X104699999Y-123363855D02*
X104890475Y-123363855D01*
X121785714Y-115944807D02*
X121671428Y-115982902D01*
X121671428Y-115982902D02*
X121633333Y-116020998D01*
X121633333Y-116020998D02*
X121595237Y-116097188D01*
X121595237Y-116097188D02*
X121595237Y-116211474D01*
X121595237Y-116211474D02*
X121633333Y-116287664D01*
X121633333Y-116287664D02*
X121671428Y-116325760D01*
X121671428Y-116325760D02*
X121747618Y-116363855D01*
X121747618Y-116363855D02*
X122052380Y-116363855D01*
X122052380Y-116363855D02*
X122052380Y-115563855D01*
X122052380Y-115563855D02*
X121785714Y-115563855D01*
X121785714Y-115563855D02*
X121709523Y-115601950D01*
X121709523Y-115601950D02*
X121671428Y-115640045D01*
X121671428Y-115640045D02*
X121633333Y-115716236D01*
X121633333Y-115716236D02*
X121633333Y-115792426D01*
X121633333Y-115792426D02*
X121671428Y-115868617D01*
X121671428Y-115868617D02*
X121709523Y-115906712D01*
X121709523Y-115906712D02*
X121785714Y-115944807D01*
X121785714Y-115944807D02*
X122052380Y-115944807D01*
X121099999Y-115563855D02*
X120947618Y-115563855D01*
X120947618Y-115563855D02*
X120871428Y-115601950D01*
X120871428Y-115601950D02*
X120795237Y-115678140D01*
X120795237Y-115678140D02*
X120757142Y-115830521D01*
X120757142Y-115830521D02*
X120757142Y-116097188D01*
X120757142Y-116097188D02*
X120795237Y-116249569D01*
X120795237Y-116249569D02*
X120871428Y-116325760D01*
X120871428Y-116325760D02*
X120947618Y-116363855D01*
X120947618Y-116363855D02*
X121099999Y-116363855D01*
X121099999Y-116363855D02*
X121176190Y-116325760D01*
X121176190Y-116325760D02*
X121252380Y-116249569D01*
X121252380Y-116249569D02*
X121290476Y-116097188D01*
X121290476Y-116097188D02*
X121290476Y-115830521D01*
X121290476Y-115830521D02*
X121252380Y-115678140D01*
X121252380Y-115678140D02*
X121176190Y-115601950D01*
X121176190Y-115601950D02*
X121099999Y-115563855D01*
X120261904Y-115563855D02*
X120109523Y-115563855D01*
X120109523Y-115563855D02*
X120033333Y-115601950D01*
X120033333Y-115601950D02*
X119957142Y-115678140D01*
X119957142Y-115678140D02*
X119919047Y-115830521D01*
X119919047Y-115830521D02*
X119919047Y-116097188D01*
X119919047Y-116097188D02*
X119957142Y-116249569D01*
X119957142Y-116249569D02*
X120033333Y-116325760D01*
X120033333Y-116325760D02*
X120109523Y-116363855D01*
X120109523Y-116363855D02*
X120261904Y-116363855D01*
X120261904Y-116363855D02*
X120338095Y-116325760D01*
X120338095Y-116325760D02*
X120414285Y-116249569D01*
X120414285Y-116249569D02*
X120452381Y-116097188D01*
X120452381Y-116097188D02*
X120452381Y-115830521D01*
X120452381Y-115830521D02*
X120414285Y-115678140D01*
X120414285Y-115678140D02*
X120338095Y-115601950D01*
X120338095Y-115601950D02*
X120261904Y-115563855D01*
X119690476Y-115563855D02*
X119233333Y-115563855D01*
X119461905Y-116363855D02*
X119461905Y-115563855D01*
D11*
X121133332Y-122638704D02*
X121171428Y-122676800D01*
X121171428Y-122676800D02*
X121285713Y-122714895D01*
X121285713Y-122714895D02*
X121361904Y-122714895D01*
X121361904Y-122714895D02*
X121476190Y-122676800D01*
X121476190Y-122676800D02*
X121552380Y-122600609D01*
X121552380Y-122600609D02*
X121590475Y-122524419D01*
X121590475Y-122524419D02*
X121628571Y-122372038D01*
X121628571Y-122372038D02*
X121628571Y-122257752D01*
X121628571Y-122257752D02*
X121590475Y-122105371D01*
X121590475Y-122105371D02*
X121552380Y-122029180D01*
X121552380Y-122029180D02*
X121476190Y-121952990D01*
X121476190Y-121952990D02*
X121361904Y-121914895D01*
X121361904Y-121914895D02*
X121285713Y-121914895D01*
X121285713Y-121914895D02*
X121171428Y-121952990D01*
X121171428Y-121952990D02*
X121133332Y-121991085D01*
X120866666Y-121914895D02*
X120371428Y-121914895D01*
X120371428Y-121914895D02*
X120638094Y-122219657D01*
X120638094Y-122219657D02*
X120523809Y-122219657D01*
X120523809Y-122219657D02*
X120447618Y-122257752D01*
X120447618Y-122257752D02*
X120409523Y-122295847D01*
X120409523Y-122295847D02*
X120371428Y-122372038D01*
X120371428Y-122372038D02*
X120371428Y-122562514D01*
X120371428Y-122562514D02*
X120409523Y-122638704D01*
X120409523Y-122638704D02*
X120447618Y-122676800D01*
X120447618Y-122676800D02*
X120523809Y-122714895D01*
X120523809Y-122714895D02*
X120752380Y-122714895D01*
X120752380Y-122714895D02*
X120828571Y-122676800D01*
X120828571Y-122676800D02*
X120866666Y-122638704D01*
X103133332Y-111288704D02*
X103171428Y-111326800D01*
X103171428Y-111326800D02*
X103285713Y-111364895D01*
X103285713Y-111364895D02*
X103361904Y-111364895D01*
X103361904Y-111364895D02*
X103476190Y-111326800D01*
X103476190Y-111326800D02*
X103552380Y-111250609D01*
X103552380Y-111250609D02*
X103590475Y-111174419D01*
X103590475Y-111174419D02*
X103628571Y-111022038D01*
X103628571Y-111022038D02*
X103628571Y-110907752D01*
X103628571Y-110907752D02*
X103590475Y-110755371D01*
X103590475Y-110755371D02*
X103552380Y-110679180D01*
X103552380Y-110679180D02*
X103476190Y-110602990D01*
X103476190Y-110602990D02*
X103361904Y-110564895D01*
X103361904Y-110564895D02*
X103285713Y-110564895D01*
X103285713Y-110564895D02*
X103171428Y-110602990D01*
X103171428Y-110602990D02*
X103133332Y-110641085D01*
X102828571Y-110641085D02*
X102790475Y-110602990D01*
X102790475Y-110602990D02*
X102714285Y-110564895D01*
X102714285Y-110564895D02*
X102523809Y-110564895D01*
X102523809Y-110564895D02*
X102447618Y-110602990D01*
X102447618Y-110602990D02*
X102409523Y-110641085D01*
X102409523Y-110641085D02*
X102371428Y-110717276D01*
X102371428Y-110717276D02*
X102371428Y-110793466D01*
X102371428Y-110793466D02*
X102409523Y-110907752D01*
X102409523Y-110907752D02*
X102866666Y-111364895D01*
X102866666Y-111364895D02*
X102371428Y-111364895D01*
X120833332Y-107514895D02*
X121099999Y-107133942D01*
X121290475Y-107514895D02*
X121290475Y-106714895D01*
X121290475Y-106714895D02*
X120985713Y-106714895D01*
X120985713Y-106714895D02*
X120909523Y-106752990D01*
X120909523Y-106752990D02*
X120871428Y-106791085D01*
X120871428Y-106791085D02*
X120833332Y-106867276D01*
X120833332Y-106867276D02*
X120833332Y-106981561D01*
X120833332Y-106981561D02*
X120871428Y-107057752D01*
X120871428Y-107057752D02*
X120909523Y-107095847D01*
X120909523Y-107095847D02*
X120985713Y-107133942D01*
X120985713Y-107133942D02*
X121290475Y-107133942D01*
X120147618Y-106981561D02*
X120147618Y-107514895D01*
X120338094Y-106676800D02*
X120528571Y-107248228D01*
X120528571Y-107248228D02*
X120033332Y-107248228D01*
X117333332Y-111088704D02*
X117371428Y-111126800D01*
X117371428Y-111126800D02*
X117485713Y-111164895D01*
X117485713Y-111164895D02*
X117561904Y-111164895D01*
X117561904Y-111164895D02*
X117676190Y-111126800D01*
X117676190Y-111126800D02*
X117752380Y-111050609D01*
X117752380Y-111050609D02*
X117790475Y-110974419D01*
X117790475Y-110974419D02*
X117828571Y-110822038D01*
X117828571Y-110822038D02*
X117828571Y-110707752D01*
X117828571Y-110707752D02*
X117790475Y-110555371D01*
X117790475Y-110555371D02*
X117752380Y-110479180D01*
X117752380Y-110479180D02*
X117676190Y-110402990D01*
X117676190Y-110402990D02*
X117561904Y-110364895D01*
X117561904Y-110364895D02*
X117485713Y-110364895D01*
X117485713Y-110364895D02*
X117371428Y-110402990D01*
X117371428Y-110402990D02*
X117333332Y-110441085D01*
X116609523Y-110364895D02*
X116990475Y-110364895D01*
X116990475Y-110364895D02*
X117028571Y-110745847D01*
X117028571Y-110745847D02*
X116990475Y-110707752D01*
X116990475Y-110707752D02*
X116914285Y-110669657D01*
X116914285Y-110669657D02*
X116723809Y-110669657D01*
X116723809Y-110669657D02*
X116647618Y-110707752D01*
X116647618Y-110707752D02*
X116609523Y-110745847D01*
X116609523Y-110745847D02*
X116571428Y-110822038D01*
X116571428Y-110822038D02*
X116571428Y-111012514D01*
X116571428Y-111012514D02*
X116609523Y-111088704D01*
X116609523Y-111088704D02*
X116647618Y-111126800D01*
X116647618Y-111126800D02*
X116723809Y-111164895D01*
X116723809Y-111164895D02*
X116914285Y-111164895D01*
X116914285Y-111164895D02*
X116990475Y-111126800D01*
X116990475Y-111126800D02*
X117028571Y-111088704D01*
X120833332Y-110514895D02*
X121099999Y-110133942D01*
X121290475Y-110514895D02*
X121290475Y-109714895D01*
X121290475Y-109714895D02*
X120985713Y-109714895D01*
X120985713Y-109714895D02*
X120909523Y-109752990D01*
X120909523Y-109752990D02*
X120871428Y-109791085D01*
X120871428Y-109791085D02*
X120833332Y-109867276D01*
X120833332Y-109867276D02*
X120833332Y-109981561D01*
X120833332Y-109981561D02*
X120871428Y-110057752D01*
X120871428Y-110057752D02*
X120909523Y-110095847D01*
X120909523Y-110095847D02*
X120985713Y-110133942D01*
X120985713Y-110133942D02*
X121290475Y-110133942D01*
X120147618Y-109714895D02*
X120299999Y-109714895D01*
X120299999Y-109714895D02*
X120376190Y-109752990D01*
X120376190Y-109752990D02*
X120414285Y-109791085D01*
X120414285Y-109791085D02*
X120490475Y-109905371D01*
X120490475Y-109905371D02*
X120528571Y-110057752D01*
X120528571Y-110057752D02*
X120528571Y-110362514D01*
X120528571Y-110362514D02*
X120490475Y-110438704D01*
X120490475Y-110438704D02*
X120452380Y-110476800D01*
X120452380Y-110476800D02*
X120376190Y-110514895D01*
X120376190Y-110514895D02*
X120223809Y-110514895D01*
X120223809Y-110514895D02*
X120147618Y-110476800D01*
X120147618Y-110476800D02*
X120109523Y-110438704D01*
X120109523Y-110438704D02*
X120071428Y-110362514D01*
X120071428Y-110362514D02*
X120071428Y-110172038D01*
X120071428Y-110172038D02*
X120109523Y-110095847D01*
X120109523Y-110095847D02*
X120147618Y-110057752D01*
X120147618Y-110057752D02*
X120223809Y-110019657D01*
X120223809Y-110019657D02*
X120376190Y-110019657D01*
X120376190Y-110019657D02*
X120452380Y-110057752D01*
X120452380Y-110057752D02*
X120490475Y-110095847D01*
X120490475Y-110095847D02*
X120528571Y-110172038D01*
X116109523Y-113164895D02*
X116109523Y-113812514D01*
X116109523Y-113812514D02*
X116071428Y-113888704D01*
X116071428Y-113888704D02*
X116033333Y-113926800D01*
X116033333Y-113926800D02*
X115957142Y-113964895D01*
X115957142Y-113964895D02*
X115804761Y-113964895D01*
X115804761Y-113964895D02*
X115728571Y-113926800D01*
X115728571Y-113926800D02*
X115690476Y-113888704D01*
X115690476Y-113888704D02*
X115652380Y-113812514D01*
X115652380Y-113812514D02*
X115652380Y-113164895D01*
X115309524Y-113241085D02*
X115271428Y-113202990D01*
X115271428Y-113202990D02*
X115195238Y-113164895D01*
X115195238Y-113164895D02*
X115004762Y-113164895D01*
X115004762Y-113164895D02*
X114928571Y-113202990D01*
X114928571Y-113202990D02*
X114890476Y-113241085D01*
X114890476Y-113241085D02*
X114852381Y-113317276D01*
X114852381Y-113317276D02*
X114852381Y-113393466D01*
X114852381Y-113393466D02*
X114890476Y-113507752D01*
X114890476Y-113507752D02*
X115347619Y-113964895D01*
X115347619Y-113964895D02*
X114852381Y-113964895D01*
X107509523Y-100314895D02*
X107052380Y-100314895D01*
X107280952Y-101114895D02*
X107280952Y-100314895D01*
X106785713Y-101114895D02*
X106785713Y-100314895D01*
X106785713Y-100314895D02*
X106480951Y-100314895D01*
X106480951Y-100314895D02*
X106404761Y-100352990D01*
X106404761Y-100352990D02*
X106366666Y-100391085D01*
X106366666Y-100391085D02*
X106328570Y-100467276D01*
X106328570Y-100467276D02*
X106328570Y-100581561D01*
X106328570Y-100581561D02*
X106366666Y-100657752D01*
X106366666Y-100657752D02*
X106404761Y-100695847D01*
X106404761Y-100695847D02*
X106480951Y-100733942D01*
X106480951Y-100733942D02*
X106785713Y-100733942D01*
X106061904Y-100314895D02*
X105566666Y-100314895D01*
X105566666Y-100314895D02*
X105833332Y-100619657D01*
X105833332Y-100619657D02*
X105719047Y-100619657D01*
X105719047Y-100619657D02*
X105642856Y-100657752D01*
X105642856Y-100657752D02*
X105604761Y-100695847D01*
X105604761Y-100695847D02*
X105566666Y-100772038D01*
X105566666Y-100772038D02*
X105566666Y-100962514D01*
X105566666Y-100962514D02*
X105604761Y-101038704D01*
X105604761Y-101038704D02*
X105642856Y-101076800D01*
X105642856Y-101076800D02*
X105719047Y-101114895D01*
X105719047Y-101114895D02*
X105947618Y-101114895D01*
X105947618Y-101114895D02*
X106023809Y-101076800D01*
X106023809Y-101076800D02*
X106061904Y-101038704D01*
X112766666Y-120564895D02*
X112766666Y-121136323D01*
X112766666Y-121136323D02*
X112804761Y-121250609D01*
X112804761Y-121250609D02*
X112880952Y-121326800D01*
X112880952Y-121326800D02*
X112995237Y-121364895D01*
X112995237Y-121364895D02*
X113071428Y-121364895D01*
X111966666Y-121364895D02*
X112423809Y-121364895D01*
X112195237Y-121364895D02*
X112195237Y-120564895D01*
X112195237Y-120564895D02*
X112271428Y-120679180D01*
X112271428Y-120679180D02*
X112347618Y-120755371D01*
X112347618Y-120755371D02*
X112423809Y-120793466D01*
X108633332Y-113388704D02*
X108671428Y-113426800D01*
X108671428Y-113426800D02*
X108785713Y-113464895D01*
X108785713Y-113464895D02*
X108861904Y-113464895D01*
X108861904Y-113464895D02*
X108976190Y-113426800D01*
X108976190Y-113426800D02*
X109052380Y-113350609D01*
X109052380Y-113350609D02*
X109090475Y-113274419D01*
X109090475Y-113274419D02*
X109128571Y-113122038D01*
X109128571Y-113122038D02*
X109128571Y-113007752D01*
X109128571Y-113007752D02*
X109090475Y-112855371D01*
X109090475Y-112855371D02*
X109052380Y-112779180D01*
X109052380Y-112779180D02*
X108976190Y-112702990D01*
X108976190Y-112702990D02*
X108861904Y-112664895D01*
X108861904Y-112664895D02*
X108785713Y-112664895D01*
X108785713Y-112664895D02*
X108671428Y-112702990D01*
X108671428Y-112702990D02*
X108633332Y-112741085D01*
X107871428Y-113464895D02*
X108328571Y-113464895D01*
X108099999Y-113464895D02*
X108099999Y-112664895D01*
X108099999Y-112664895D02*
X108176190Y-112779180D01*
X108176190Y-112779180D02*
X108252380Y-112855371D01*
X108252380Y-112855371D02*
X108328571Y-112893466D01*
X120333332Y-119064895D02*
X120599999Y-118683942D01*
X120790475Y-119064895D02*
X120790475Y-118264895D01*
X120790475Y-118264895D02*
X120485713Y-118264895D01*
X120485713Y-118264895D02*
X120409523Y-118302990D01*
X120409523Y-118302990D02*
X120371428Y-118341085D01*
X120371428Y-118341085D02*
X120333332Y-118417276D01*
X120333332Y-118417276D02*
X120333332Y-118531561D01*
X120333332Y-118531561D02*
X120371428Y-118607752D01*
X120371428Y-118607752D02*
X120409523Y-118645847D01*
X120409523Y-118645847D02*
X120485713Y-118683942D01*
X120485713Y-118683942D02*
X120790475Y-118683942D01*
X119571428Y-119064895D02*
X120028571Y-119064895D01*
X119799999Y-119064895D02*
X119799999Y-118264895D01*
X119799999Y-118264895D02*
X119876190Y-118379180D01*
X119876190Y-118379180D02*
X119952380Y-118455371D01*
X119952380Y-118455371D02*
X120028571Y-118493466D01*
X119509523Y-100314895D02*
X119052380Y-100314895D01*
X119280952Y-101114895D02*
X119280952Y-100314895D01*
X118785713Y-101114895D02*
X118785713Y-100314895D01*
X118785713Y-100314895D02*
X118480951Y-100314895D01*
X118480951Y-100314895D02*
X118404761Y-100352990D01*
X118404761Y-100352990D02*
X118366666Y-100391085D01*
X118366666Y-100391085D02*
X118328570Y-100467276D01*
X118328570Y-100467276D02*
X118328570Y-100581561D01*
X118328570Y-100581561D02*
X118366666Y-100657752D01*
X118366666Y-100657752D02*
X118404761Y-100695847D01*
X118404761Y-100695847D02*
X118480951Y-100733942D01*
X118480951Y-100733942D02*
X118785713Y-100733942D01*
X117642856Y-100314895D02*
X117795237Y-100314895D01*
X117795237Y-100314895D02*
X117871428Y-100352990D01*
X117871428Y-100352990D02*
X117909523Y-100391085D01*
X117909523Y-100391085D02*
X117985713Y-100505371D01*
X117985713Y-100505371D02*
X118023809Y-100657752D01*
X118023809Y-100657752D02*
X118023809Y-100962514D01*
X118023809Y-100962514D02*
X117985713Y-101038704D01*
X117985713Y-101038704D02*
X117947618Y-101076800D01*
X117947618Y-101076800D02*
X117871428Y-101114895D01*
X117871428Y-101114895D02*
X117719047Y-101114895D01*
X117719047Y-101114895D02*
X117642856Y-101076800D01*
X117642856Y-101076800D02*
X117604761Y-101038704D01*
X117604761Y-101038704D02*
X117566666Y-100962514D01*
X117566666Y-100962514D02*
X117566666Y-100772038D01*
X117566666Y-100772038D02*
X117604761Y-100695847D01*
X117604761Y-100695847D02*
X117642856Y-100657752D01*
X117642856Y-100657752D02*
X117719047Y-100619657D01*
X117719047Y-100619657D02*
X117871428Y-100619657D01*
X117871428Y-100619657D02*
X117947618Y-100657752D01*
X117947618Y-100657752D02*
X117985713Y-100695847D01*
X117985713Y-100695847D02*
X118023809Y-100772038D01*
X124066666Y-113964895D02*
X124066666Y-114536323D01*
X124066666Y-114536323D02*
X124104761Y-114650609D01*
X124104761Y-114650609D02*
X124180952Y-114726800D01*
X124180952Y-114726800D02*
X124295237Y-114764895D01*
X124295237Y-114764895D02*
X124371428Y-114764895D01*
X123685713Y-114764895D02*
X123685713Y-113964895D01*
X123685713Y-113964895D02*
X123380951Y-113964895D01*
X123380951Y-113964895D02*
X123304761Y-114002990D01*
X123304761Y-114002990D02*
X123266666Y-114041085D01*
X123266666Y-114041085D02*
X123228570Y-114117276D01*
X123228570Y-114117276D02*
X123228570Y-114231561D01*
X123228570Y-114231561D02*
X123266666Y-114307752D01*
X123266666Y-114307752D02*
X123304761Y-114345847D01*
X123304761Y-114345847D02*
X123380951Y-114383942D01*
X123380951Y-114383942D02*
X123685713Y-114383942D01*
X122466666Y-114764895D02*
X122923809Y-114764895D01*
X122695237Y-114764895D02*
X122695237Y-113964895D01*
X122695237Y-113964895D02*
X122771428Y-114079180D01*
X122771428Y-114079180D02*
X122847618Y-114155371D01*
X122847618Y-114155371D02*
X122923809Y-114193466D01*
X103633332Y-106814895D02*
X103899999Y-106433942D01*
X104090475Y-106814895D02*
X104090475Y-106014895D01*
X104090475Y-106014895D02*
X103785713Y-106014895D01*
X103785713Y-106014895D02*
X103709523Y-106052990D01*
X103709523Y-106052990D02*
X103671428Y-106091085D01*
X103671428Y-106091085D02*
X103633332Y-106167276D01*
X103633332Y-106167276D02*
X103633332Y-106281561D01*
X103633332Y-106281561D02*
X103671428Y-106357752D01*
X103671428Y-106357752D02*
X103709523Y-106395847D01*
X103709523Y-106395847D02*
X103785713Y-106433942D01*
X103785713Y-106433942D02*
X104090475Y-106433942D01*
X103366666Y-106014895D02*
X102833332Y-106014895D01*
X102833332Y-106014895D02*
X103176190Y-106814895D01*
X108433332Y-116288704D02*
X108471428Y-116326800D01*
X108471428Y-116326800D02*
X108585713Y-116364895D01*
X108585713Y-116364895D02*
X108661904Y-116364895D01*
X108661904Y-116364895D02*
X108776190Y-116326800D01*
X108776190Y-116326800D02*
X108852380Y-116250609D01*
X108852380Y-116250609D02*
X108890475Y-116174419D01*
X108890475Y-116174419D02*
X108928571Y-116022038D01*
X108928571Y-116022038D02*
X108928571Y-115907752D01*
X108928571Y-115907752D02*
X108890475Y-115755371D01*
X108890475Y-115755371D02*
X108852380Y-115679180D01*
X108852380Y-115679180D02*
X108776190Y-115602990D01*
X108776190Y-115602990D02*
X108661904Y-115564895D01*
X108661904Y-115564895D02*
X108585713Y-115564895D01*
X108585713Y-115564895D02*
X108471428Y-115602990D01*
X108471428Y-115602990D02*
X108433332Y-115641085D01*
X107747618Y-115831561D02*
X107747618Y-116364895D01*
X107938094Y-115526800D02*
X108128571Y-116098228D01*
X108128571Y-116098228D02*
X107633332Y-116098228D01*
X113109523Y-106364895D02*
X113109523Y-107012514D01*
X113109523Y-107012514D02*
X113071428Y-107088704D01*
X113071428Y-107088704D02*
X113033333Y-107126800D01*
X113033333Y-107126800D02*
X112957142Y-107164895D01*
X112957142Y-107164895D02*
X112804761Y-107164895D01*
X112804761Y-107164895D02*
X112728571Y-107126800D01*
X112728571Y-107126800D02*
X112690476Y-107088704D01*
X112690476Y-107088704D02*
X112652380Y-107012514D01*
X112652380Y-107012514D02*
X112652380Y-106364895D01*
X111852381Y-107164895D02*
X112309524Y-107164895D01*
X112080952Y-107164895D02*
X112080952Y-106364895D01*
X112080952Y-106364895D02*
X112157143Y-106479180D01*
X112157143Y-106479180D02*
X112233333Y-106555371D01*
X112233333Y-106555371D02*
X112309524Y-106593466D01*
X117009523Y-100164895D02*
X116552380Y-100164895D01*
X116780952Y-100964895D02*
X116780952Y-100164895D01*
X116285713Y-100964895D02*
X116285713Y-100164895D01*
X116285713Y-100164895D02*
X115980951Y-100164895D01*
X115980951Y-100164895D02*
X115904761Y-100202990D01*
X115904761Y-100202990D02*
X115866666Y-100241085D01*
X115866666Y-100241085D02*
X115828570Y-100317276D01*
X115828570Y-100317276D02*
X115828570Y-100431561D01*
X115828570Y-100431561D02*
X115866666Y-100507752D01*
X115866666Y-100507752D02*
X115904761Y-100545847D01*
X115904761Y-100545847D02*
X115980951Y-100583942D01*
X115980951Y-100583942D02*
X116285713Y-100583942D01*
X115104761Y-100164895D02*
X115485713Y-100164895D01*
X115485713Y-100164895D02*
X115523809Y-100545847D01*
X115523809Y-100545847D02*
X115485713Y-100507752D01*
X115485713Y-100507752D02*
X115409523Y-100469657D01*
X115409523Y-100469657D02*
X115219047Y-100469657D01*
X115219047Y-100469657D02*
X115142856Y-100507752D01*
X115142856Y-100507752D02*
X115104761Y-100545847D01*
X115104761Y-100545847D02*
X115066666Y-100622038D01*
X115066666Y-100622038D02*
X115066666Y-100812514D01*
X115066666Y-100812514D02*
X115104761Y-100888704D01*
X115104761Y-100888704D02*
X115142856Y-100926800D01*
X115142856Y-100926800D02*
X115219047Y-100964895D01*
X115219047Y-100964895D02*
X115409523Y-100964895D01*
X115409523Y-100964895D02*
X115485713Y-100926800D01*
X115485713Y-100926800D02*
X115523809Y-100888704D01*
X110009523Y-100164895D02*
X109552380Y-100164895D01*
X109780952Y-100964895D02*
X109780952Y-100164895D01*
X109285713Y-100964895D02*
X109285713Y-100164895D01*
X109285713Y-100164895D02*
X108980951Y-100164895D01*
X108980951Y-100164895D02*
X108904761Y-100202990D01*
X108904761Y-100202990D02*
X108866666Y-100241085D01*
X108866666Y-100241085D02*
X108828570Y-100317276D01*
X108828570Y-100317276D02*
X108828570Y-100431561D01*
X108828570Y-100431561D02*
X108866666Y-100507752D01*
X108866666Y-100507752D02*
X108904761Y-100545847D01*
X108904761Y-100545847D02*
X108980951Y-100583942D01*
X108980951Y-100583942D02*
X109285713Y-100583942D01*
X108142856Y-100431561D02*
X108142856Y-100964895D01*
X108333332Y-100126800D02*
X108523809Y-100698228D01*
X108523809Y-100698228D02*
X108028570Y-100698228D01*
X120833332Y-104514895D02*
X121099999Y-104133942D01*
X121290475Y-104514895D02*
X121290475Y-103714895D01*
X121290475Y-103714895D02*
X120985713Y-103714895D01*
X120985713Y-103714895D02*
X120909523Y-103752990D01*
X120909523Y-103752990D02*
X120871428Y-103791085D01*
X120871428Y-103791085D02*
X120833332Y-103867276D01*
X120833332Y-103867276D02*
X120833332Y-103981561D01*
X120833332Y-103981561D02*
X120871428Y-104057752D01*
X120871428Y-104057752D02*
X120909523Y-104095847D01*
X120909523Y-104095847D02*
X120985713Y-104133942D01*
X120985713Y-104133942D02*
X121290475Y-104133942D01*
X120566666Y-103714895D02*
X120071428Y-103714895D01*
X120071428Y-103714895D02*
X120338094Y-104019657D01*
X120338094Y-104019657D02*
X120223809Y-104019657D01*
X120223809Y-104019657D02*
X120147618Y-104057752D01*
X120147618Y-104057752D02*
X120109523Y-104095847D01*
X120109523Y-104095847D02*
X120071428Y-104172038D01*
X120071428Y-104172038D02*
X120071428Y-104362514D01*
X120071428Y-104362514D02*
X120109523Y-104438704D01*
X120109523Y-104438704D02*
X120147618Y-104476800D01*
X120147618Y-104476800D02*
X120223809Y-104514895D01*
X120223809Y-104514895D02*
X120452380Y-104514895D01*
X120452380Y-104514895D02*
X120528571Y-104476800D01*
X120528571Y-104476800D02*
X120566666Y-104438704D01*
X105233332Y-119064895D02*
X105499999Y-118683942D01*
X105690475Y-119064895D02*
X105690475Y-118264895D01*
X105690475Y-118264895D02*
X105385713Y-118264895D01*
X105385713Y-118264895D02*
X105309523Y-118302990D01*
X105309523Y-118302990D02*
X105271428Y-118341085D01*
X105271428Y-118341085D02*
X105233332Y-118417276D01*
X105233332Y-118417276D02*
X105233332Y-118531561D01*
X105233332Y-118531561D02*
X105271428Y-118607752D01*
X105271428Y-118607752D02*
X105309523Y-118645847D01*
X105309523Y-118645847D02*
X105385713Y-118683942D01*
X105385713Y-118683942D02*
X105690475Y-118683942D01*
X104928571Y-118341085D02*
X104890475Y-118302990D01*
X104890475Y-118302990D02*
X104814285Y-118264895D01*
X104814285Y-118264895D02*
X104623809Y-118264895D01*
X104623809Y-118264895D02*
X104547618Y-118302990D01*
X104547618Y-118302990D02*
X104509523Y-118341085D01*
X104509523Y-118341085D02*
X104471428Y-118417276D01*
X104471428Y-118417276D02*
X104471428Y-118493466D01*
X104471428Y-118493466D02*
X104509523Y-118607752D01*
X104509523Y-118607752D02*
X104966666Y-119064895D01*
X104966666Y-119064895D02*
X104471428Y-119064895D01*
%TO.C,C3*%
D10*
X121261252Y-120265000D02*
X120738748Y-120265000D01*
X121261252Y-121735000D02*
X120738748Y-121735000D01*
%TO.C,C2*%
X104565000Y-111261252D02*
X104565000Y-110738748D01*
X106035000Y-111261252D02*
X106035000Y-110738748D01*
%TO.C,R4*%
X120927064Y-107765000D02*
X120472936Y-107765000D01*
X120927064Y-109235000D02*
X120472936Y-109235000D01*
%TO.C,C5*%
X116465000Y-113561252D02*
X116465000Y-113038748D01*
X117935000Y-113561252D02*
X117935000Y-113038748D01*
%TO.C,R6*%
X120927064Y-110765000D02*
X120472936Y-110765000D01*
X120927064Y-112235000D02*
X120472936Y-112235000D01*
%TO.C,U2*%
X110940000Y-113190000D02*
X110940000Y-115010000D01*
X110940000Y-115010000D02*
X110990000Y-115010000D01*
X110990000Y-113190000D02*
X110940000Y-113190000D01*
X114010000Y-115010000D02*
X114060000Y-115010000D01*
X114060000Y-113190000D02*
X114010000Y-113190000D01*
X114060000Y-115010000D02*
X114060000Y-113190000D01*
X110990000Y-112650000D02*
X110660000Y-112410000D01*
X110660000Y-112890000D01*
X110990000Y-112650000D01*
G36*
X110990000Y-112650000D02*
G01*
X110660000Y-112890000D01*
X110660000Y-112410000D01*
X110990000Y-112650000D01*
G37*
%TO.C,TP3*%
X107200000Y-102000000D02*
G75*
G02*
X105800000Y-102000000I-700000J0D01*
G01*
X105800000Y-102000000D02*
G75*
G02*
X107200000Y-102000000I700000J0D01*
G01*
%TO.C,J1*%
X107830000Y-121050000D02*
X107830000Y-119350000D01*
X117170000Y-121050000D02*
X117170000Y-119350000D01*
%TO.C,TP2*%
X105700000Y-121500000D02*
G75*
G02*
X104300000Y-121500000I-700000J0D01*
G01*
X104300000Y-121500000D02*
G75*
G02*
X105700000Y-121500000I700000J0D01*
G01*
%TO.C,C1*%
X108761252Y-111065000D02*
X108238748Y-111065000D01*
X108761252Y-112535000D02*
X108238748Y-112535000D01*
%TO.C,TP1*%
X103700000Y-121500000D02*
G75*
G02*
X102300000Y-121500000I-700000J0D01*
G01*
X102300000Y-121500000D02*
G75*
G02*
X103700000Y-121500000I700000J0D01*
G01*
%TO.C,R1*%
X120427064Y-116665000D02*
X119972936Y-116665000D01*
X120427064Y-118135000D02*
X119972936Y-118135000D01*
%TO.C,TP6*%
X119200000Y-102000000D02*
G75*
G02*
X117800000Y-102000000I-700000J0D01*
G01*
X117800000Y-102000000D02*
G75*
G02*
X119200000Y-102000000I700000J0D01*
G01*
%TO.C,JP1*%
X119300000Y-114100000D02*
X119300000Y-114700000D01*
X120000000Y-115400000D02*
X121400000Y-115400000D01*
X121400000Y-113400000D02*
X120000000Y-113400000D01*
X122100000Y-114700000D02*
X122100000Y-114100000D01*
X119300000Y-114100000D02*
G75*
G02*
X120000000Y-113400000I700000J0D01*
G01*
X120000000Y-115400000D02*
G75*
G02*
X119300000Y-114700000I0J700000D01*
G01*
X121400000Y-113400000D02*
G75*
G02*
X122100000Y-114100000I1J-699999D01*
G01*
X122100000Y-114700000D02*
G75*
G02*
X121400000Y-115400000I-699999J-1D01*
G01*
%TO.C,R7*%
X103727064Y-107065000D02*
X103272936Y-107065000D01*
X103727064Y-108535000D02*
X103272936Y-108535000D01*
%TO.C,C4*%
X108561252Y-113965000D02*
X108038748Y-113965000D01*
X108561252Y-115435000D02*
X108038748Y-115435000D01*
%TO.C,U1*%
X107440000Y-104740000D02*
X107440000Y-108860000D01*
X107440000Y-108860000D02*
X107495000Y-108860000D01*
X107495000Y-104740000D02*
X107440000Y-104740000D01*
X117505000Y-108860000D02*
X117560000Y-108860000D01*
X117560000Y-104740000D02*
X117505000Y-104740000D01*
X117560000Y-108860000D02*
X117560000Y-104740000D01*
X107490000Y-104200000D02*
X107160000Y-103960000D01*
X107160000Y-104440000D01*
X107490000Y-104200000D01*
G36*
X107490000Y-104200000D02*
G01*
X107160000Y-104440000D01*
X107160000Y-103960000D01*
X107490000Y-104200000D01*
G37*
%TO.C,TP5*%
X116700000Y-101800000D02*
G75*
G02*
X115300000Y-101800000I-700000J0D01*
G01*
X115300000Y-101800000D02*
G75*
G02*
X116700000Y-101800000I700000J0D01*
G01*
%TO.C,TP4*%
X109700000Y-101800000D02*
G75*
G02*
X108300000Y-101800000I-700000J0D01*
G01*
X108300000Y-101800000D02*
G75*
G02*
X109700000Y-101800000I700000J0D01*
G01*
%TO.C,R3*%
X120927064Y-104765000D02*
X120472936Y-104765000D01*
X120927064Y-106235000D02*
X120472936Y-106235000D01*
%TO.C,R2*%
X105327064Y-116665000D02*
X104872936Y-116665000D01*
X105327064Y-118135000D02*
X104872936Y-118135000D01*
%TD*%
M02*
