M48
; DRILL file KiCad 10.0.6 date 2026-09-05T19:52:01
; FORMAT={-:-/ absolute / metric / decimal}
; #@! TF.CreationDate,2026-09-05T19:52:01+08:00
; #@! TF.GenerationSoftware,Kicad,Pcbnew,10.0.6
; #@! TF.FileFunction,Plated,1,2,PTH
FMAT,2
METRIC
; #@! TA.AperFunction,Plated,PTH,ViaDrill
T1C0.300
; #@! TA.AperFunction,Plated,PTH,ComponentDrill
T2C0.600
%
G90
G05
T1
X104.95Y-117.55
X106.25Y-117.4
X107.35Y-114.7
X108.4Y-111.8
X108.95Y-117.45
X110.2Y-116.35
X110.35Y-110.55
X110.75Y-118.6
X111.0Y-116.4
X112.25Y-118.55
X112.6Y-115.25
X113.0Y-111.65
X113.45Y-112.95
X113.45Y-114.85
X113.5Y-111.25
X114.3Y-116.35
X115.05Y-114.25
X115.75Y-117.15
X117.2Y-112.35
X117.8Y-109.05
X118.5Y-117.4
X119.3Y-117.4
X119.7Y-121.35
X120.05Y-120.5
X120.85Y-108.5
T2
X108.18Y-118.595G85X108.18Y-117.495
G05
X108.18Y-122.625G85X108.18Y-121.825
G05
X116.82Y-118.595G85X116.82Y-117.495
G05
X116.82Y-122.625G85X116.82Y-121.825
G05
M30
