%TF.GenerationSoftware,KiCad,Pcbnew,10.0.6*%
%TF.CreationDate,2026-09-05T19:52:01+08:00*%
%TF.ProjectId,sl25,736c3235-2e6b-4696-9361-645f70636258,B*%
%TF.SameCoordinates,Original*%
%TF.FileFunction,Copper,L2,Bot*%
%TF.FilePolarity,Positive*%
%FSLAX46Y46*%
G04 Gerber Fmt 4.6, Leading zero omitted, Abs format (unit mm)*
G04 Created by KiCad (PCBNEW 10.0.6) date 2026-09-05 19:52:01*
%MOMM*%
%LPD*%
G01*
G04 APERTURE LIST*
G04 Aperture macros list*
%AMRoundRect*
0 Rectangle with rounded corners*
0 $1 Rounding radius*
0 $2 $3 $4 $5 $6 $7 $8 $9 X,Y pos of 4 corners*
0 Add a 4 corners polygon primitive as box body*
4,1,4,$2,$3,$4,$5,$6,$7,$8,$9,$2,$3,0*
0 Add four circle primitives for the rounded corners*
1,1,$1+$1,$2,$3*
1,1,$1+$1,$4,$5*
1,1,$1+$1,$6,$7*
1,1,$1+$1,$8,$9*
0 Add four rect primitives between the rounded corners*
20,1,$1+$1,$2,$3,$4,$5,0*
20,1,$1+$1,$4,$5,$6,$7,0*
20,1,$1+$1,$6,$7,$8,$9,0*
20,1,$1+$1,$8,$9,$2,$3,0*%
%AMFreePoly0*
4,1,23,0.500000,-0.750000,0.000000,-0.750000,0.000000,-0.745722,-0.065263,-0.745722,-0.191342,-0.711940,-0.304381,-0.646677,-0.396677,-0.554381,-0.461940,-0.441342,-0.495722,-0.315263,-0.495722,-0.250000,-0.500000,-0.250000,-0.500000,0.250000,-0.495722,0.250000,-0.495722,0.315263,-0.461940,0.441342,-0.396677,0.554381,-0.304381,0.646677,-0.191342,0.711940,-0.065263,0.745722,0.000000,0.745722,
0.000000,0.750000,0.500000,0.750000,0.500000,-0.750000,0.500000,-0.750000,$1*%
%AMFreePoly1*
4,1,23,0.000000,0.745722,0.065263,0.745722,0.191342,0.711940,0.304381,0.646677,0.396677,0.554381,0.461940,0.441342,0.495722,0.315263,0.495722,0.250000,0.500000,0.250000,0.500000,-0.250000,0.495722,-0.250000,0.495722,-0.315263,0.461940,-0.441342,0.396677,-0.554381,0.304381,-0.646677,0.191342,-0.711940,0.065263,-0.745722,0.000000,-0.745722,0.000000,-0.750000,-0.500000,-0.750000,
-0.500000,0.750000,0.000000,0.750000,0.000000,0.745722,0.000000,0.745722,$1*%
G04 Aperture macros list end*
%TA.AperFunction,SMDPad,CuDef*%
%ADD10RoundRect,0.250000X0.250000X0.475000X-0.250000X0.475000X-0.250000X-0.475000X0.250000X-0.475000X0*%
%TD*%
%TA.AperFunction,SMDPad,CuDef*%
%ADD11RoundRect,0.250000X0.475000X-0.250000X0.475000X0.250000X-0.475000X0.250000X-0.475000X-0.250000X0*%
%TD*%
%TA.AperFunction,SMDPad,CuDef*%
%ADD12RoundRect,0.250000X0.262500X0.450000X-0.262500X0.450000X-0.262500X-0.450000X0.262500X-0.450000X0*%
%TD*%
%TA.AperFunction,SMDPad,CuDef*%
%ADD13RoundRect,0.150000X-0.150000X0.512500X-0.150000X-0.512500X0.150000X-0.512500X0.150000X0.512500X0*%
%TD*%
%TA.AperFunction,SMDPad,CuDef*%
%ADD14C,1.000000*%
%TD*%
%TA.AperFunction,SMDPad,CuDef*%
%ADD15RoundRect,0.150000X0.150000X0.425000X-0.150000X0.425000X-0.150000X-0.425000X0.150000X-0.425000X0*%
%TD*%
%TA.AperFunction,SMDPad,CuDef*%
%ADD16RoundRect,0.075000X0.075000X0.500000X-0.075000X0.500000X-0.075000X-0.500000X0.075000X-0.500000X0*%
%TD*%
%TA.AperFunction,ComponentPad*%
%ADD17O,1.000000X1.800000*%
%TD*%
%TA.AperFunction,ComponentPad*%
%ADD18O,1.000000X2.100000*%
%TD*%
%TA.AperFunction,SMDPad,CuDef*%
%ADD19FreePoly0,180.000000*%
%TD*%
%TA.AperFunction,SMDPad,CuDef*%
%ADD20FreePoly1,180.000000*%
%TD*%
%TA.AperFunction,SMDPad,CuDef*%
%ADD21RoundRect,0.150000X-0.150000X0.825000X-0.150000X-0.825000X0.150000X-0.825000X0.150000X0.825000X0*%
%TD*%
%TA.AperFunction,ViaPad*%
%ADD22C,0.600000*%
%TD*%
%TA.AperFunction,Conductor*%
%ADD23C,0.200000*%
%TD*%
G04 APERTURE END LIST*
D10*
%TO.P,C3,1*%
%TO.N,/+5V*%
X121950000Y-121000000D03*
%TO.P,C3,2*%
%TO.N,/GND*%
X120050000Y-121000000D03*
%TD*%
D11*
%TO.P,C2,1*%
%TO.N,/V33*%
X105300000Y-111950000D03*
%TO.P,C2,2*%
%TO.N,/GND*%
X105300000Y-110050000D03*
%TD*%
D12*
%TO.P,R4,1*%
%TO.N,/LED_DATA*%
X121612500Y-108500000D03*
%TO.P,R4,2*%
%TO.N,/GND*%
X119787500Y-108500000D03*
%TD*%
D11*
%TO.P,C5,1*%
%TO.N,/+5V*%
X117200000Y-114250000D03*
%TO.P,C5,2*%
%TO.N,/GND*%
X117200000Y-112350000D03*
%TD*%
D12*
%TO.P,R6,1*%
%TO.N,/+5V*%
X121612500Y-111500000D03*
%TO.P,R6,2*%
%TO.N,/BOOT_PULL*%
X119787500Y-111500000D03*
%TD*%
D13*
%TO.P,U2,1*%
%TO.N,/USB_DP*%
X111550000Y-112962500D03*
%TO.P,U2,2*%
%TO.N,/GND*%
X112500000Y-112962500D03*
%TO.P,U2,3*%
%TO.N,/USB_DM*%
X113450000Y-112962500D03*
%TO.P,U2,4*%
X113450000Y-115237500D03*
%TO.P,U2,5*%
%TO.N,/+5V*%
X112500000Y-115237500D03*
%TO.P,U2,6*%
%TO.N,/USB_DP*%
X111550000Y-115237500D03*
%TD*%
D14*
%TO.P,TP3,1*%
%TO.N,/PROG_SCS*%
X106500000Y-102000000D03*
%TD*%
D15*
%TO.P,J1,A1*%
%TO.N,/GND*%
X115700000Y-117470000D03*
%TO.P,J1,A4*%
%TO.N,/+5V*%
X114900000Y-117470000D03*
D16*
%TO.P,J1,A5*%
%TO.N,/CC1*%
X113750000Y-117470000D03*
%TO.P,J1,A6*%
%TO.N,/USB_DP*%
X112750000Y-117470000D03*
%TO.P,J1,A7*%
%TO.N,/USB_DM*%
X112250000Y-117470000D03*
%TO.P,J1,A8*%
%TO.N,unconnected-(J1-PadA8)*%
X111250000Y-117470000D03*
D15*
%TO.P,J1,A9*%
%TO.N,/+5V*%
X110100000Y-117470000D03*
%TO.P,J1,A12*%
%TO.N,/GND*%
X109300000Y-117470000D03*
%TO.P,J1,B1*%
X109300000Y-117470000D03*
%TO.P,J1,B4*%
%TO.N,/+5V*%
X110100000Y-117470000D03*
D16*
%TO.P,J1,B5*%
%TO.N,/CC2*%
X110750000Y-117470000D03*
%TO.P,J1,B6*%
%TO.N,/USB_DP*%
X111750000Y-117470000D03*
%TO.P,J1,B7*%
%TO.N,/USB_DM*%
X113250000Y-117470000D03*
%TO.P,J1,B8*%
%TO.N,unconnected-(J1-PadB8)*%
X114250000Y-117470000D03*
D15*
%TO.P,J1,B9*%
%TO.N,/+5V*%
X114900000Y-117470000D03*
%TO.P,J1,B12*%
%TO.N,/GND*%
X115700000Y-117470000D03*
D17*
%TO.P,J1,SH*%
X116820000Y-122225000D03*
D18*
X116820000Y-118045000D03*
D17*
X108180000Y-122225000D03*
D18*
X108180000Y-118045000D03*
%TD*%
D14*
%TO.P,TP2,1*%
%TO.N,/GND*%
X105000000Y-121500000D03*
%TD*%
D10*
%TO.P,C1,1*%
%TO.N,/+5V*%
X109450000Y-111800000D03*
%TO.P,C1,2*%
%TO.N,/GND*%
X107550000Y-111800000D03*
%TD*%
D14*
%TO.P,TP1,1*%
%TO.N,/+5V*%
X103000000Y-121500000D03*
%TD*%
D12*
%TO.P,R1,1*%
%TO.N,/CC1*%
X121112500Y-117400000D03*
%TO.P,R1,2*%
%TO.N,/GND*%
X119287500Y-117400000D03*
%TD*%
D14*
%TO.P,TP6,1*%
%TO.N,/RESET*%
X118500000Y-102000000D03*
%TD*%
D19*
%TO.P,JP1,1*%
%TO.N,/BOOT_PULL*%
X121350000Y-114400000D03*
D20*
%TO.P,JP1,2*%
%TO.N,/USB_DP*%
X120050000Y-114400000D03*
%TD*%
D12*
%TO.P,R7,1*%
%TO.N,/RESET*%
X104412500Y-107800000D03*
%TO.P,R7,2*%
%TO.N,/GND*%
X102587500Y-107800000D03*
%TD*%
D10*
%TO.P,C4,1*%
%TO.N,/+5V*%
X109250000Y-114700000D03*
%TO.P,C4,2*%
%TO.N,/GND*%
X107350000Y-114700000D03*
%TD*%
D21*
%TO.P,U1,1*%
%TO.N,unconnected-(U1-P3.2-Pad1)*%
X108055000Y-104325000D03*
%TO.P,U1,2*%
%TO.N,/PROG_SCS*%
X109325000Y-104325000D03*
%TO.P,U1,3*%
%TO.N,/LED_DATA_RAW*%
X110595000Y-104325000D03*
%TO.P,U1,4*%
%TO.N,/PROG_MISO*%
X111865000Y-104325000D03*
%TO.P,U1,5*%
%TO.N,/PROG_SCK*%
X113135000Y-104325000D03*
%TO.P,U1,6*%
%TO.N,/RESET*%
X114405000Y-104325000D03*
%TO.P,U1,7*%
%TO.N,unconnected-(U1-P3.1_{slash}_TXD-Pad7)*%
X115675000Y-104325000D03*
%TO.P,U1,8*%
%TO.N,unconnected-(U1-P3.0_{slash}_RXD-Pad8)*%
X116945000Y-104325000D03*
%TO.P,U1,9*%
%TO.N,unconnected-(U1-P1.1-Pad9)*%
X116945000Y-109275000D03*
%TO.P,U1,10*%
%TO.N,unconnected-(U1-P3.3-Pad10)*%
X115675000Y-109275000D03*
%TO.P,U1,11*%
%TO.N,unconnected-(U1-P3.4_{slash}_PWM2-Pad11)*%
X114405000Y-109275000D03*
%TO.P,U1,12*%
%TO.N,/USB_DP*%
X113135000Y-109275000D03*
%TO.P,U1,13*%
%TO.N,/USB_DM*%
X111865000Y-109275000D03*
%TO.P,U1,14*%
%TO.N,/GND*%
X110595000Y-109275000D03*
%TO.P,U1,15*%
%TO.N,/+5V*%
X109325000Y-109275000D03*
%TO.P,U1,16*%
%TO.N,/V33*%
X108055000Y-109275000D03*
%TD*%
D14*
%TO.P,TP5,1*%
%TO.N,/PROG_SCK*%
X116000000Y-101800000D03*
%TD*%
%TO.P,TP4,1*%
%TO.N,/PROG_MISO*%
X109000000Y-101800000D03*
%TD*%
D12*
%TO.P,R3,1*%
%TO.N,/LED_DATA_RAW*%
X121612500Y-105500000D03*
%TO.P,R3,2*%
%TO.N,/LED_DATA*%
X119787500Y-105500000D03*
%TD*%
%TO.P,R2,1*%
%TO.N,/CC2*%
X106012500Y-117400000D03*
%TO.P,R2,2*%
%TO.N,/GND*%
X104187500Y-117400000D03*
%TD*%
D22*
%TO.N,/+5V*%
X110200000Y-116350000D03*
X115050000Y-114250000D03*
X114300000Y-116350000D03*
X112600000Y-115250000D03*
%TO.N,/GND*%
X107350000Y-114700000D03*
X119300000Y-117400000D03*
X104950000Y-117550000D03*
X113000000Y-111650000D03*
X108950000Y-117450000D03*
X120050000Y-120500000D03*
X113500000Y-111250000D03*
X117800000Y-109050000D03*
X119700000Y-121350000D03*
X110350000Y-110550000D03*
X108400000Y-111800000D03*
X117200000Y-112350000D03*
X118500000Y-117400000D03*
X115750000Y-117150000D03*
%TO.N,/LED_DATA*%
X120850000Y-108500000D03*
%TO.N,/USB_DP*%
X112250000Y-118550000D03*
X111000000Y-116400000D03*
%TO.N,/USB_DM*%
X113450000Y-114850000D03*
X113450000Y-112950000D03*
%TO.N,/CC2*%
X110750000Y-118600000D03*
X106250000Y-117400000D03*
%TD*%
%TO.N,/+5V*%
D23*
X109300000Y-114650000D02*
X109250000Y-114700000D01*
X120650000Y-112550000D02*
X120500000Y-112550000D01*
X109950000Y-117300000D02*
X110100000Y-117450000D01*
X109900000Y-116500000D02*
X109950000Y-116550000D01*
X112600000Y-115250000D02*
X112500000Y-115250000D01*
X109300000Y-113400000D02*
X109300000Y-114650000D01*
X106850000Y-117150000D02*
X107350000Y-116650000D01*
X114500000Y-116550000D02*
X114300000Y-116350000D01*
X109350000Y-113350000D02*
X109300000Y-113400000D01*
X112500000Y-115250000D02*
X112500000Y-115237500D01*
X109850000Y-116050000D02*
X109900000Y-116100000D01*
X114900000Y-117100000D02*
X114750000Y-116950000D01*
X110100000Y-117450000D02*
X110100000Y-117470000D01*
X121612500Y-111500000D02*
X121600000Y-111500000D01*
X109450000Y-111800000D02*
X109450000Y-112500000D01*
X110100000Y-117470000D02*
X110100000Y-117450000D01*
X120900000Y-119950000D02*
X120800000Y-119950000D01*
X108550000Y-116650000D02*
X108650000Y-116550000D01*
X104700000Y-120600000D02*
X106850000Y-118450000D01*
X116450000Y-116650000D02*
X116350000Y-116550000D01*
X103600000Y-120900000D02*
X103900000Y-120900000D01*
X109350000Y-111700000D02*
X109450000Y-111800000D01*
X117900000Y-117900000D02*
X117900000Y-116900000D01*
X112500000Y-115250000D02*
X112500000Y-115237500D01*
X110100000Y-117450000D02*
X110100000Y-117100000D01*
X110200000Y-117000000D02*
X110200000Y-116350000D01*
X109950000Y-117300000D02*
X110100000Y-117450000D01*
X114750000Y-116950000D02*
X114750000Y-116550000D01*
X109325000Y-109275000D02*
X109350000Y-109300000D01*
X119900000Y-119900000D02*
X117900000Y-117900000D01*
X120450000Y-112600000D02*
X118850000Y-112600000D01*
X104250000Y-120600000D02*
X104700000Y-120600000D01*
X114900000Y-117470000D02*
X114900000Y-117450000D01*
X109350000Y-109300000D02*
X109350000Y-111700000D01*
X114900000Y-117450000D02*
X114900000Y-117470000D01*
X120800000Y-119950000D02*
X120750000Y-119900000D01*
X117650000Y-116650000D02*
X116450000Y-116650000D01*
X109250000Y-114700000D02*
X109850000Y-115300000D01*
X103000000Y-121500000D02*
X103600000Y-120900000D01*
X117900000Y-116900000D02*
X117650000Y-116650000D01*
X108650000Y-116550000D02*
X109950000Y-116550000D01*
X109350000Y-112600000D02*
X109350000Y-113350000D01*
X115050000Y-116550000D02*
X115050000Y-117300000D01*
X109950000Y-116550000D02*
X109950000Y-117300000D01*
X104150000Y-120650000D02*
X104200000Y-120650000D01*
X109850000Y-115300000D02*
X109850000Y-116050000D01*
X110100000Y-117450000D02*
X110100000Y-117470000D01*
X109950000Y-116550000D02*
X109950000Y-117300000D01*
X116350000Y-116550000D02*
X115050000Y-116550000D01*
X120750000Y-119900000D02*
X119900000Y-119900000D01*
X112600000Y-115250000D02*
X112500000Y-115250000D01*
X120650000Y-112450000D02*
X120650000Y-112550000D01*
X109450000Y-112500000D02*
X109350000Y-112600000D01*
X109900000Y-116100000D02*
X109900000Y-116500000D01*
X110100000Y-117100000D02*
X110200000Y-117000000D01*
X103900000Y-120900000D02*
X104150000Y-120650000D01*
X117200000Y-114250000D02*
X115050000Y-114250000D01*
X114750000Y-116550000D02*
X114500000Y-116550000D01*
X112500000Y-115237500D02*
X112500000Y-115250000D01*
X120500000Y-112550000D02*
X120450000Y-112600000D01*
X121600000Y-111500000D02*
X120650000Y-112450000D01*
X112500000Y-115250000D02*
X112600000Y-115250000D01*
X106850000Y-118450000D02*
X106850000Y-117150000D01*
X114900000Y-117450000D02*
X114900000Y-117100000D01*
X121950000Y-121000000D02*
X120900000Y-119950000D01*
X104200000Y-120650000D02*
X104250000Y-120600000D01*
X118850000Y-112600000D02*
X117200000Y-114250000D01*
X115050000Y-117300000D02*
X114900000Y-117450000D01*
X107350000Y-116650000D02*
X108550000Y-116650000D01*
%TO.N,/GND*%
X107500000Y-111850000D02*
X107550000Y-111800000D01*
X119800000Y-108500000D02*
X119200000Y-109100000D01*
X104187500Y-117400000D02*
X104200000Y-117400000D01*
X117200000Y-111950000D02*
X117500000Y-111650000D01*
X102587500Y-107800000D02*
X102600000Y-107800000D01*
X117500000Y-110700000D02*
X117600000Y-110600000D01*
X119287500Y-117400000D02*
X119300000Y-117400000D01*
X119150000Y-109900000D02*
X119150000Y-110250000D01*
X103550000Y-108750000D02*
X103550000Y-108850000D01*
X107450000Y-113900000D02*
X107450000Y-113150000D01*
X104400000Y-122100000D02*
X104100000Y-122100000D01*
X107500000Y-113100000D02*
X107500000Y-111850000D01*
X107600000Y-121600000D02*
X106850000Y-121600000D01*
X112500000Y-112950000D02*
X112500000Y-112550000D01*
X110600000Y-109850000D02*
X110450000Y-110000000D01*
X104900000Y-117550000D02*
X104950000Y-117550000D01*
X113500000Y-111250000D02*
X112800000Y-111950000D01*
X105300000Y-110050000D02*
X104250000Y-111100000D01*
X119200000Y-109100000D02*
X119200000Y-109850000D01*
X112800000Y-111950000D02*
X112800000Y-112650000D01*
X107450000Y-113150000D02*
X107500000Y-113100000D01*
X107350000Y-114000000D02*
X107450000Y-113900000D01*
X115700000Y-117450000D02*
X115700000Y-117470000D01*
X110450000Y-110000000D02*
X110450000Y-110450000D01*
X108800000Y-117450000D02*
X109300000Y-117450000D01*
X112500000Y-112962500D02*
X112500000Y-112950000D01*
X105250000Y-121500000D02*
X105000000Y-121500000D01*
X103850000Y-122350000D02*
X102150000Y-122350000D01*
X110450000Y-110450000D02*
X110350000Y-110550000D01*
X104250000Y-111100000D02*
X104250000Y-112800000D01*
X116820000Y-118045000D02*
X116800000Y-118050000D01*
X104200000Y-117400000D02*
X104187500Y-117400000D01*
X115700000Y-117200000D02*
X115750000Y-117150000D01*
X110595000Y-109275000D02*
X110600000Y-109300000D01*
X103550000Y-108850000D02*
X103700000Y-108850000D01*
X119300000Y-117400000D02*
X118500000Y-117400000D01*
X116800000Y-118050000D02*
X116200000Y-117450000D01*
X104100000Y-122100000D02*
X103850000Y-122350000D01*
X108200000Y-122200000D02*
X107600000Y-121600000D01*
X104200000Y-117400000D02*
X104750000Y-117400000D01*
X108180000Y-118045000D02*
X108200000Y-118050000D01*
X107550000Y-111800000D02*
X108400000Y-111800000D01*
X118950000Y-110600000D02*
X117200000Y-112350000D01*
X112800000Y-112250000D02*
X112800000Y-111850000D01*
X109300000Y-117450000D02*
X109300000Y-117470000D01*
X104250000Y-112800000D02*
X106550000Y-112800000D01*
X104150000Y-108900000D02*
X105300000Y-110050000D01*
X103700000Y-108850000D02*
X103750000Y-108900000D01*
X106800000Y-121550000D02*
X105300000Y-121550000D01*
X117200000Y-112350000D02*
X117200000Y-111950000D01*
X120050000Y-121000000D02*
X120050000Y-120500000D01*
X119150000Y-110250000D02*
X118950000Y-110450000D01*
X106550000Y-112800000D02*
X107550000Y-111800000D01*
X105000000Y-121500000D02*
X104400000Y-122100000D01*
X112500000Y-112550000D02*
X112800000Y-112250000D01*
X119300000Y-117400000D02*
X119287500Y-117400000D01*
X109300000Y-117450000D02*
X108950000Y-117450000D01*
X102150000Y-119450000D02*
X104200000Y-117400000D01*
X112800000Y-111850000D02*
X113000000Y-111650000D01*
X108180000Y-122225000D02*
X108200000Y-122200000D01*
X108200000Y-118050000D02*
X108800000Y-117450000D01*
X104750000Y-117400000D02*
X104900000Y-117550000D01*
X117600000Y-109250000D02*
X117800000Y-109050000D01*
X117600000Y-110600000D02*
X117600000Y-109250000D01*
X119200000Y-109850000D02*
X119150000Y-109900000D01*
X106850000Y-121600000D02*
X106800000Y-121550000D01*
X102600000Y-107800000D02*
X103550000Y-108750000D01*
X105300000Y-121550000D02*
X105250000Y-121500000D01*
X110600000Y-109300000D02*
X110600000Y-109850000D01*
X119787500Y-108500000D02*
X119800000Y-108500000D01*
X102150000Y-122350000D02*
X102150000Y-119450000D01*
X109300000Y-117470000D02*
X109300000Y-117450000D01*
X116200000Y-117450000D02*
X115700000Y-117450000D01*
X117500000Y-111650000D02*
X117500000Y-110700000D01*
X107350000Y-114700000D02*
X107350000Y-114000000D01*
X119700000Y-121350000D02*
X120050000Y-121000000D01*
X112800000Y-112650000D02*
X112500000Y-112950000D01*
X115700000Y-117450000D02*
X115700000Y-117200000D01*
X118950000Y-110450000D02*
X118950000Y-110600000D01*
X103750000Y-108900000D02*
X104150000Y-108900000D01*
X112500000Y-112950000D02*
X112500000Y-112962500D01*
X115700000Y-117470000D02*
X115700000Y-117450000D01*
%TO.N,/LED_DATA*%
X120650000Y-107450000D02*
X120650000Y-107550000D01*
X121600000Y-108500000D02*
X120850000Y-108500000D01*
X121600000Y-108500000D02*
X121612500Y-108500000D01*
X119787500Y-105500000D02*
X119800000Y-105500000D01*
X120650000Y-107550000D02*
X121600000Y-108500000D01*
X120450000Y-107250000D02*
X120650000Y-107450000D01*
X120450000Y-106900000D02*
X120450000Y-107250000D01*
X120400000Y-106100000D02*
X120400000Y-106850000D01*
X121612500Y-108500000D02*
X121600000Y-108500000D01*
X120400000Y-106850000D02*
X120450000Y-106900000D01*
X119800000Y-105500000D02*
X120400000Y-106100000D01*
%TO.N,/V33*%
X107350000Y-109900000D02*
X105300000Y-111950000D01*
X107450000Y-109900000D02*
X107350000Y-109900000D01*
X108055000Y-109275000D02*
X108050000Y-109300000D01*
X108050000Y-109300000D02*
X107450000Y-109900000D01*
%TO.N,/BOOT_PULL*%
X121350000Y-114400000D02*
X121950000Y-113800000D01*
X120750000Y-110550000D02*
X119800000Y-111500000D01*
X119800000Y-111500000D02*
X119787500Y-111500000D01*
X121950000Y-113800000D02*
X121950000Y-113050000D01*
X120750000Y-110450000D02*
X120750000Y-110550000D01*
X122450000Y-112550000D02*
X122450000Y-110450000D01*
X121950000Y-113050000D02*
X122450000Y-112550000D01*
X122450000Y-110450000D02*
X120750000Y-110450000D01*
%TO.N,/USB_DP*%
X113135000Y-109275000D02*
X113150000Y-109300000D01*
X112750000Y-118550000D02*
X112750000Y-117470000D01*
X112550000Y-109900000D02*
X112550000Y-110650000D01*
X111550000Y-115237500D02*
X111550000Y-115250000D01*
X111550000Y-112950000D02*
X111550000Y-112962500D01*
X113150000Y-109300000D02*
X112550000Y-109900000D01*
X114950000Y-115100000D02*
X114100000Y-114250000D01*
X114100000Y-114250000D02*
X111850000Y-114250000D01*
X111550000Y-115250000D02*
X111550000Y-115237500D01*
X111000000Y-116400000D02*
X111550000Y-115850000D01*
X112500000Y-110700000D02*
X112500000Y-111300000D01*
X111850000Y-111950000D02*
X111850000Y-112650000D01*
X111550000Y-112950000D02*
X111550000Y-112962500D01*
X111550000Y-115250000D02*
X111550000Y-112950000D01*
X111850000Y-114250000D02*
X111850000Y-114950000D01*
X118650000Y-115050000D02*
X118300000Y-115050000D01*
X120050000Y-114400000D02*
X119450000Y-115000000D01*
X118250000Y-115100000D02*
X114950000Y-115100000D01*
X111850000Y-112650000D02*
X111550000Y-112950000D01*
X111750000Y-118550000D02*
X112750000Y-118550000D01*
X112550000Y-110650000D02*
X112500000Y-110700000D01*
X111550000Y-115850000D02*
X111550000Y-115237500D01*
X111850000Y-114950000D02*
X111550000Y-115250000D01*
X118700000Y-115000000D02*
X118650000Y-115050000D01*
X119450000Y-115000000D02*
X118700000Y-115000000D01*
X112500000Y-111300000D02*
X111850000Y-111950000D01*
X111750000Y-117470000D02*
X111750000Y-118550000D01*
X118300000Y-115050000D02*
X118250000Y-115100000D01*
%TO.N,/USB_DM*%
X112250000Y-116550000D02*
X113250000Y-116550000D01*
X113450000Y-115237500D02*
X113450000Y-115250000D01*
X113450000Y-115250000D02*
X113450000Y-114850000D01*
X113250000Y-116550000D02*
X113250000Y-117470000D01*
X111850000Y-109300000D02*
X112450000Y-108700000D01*
X112450000Y-108000000D02*
X112500000Y-107950000D01*
X111865000Y-109275000D02*
X111850000Y-109300000D01*
X113250000Y-116550000D02*
X113450000Y-116350000D01*
X112450000Y-108700000D02*
X112450000Y-108000000D01*
X113450000Y-112950000D02*
X113450000Y-112962500D01*
X113450000Y-116350000D02*
X113450000Y-115237500D01*
X112500000Y-107950000D02*
X115050000Y-107950000D01*
X113450000Y-112950000D02*
X113450000Y-112962500D01*
X115050000Y-107950000D02*
X115050000Y-111350000D01*
X112250000Y-117470000D02*
X112250000Y-116550000D01*
X115050000Y-111350000D02*
X113450000Y-112950000D01*
%TO.N,/PROG_SCS*%
X108750000Y-103750000D02*
X108750000Y-103050000D01*
X109325000Y-104325000D02*
X109350000Y-104350000D01*
X109350000Y-104350000D02*
X108750000Y-103750000D01*
X108700000Y-103000000D02*
X107500000Y-103000000D01*
X107500000Y-103000000D02*
X106500000Y-102000000D01*
X108750000Y-103050000D02*
X108700000Y-103000000D01*
%TO.N,/CC1*%
X122800000Y-119950000D02*
X122800000Y-122050000D01*
X119000000Y-122050000D02*
X116400000Y-119450000D01*
X121750000Y-118900000D02*
X122800000Y-119950000D01*
X121100000Y-117400000D02*
X121700000Y-118000000D01*
X113750000Y-118400000D02*
X113750000Y-117450000D01*
X115750000Y-119450000D02*
X115600000Y-119300000D01*
X121750000Y-118800000D02*
X121750000Y-118900000D01*
X122800000Y-122050000D02*
X119000000Y-122050000D01*
X114600000Y-119300000D02*
X114600000Y-119250000D01*
X115600000Y-119300000D02*
X114600000Y-119300000D01*
X121700000Y-118000000D02*
X121700000Y-118750000D01*
X121700000Y-118750000D02*
X121750000Y-118800000D01*
X113750000Y-117450000D02*
X113750000Y-117470000D01*
X116400000Y-119450000D02*
X115750000Y-119450000D01*
X121112500Y-117400000D02*
X121100000Y-117400000D01*
X114600000Y-119250000D02*
X113750000Y-118400000D01*
%TO.N,/CC2*%
X106012500Y-117400000D02*
X106000000Y-117400000D01*
X110750000Y-117450000D02*
X110750000Y-117470000D01*
X110750000Y-118600000D02*
X110750000Y-117450000D01*
X106000000Y-117400000D02*
X106250000Y-117400000D01*
%TO.N,/RESET*%
X115000000Y-103750000D02*
X115000000Y-103050000D01*
X113800000Y-104950000D02*
X114400000Y-104350000D01*
X114400000Y-104350000D02*
X115000000Y-103750000D01*
X117550000Y-102950000D02*
X118500000Y-102000000D01*
X115000000Y-103050000D02*
X115050000Y-103000000D01*
X114400000Y-104350000D02*
X114405000Y-104325000D01*
X104400000Y-107800000D02*
X110950000Y-107800000D01*
X114405000Y-104325000D02*
X114400000Y-104350000D01*
X115050000Y-103000000D02*
X116600000Y-103000000D01*
X113800000Y-105650000D02*
X113800000Y-104950000D01*
X113100000Y-105650000D02*
X113800000Y-105650000D01*
X116650000Y-102950000D02*
X117550000Y-102950000D01*
X104412500Y-107800000D02*
X104400000Y-107800000D01*
X110950000Y-107800000D02*
X113100000Y-105650000D01*
X116600000Y-103000000D02*
X116650000Y-102950000D01*
%TO.N,/LED_DATA_RAW*%
X117050000Y-101150000D02*
X116850000Y-100950000D01*
X112050000Y-102900000D02*
X111950000Y-103000000D01*
X120650000Y-104450000D02*
X119350000Y-103150000D01*
X119350000Y-103150000D02*
X119350000Y-101150000D01*
X119350000Y-101150000D02*
X117050000Y-101150000D01*
X116850000Y-100950000D02*
X114700000Y-100950000D01*
X110600000Y-104350000D02*
X110595000Y-104325000D01*
X121612500Y-105500000D02*
X121600000Y-105500000D01*
X112750000Y-102900000D02*
X112050000Y-102900000D01*
X111950000Y-103000000D02*
X111200000Y-103000000D01*
X120650000Y-104550000D02*
X120650000Y-104450000D01*
X114700000Y-100950000D02*
X112750000Y-102900000D01*
X111200000Y-103750000D02*
X110600000Y-104350000D01*
X111200000Y-103000000D02*
X111200000Y-103750000D01*
X121600000Y-105500000D02*
X120650000Y-104550000D01*
%TO.N,/PROG_MISO*%
X111250000Y-104950000D02*
X111850000Y-104350000D01*
X111850000Y-104350000D02*
X111865000Y-104325000D01*
X109950000Y-102750000D02*
X109950000Y-105650000D01*
X109950000Y-105650000D02*
X111250000Y-105650000D01*
X111250000Y-105650000D02*
X111250000Y-104950000D01*
X109000000Y-101800000D02*
X109950000Y-102750000D01*
%TO.N,/PROG_SCK*%
X115100000Y-102400000D02*
X114900000Y-102600000D01*
X113150000Y-104350000D02*
X113135000Y-104325000D01*
X114800000Y-102600000D02*
X114400000Y-103000000D01*
X116000000Y-101800000D02*
X115400000Y-102400000D01*
X114400000Y-103000000D02*
X113750000Y-103000000D01*
X114900000Y-102600000D02*
X114800000Y-102600000D01*
X115400000Y-102400000D02*
X115100000Y-102400000D01*
X113750000Y-103750000D02*
X113150000Y-104350000D01*
X113750000Y-103000000D02*
X113750000Y-103750000D01*
%TD*%
%TA.AperFunction,Conductor*%
%TO.N,/GND*%
G36*
X114566275Y-100519407D02*
G01*
X114602239Y-100568907D01*
X114602239Y-100630093D01*
X114566275Y-100679593D01*
X114557584Y-100685236D01*
X114515491Y-100709538D01*
X112654525Y-102570504D01*
X112600008Y-102598281D01*
X112584521Y-102599500D01*
X112010435Y-102599500D01*
X111934011Y-102619978D01*
X111898539Y-102640459D01*
X111898538Y-102640459D01*
X111865491Y-102659538D01*
X111865489Y-102659539D01*
X111865489Y-102659540D01*
X111854523Y-102670505D01*
X111800009Y-102698281D01*
X111784522Y-102699500D01*
X111160435Y-102699500D01*
X111084011Y-102719978D01*
X111084007Y-102719980D01*
X111015491Y-102759538D01*
X110959538Y-102815491D01*
X110919980Y-102884007D01*
X110919978Y-102884011D01*
X110899500Y-102960435D01*
X110899500Y-103052695D01*
X110880593Y-103110886D01*
X110831093Y-103146850D01*
X110786228Y-103150661D01*
X110778260Y-103149500D01*
X110411740Y-103149500D01*
X110363772Y-103156488D01*
X110303465Y-103146169D01*
X110260740Y-103102371D01*
X110250500Y-103058523D01*
X110250500Y-102710437D01*
X110250499Y-102710435D01*
X110242349Y-102680021D01*
X110230021Y-102634011D01*
X110228336Y-102631093D01*
X110190460Y-102565489D01*
X110134511Y-102509539D01*
X110134511Y-102509540D01*
X109703650Y-102078679D01*
X109675873Y-102024162D01*
X109676555Y-101989367D01*
X109700500Y-101868993D01*
X109700500Y-101731007D01*
X109673580Y-101595672D01*
X109620775Y-101468189D01*
X109620774Y-101468187D01*
X109620771Y-101468182D01*
X109544114Y-101353458D01*
X109446541Y-101255885D01*
X109331817Y-101179228D01*
X109331806Y-101179222D01*
X109204328Y-101126420D01*
X109068995Y-101099500D01*
X109068993Y-101099500D01*
X108931007Y-101099500D01*
X108931004Y-101099500D01*
X108795672Y-101126420D01*
X108795670Y-101126420D01*
X108668193Y-101179222D01*
X108668182Y-101179228D01*
X108553458Y-101255885D01*
X108455885Y-101353458D01*
X108379228Y-101468182D01*
X108379222Y-101468193D01*
X108326420Y-101595670D01*
X108326420Y-101595672D01*
X108299500Y-101731004D01*
X108299500Y-101868995D01*
X108326420Y-102004327D01*
X108326420Y-102004329D01*
X108379222Y-102131806D01*
X108379228Y-102131817D01*
X108455885Y-102246541D01*
X108553458Y-102344114D01*
X108668182Y-102420771D01*
X108668193Y-102420777D01*
X108710935Y-102438481D01*
X108795672Y-102473580D01*
X108931007Y-102500500D01*
X108931008Y-102500500D01*
X109068992Y-102500500D01*
X109068993Y-102500500D01*
X109189364Y-102476556D01*
X109250121Y-102483747D01*
X109278679Y-102503650D01*
X109620504Y-102845475D01*
X109648281Y-102899992D01*
X109649500Y-102915479D01*
X109649500Y-103055609D01*
X109630593Y-103113800D01*
X109581093Y-103149764D01*
X109536227Y-103153574D01*
X109508260Y-103149500D01*
X109149500Y-103149500D01*
X109091309Y-103130593D01*
X109055345Y-103081093D01*
X109050500Y-103050500D01*
X109050500Y-103010439D01*
X109050500Y-103010438D01*
X109038456Y-102965489D01*
X109038456Y-102965488D01*
X109038456Y-102965487D01*
X109030021Y-102934010D01*
X109030020Y-102934008D01*
X108990463Y-102865493D01*
X108990461Y-102865491D01*
X108990460Y-102865489D01*
X108884511Y-102759540D01*
X108877649Y-102755578D01*
X108867121Y-102749499D01*
X108867121Y-102749500D01*
X108815989Y-102719979D01*
X108815988Y-102719978D01*
X108815987Y-102719978D01*
X108739564Y-102699500D01*
X108739562Y-102699500D01*
X107665479Y-102699500D01*
X107607288Y-102680593D01*
X107595475Y-102670504D01*
X107203650Y-102278679D01*
X107175873Y-102224162D01*
X107176555Y-102189367D01*
X107200500Y-102068993D01*
X107200500Y-101931007D01*
X107173580Y-101795672D01*
X107120775Y-101668189D01*
X107120774Y-101668187D01*
X107120771Y-101668182D01*
X107044114Y-101553458D01*
X106946541Y-101455885D01*
X106831817Y-101379228D01*
X106831806Y-101379222D01*
X106704328Y-101326420D01*
X106568995Y-101299500D01*
X106568993Y-101299500D01*
X106431007Y-101299500D01*
X106431004Y-101299500D01*
X106295672Y-101326420D01*
X106295670Y-101326420D01*
X106168193Y-101379222D01*
X106168182Y-101379228D01*
X106053458Y-101455885D01*
X105955885Y-101553458D01*
X105879228Y-101668182D01*
X105879222Y-101668193D01*
X105826420Y-101795670D01*
X105826420Y-101795672D01*
X105799500Y-101931004D01*
X105799500Y-102068995D01*
X105826420Y-102204327D01*
X105826420Y-102204329D01*
X105879222Y-102331806D01*
X105879228Y-102331817D01*
X105955885Y-102446541D01*
X106053458Y-102544114D01*
X106168182Y-102620771D01*
X106168193Y-102620777D01*
X106215283Y-102640282D01*
X106295672Y-102673580D01*
X106431007Y-102700500D01*
X106431008Y-102700500D01*
X106568992Y-102700500D01*
X106568993Y-102700500D01*
X106689364Y-102676556D01*
X106750122Y-102683747D01*
X106778676Y-102703647D01*
X107315489Y-103240460D01*
X107315491Y-103240461D01*
X107315493Y-103240463D01*
X107384008Y-103280020D01*
X107384006Y-103280020D01*
X107384010Y-103280021D01*
X107384012Y-103280022D01*
X107460438Y-103300500D01*
X107464252Y-103300500D01*
X107466849Y-103301344D01*
X107466872Y-103301347D01*
X107466871Y-103301351D01*
X107522443Y-103319407D01*
X107558407Y-103368907D01*
X107562217Y-103413770D01*
X107554500Y-103466740D01*
X107554500Y-105183260D01*
X107561118Y-105228682D01*
X107564427Y-105251395D01*
X107615801Y-105356481D01*
X107615802Y-105356483D01*
X107698517Y-105439198D01*
X107740500Y-105459722D01*
X107803604Y-105490572D01*
X107803605Y-105490572D01*
X107803607Y-105490573D01*
X107871740Y-105500500D01*
X107871743Y-105500500D01*
X108238257Y-105500500D01*
X108238260Y-105500500D01*
X108306393Y-105490573D01*
X108411483Y-105439198D01*
X108494198Y-105356483D01*
X108545573Y-105251393D01*
X108555500Y-105183260D01*
X108555500Y-104219479D01*
X108574407Y-104161288D01*
X108623907Y-104125324D01*
X108685093Y-104125324D01*
X108724504Y-104149475D01*
X108795504Y-104220475D01*
X108823281Y-104274992D01*
X108824500Y-104290479D01*
X108824500Y-105183260D01*
X108831118Y-105228682D01*
X108834427Y-105251395D01*
X108885801Y-105356481D01*
X108885802Y-105356483D01*
X108968517Y-105439198D01*
X109010500Y-105459722D01*
X109073604Y-105490572D01*
X109073605Y-105490572D01*
X109073607Y-105490573D01*
X109141740Y-105500500D01*
X109141743Y-105500500D01*
X109508259Y-105500500D01*
X109508260Y-105500500D01*
X109536226Y-105496425D01*
X109596533Y-105506743D01*
X109639259Y-105550540D01*
X109649500Y-105594390D01*
X109649500Y-105689564D01*
X109669978Y-105765988D01*
X109669980Y-105765992D01*
X109709538Y-105834508D01*
X109709540Y-105834511D01*
X109765489Y-105890460D01*
X109765491Y-105890461D01*
X109834007Y-105930019D01*
X109834011Y-105930021D01*
X109910435Y-105950499D01*
X109910437Y-105950500D01*
X109910438Y-105950500D01*
X111289563Y-105950500D01*
X111289563Y-105950499D01*
X111365989Y-105930021D01*
X111434511Y-105890460D01*
X111490460Y-105834511D01*
X111530021Y-105765989D01*
X111550500Y-105689562D01*
X111550500Y-105595847D01*
X111569407Y-105537656D01*
X111618907Y-105501692D01*
X111663773Y-105497882D01*
X111681740Y-105500500D01*
X111681741Y-105500500D01*
X112048257Y-105500500D01*
X112048260Y-105500500D01*
X112116393Y-105490573D01*
X112221483Y-105439198D01*
X112304198Y-105356483D01*
X112355573Y-105251393D01*
X112365500Y-105183260D01*
X112365500Y-103466740D01*
X112355573Y-103398607D01*
X112355571Y-103398603D01*
X112328379Y-103342980D01*
X112319808Y-103282398D01*
X112348483Y-103228349D01*
X112403452Y-103201476D01*
X112417320Y-103200500D01*
X112582680Y-103200500D01*
X112640871Y-103219407D01*
X112676835Y-103268907D01*
X112676835Y-103330093D01*
X112671621Y-103342980D01*
X112644427Y-103398604D01*
X112644427Y-103398607D01*
X112634500Y-103466740D01*
X112634500Y-105183260D01*
X112641118Y-105228682D01*
X112644427Y-105251395D01*
X112695801Y-105356481D01*
X112695802Y-105356483D01*
X112762171Y-105422852D01*
X112789947Y-105477367D01*
X112780376Y-105537799D01*
X112762170Y-105562858D01*
X110854525Y-107470504D01*
X110800008Y-107498281D01*
X110784521Y-107499500D01*
X105224500Y-107499500D01*
X105166309Y-107480593D01*
X105130345Y-107431093D01*
X105125500Y-107400500D01*
X105125500Y-107295727D01*
X105125499Y-107295725D01*
X105122664Y-107265493D01*
X105122646Y-107265301D01*
X105077793Y-107137118D01*
X105056237Y-107107911D01*
X104997154Y-107027855D01*
X104997152Y-107027853D01*
X104997150Y-107027850D01*
X104997146Y-107027847D01*
X104997144Y-107027845D01*
X104887883Y-106947207D01*
X104759703Y-106902355D01*
X104759694Y-106902353D01*
X104729274Y-106899500D01*
X104729266Y-106899500D01*
X104095734Y-106899500D01*
X104095725Y-106899500D01*
X104065305Y-106902353D01*
X104065296Y-106902355D01*
X103937116Y-106947207D01*
X103827855Y-107027845D01*
X103827845Y-107027855D01*
X103747207Y-107137116D01*
X103702355Y-107265296D01*
X103702353Y-107265305D01*
X103699500Y-107295725D01*
X103699500Y-108304274D01*
X103702353Y-108334694D01*
X103702355Y-108334703D01*
X103747207Y-108462883D01*
X103827845Y-108572144D01*
X103827847Y-108572146D01*
X103827850Y-108572150D01*
X103827853Y-108572152D01*
X103827855Y-108572154D01*
X103937116Y-108652792D01*
X103937117Y-108652792D01*
X103937118Y-108652793D01*
X104065301Y-108697646D01*
X104095725Y-108700499D01*
X104095727Y-108700500D01*
X104095734Y-108700500D01*
X104729273Y-108700500D01*
X104729273Y-108700499D01*
X104759699Y-108697646D01*
X104887882Y-108652793D01*
X104997150Y-108572150D01*
X105077793Y-108462882D01*
X105122646Y-108334699D01*
X105125499Y-108304273D01*
X105125500Y-108304273D01*
X105125500Y-108199500D01*
X105144407Y-108141309D01*
X105193907Y-108105345D01*
X105224500Y-108100500D01*
X107527124Y-108100500D01*
X107585315Y-108119407D01*
X107621279Y-108168907D01*
X107621279Y-108230093D01*
X107616065Y-108242981D01*
X107615803Y-108243515D01*
X107615802Y-108243517D01*
X107590382Y-108295513D01*
X107564427Y-108348605D01*
X107554500Y-108416743D01*
X107554500Y-109329521D01*
X107535593Y-109387712D01*
X107525503Y-109399525D01*
X107349808Y-109575219D01*
X107305430Y-109600841D01*
X107234009Y-109619979D01*
X107234007Y-109619980D01*
X107165491Y-109659538D01*
X106444004Y-110381025D01*
X106389487Y-110408802D01*
X106329055Y-110399231D01*
X106285790Y-110355966D01*
X106275000Y-110311021D01*
X106275000Y-110175001D01*
X106274999Y-110175000D01*
X105425001Y-110175000D01*
X105425000Y-110175001D01*
X105425000Y-110799999D01*
X105425001Y-110800000D01*
X105786021Y-110800000D01*
X105844212Y-110818907D01*
X105880176Y-110868407D01*
X105880176Y-110929593D01*
X105856025Y-110969004D01*
X105604525Y-111220504D01*
X105550008Y-111248281D01*
X105534521Y-111249500D01*
X104770725Y-111249500D01*
X104740305Y-111252353D01*
X104740296Y-111252355D01*
X104612116Y-111297207D01*
X104502855Y-111377845D01*
X104502845Y-111377855D01*
X104422207Y-111487116D01*
X104377355Y-111615296D01*
X104377353Y-111615305D01*
X104374500Y-111645725D01*
X104374500Y-112254274D01*
X104377353Y-112284694D01*
X104377355Y-112284703D01*
X104422207Y-112412883D01*
X104502845Y-112522144D01*
X104502847Y-112522146D01*
X104502850Y-112522150D01*
X104502853Y-112522152D01*
X104502855Y-112522154D01*
X104612116Y-112602792D01*
X104612117Y-112602792D01*
X104612118Y-112602793D01*
X104740301Y-112647646D01*
X104770725Y-112650499D01*
X104770727Y-112650500D01*
X104770734Y-112650500D01*
X105829273Y-112650500D01*
X105829273Y-112650499D01*
X105859699Y-112647646D01*
X105987882Y-112602793D01*
X106097150Y-112522150D01*
X106177793Y-112412882D01*
X106209306Y-112322824D01*
X106799999Y-112322824D01*
X106806401Y-112382370D01*
X106806403Y-112382381D01*
X106856646Y-112517088D01*
X106856647Y-112517090D01*
X106942807Y-112632184D01*
X106942815Y-112632192D01*
X107057909Y-112718352D01*
X107057911Y-112718353D01*
X107192618Y-112768596D01*
X107192629Y-112768598D01*
X107252176Y-112775000D01*
X107424999Y-112775000D01*
X107425000Y-112774999D01*
X107425000Y-111925001D01*
X107675000Y-111925001D01*
X107675000Y-112774999D01*
X107675001Y-112775000D01*
X107847824Y-112775000D01*
X107907370Y-112768598D01*
X107907381Y-112768596D01*
X108042088Y-112718353D01*
X108042090Y-112718352D01*
X108157184Y-112632192D01*
X108157192Y-112632184D01*
X108243352Y-112517090D01*
X108243353Y-112517088D01*
X108293596Y-112382381D01*
X108293598Y-112382370D01*
X108300000Y-112322824D01*
X108300000Y-111925001D01*
X108299999Y-111925000D01*
X107675001Y-111925000D01*
X107675000Y-111925001D01*
X107425000Y-111925001D01*
X107424999Y-111925000D01*
X106800001Y-111925000D01*
X106800000Y-111925001D01*
X106800000Y-112322824D01*
X106799999Y-112322824D01*
X106209306Y-112322824D01*
X106222646Y-112284699D01*
X106225499Y-112254273D01*
X106225500Y-112254273D01*
X106225500Y-111645727D01*
X106225499Y-111645725D01*
X106222646Y-111615305D01*
X106222646Y-111615301D01*
X106200944Y-111553283D01*
X106199571Y-111492117D01*
X106224383Y-111450586D01*
X106692235Y-110982734D01*
X106746750Y-110954959D01*
X106807182Y-110964530D01*
X106850447Y-111007795D01*
X106860018Y-111068227D01*
X106854995Y-111087336D01*
X106806403Y-111217618D01*
X106806401Y-111217629D01*
X106800000Y-111277175D01*
X106800000Y-111674999D01*
X106800001Y-111675000D01*
X107424999Y-111675000D01*
X107425000Y-111674999D01*
X107425000Y-110825001D01*
X107675000Y-110825001D01*
X107675000Y-111674999D01*
X107675001Y-111675000D01*
X108299999Y-111675000D01*
X108300000Y-111674999D01*
X108300000Y-111277175D01*
X108293598Y-111217629D01*
X108293596Y-111217618D01*
X108243353Y-111082911D01*
X108243352Y-111082909D01*
X108157192Y-110967815D01*
X108157184Y-110967807D01*
X108042090Y-110881647D01*
X108042088Y-110881646D01*
X107907381Y-110831403D01*
X107907370Y-110831401D01*
X107847824Y-110825000D01*
X107675001Y-110825000D01*
X107675000Y-110825001D01*
X107425000Y-110825001D01*
X107424999Y-110825000D01*
X107252176Y-110825000D01*
X107192629Y-110831401D01*
X107192618Y-110831403D01*
X107062337Y-110879995D01*
X107001208Y-110882615D01*
X106950213Y-110848804D01*
X106928832Y-110791476D01*
X106945230Y-110732529D01*
X106957734Y-110717236D01*
X107436551Y-110238418D01*
X107491067Y-110210643D01*
X107551499Y-110220214D01*
X107594764Y-110263479D01*
X107595493Y-110264940D01*
X107615802Y-110306483D01*
X107698517Y-110389198D01*
X107752285Y-110415483D01*
X107803604Y-110440572D01*
X107803605Y-110440572D01*
X107803607Y-110440573D01*
X107871740Y-110450500D01*
X107871743Y-110450500D01*
X108238257Y-110450500D01*
X108238260Y-110450500D01*
X108306393Y-110440573D01*
X108411483Y-110389198D01*
X108494198Y-110306483D01*
X108545573Y-110201393D01*
X108555500Y-110133260D01*
X108555500Y-108416740D01*
X108545573Y-108348607D01*
X108494198Y-108243517D01*
X108494196Y-108243515D01*
X108493935Y-108242981D01*
X108485364Y-108182399D01*
X108514039Y-108128349D01*
X108569007Y-108101476D01*
X108582876Y-108100500D01*
X108797124Y-108100500D01*
X108855315Y-108119407D01*
X108891279Y-108168907D01*
X108891279Y-108230093D01*
X108886065Y-108242981D01*
X108885803Y-108243515D01*
X108885802Y-108243517D01*
X108860382Y-108295513D01*
X108834427Y-108348605D01*
X108832217Y-108363774D01*
X108824500Y-108416740D01*
X108824500Y-110133260D01*
X108829850Y-110169978D01*
X108834427Y-110201395D01*
X108865495Y-110264944D01*
X108885802Y-110306483D01*
X108968517Y-110389198D01*
X108993979Y-110401645D01*
X109037953Y-110444186D01*
X109049500Y-110490586D01*
X109049500Y-110830134D01*
X109030593Y-110888325D01*
X108992554Y-110916619D01*
X108993676Y-110918741D01*
X108987114Y-110922208D01*
X108877855Y-111002845D01*
X108877845Y-111002855D01*
X108797207Y-111112116D01*
X108752355Y-111240296D01*
X108752353Y-111240305D01*
X108749500Y-111270725D01*
X108749500Y-112329274D01*
X108752353Y-112359694D01*
X108752355Y-112359703D01*
X108797207Y-112487883D01*
X108877845Y-112597144D01*
X108877847Y-112597146D01*
X108877850Y-112597150D01*
X108877853Y-112597152D01*
X108877855Y-112597154D01*
X108987116Y-112677792D01*
X108993674Y-112681258D01*
X108992490Y-112683498D01*
X109031871Y-112713476D01*
X109049500Y-112769865D01*
X109049500Y-113206351D01*
X109036237Y-113255849D01*
X109019981Y-113284006D01*
X109019977Y-113284014D01*
X108999500Y-113360435D01*
X108999500Y-113679307D01*
X108980593Y-113737498D01*
X108931093Y-113773462D01*
X108921069Y-113775542D01*
X108921185Y-113776069D01*
X108915296Y-113777355D01*
X108787116Y-113822207D01*
X108677855Y-113902845D01*
X108677845Y-113902855D01*
X108597207Y-114012116D01*
X108552355Y-114140296D01*
X108552353Y-114140305D01*
X108549500Y-114170725D01*
X108549500Y-115229274D01*
X108552353Y-115259694D01*
X108552355Y-115259703D01*
X108597207Y-115387883D01*
X108677845Y-115497144D01*
X108677847Y-115497146D01*
X108677850Y-115497150D01*
X108677853Y-115497152D01*
X108677855Y-115497154D01*
X108787116Y-115577792D01*
X108787117Y-115577792D01*
X108787118Y-115577793D01*
X108915301Y-115622646D01*
X108945725Y-115625499D01*
X108945727Y-115625500D01*
X108945734Y-115625500D01*
X109450500Y-115625500D01*
X109508691Y-115644407D01*
X109544655Y-115693907D01*
X109549500Y-115724500D01*
X109549500Y-116089561D01*
X109558963Y-116124877D01*
X109555761Y-116185978D01*
X109517256Y-116233528D01*
X109463336Y-116249500D01*
X108610435Y-116249500D01*
X108534012Y-116269978D01*
X108509539Y-116284108D01*
X108509538Y-116284107D01*
X108465490Y-116309539D01*
X108465489Y-116309539D01*
X108465489Y-116309540D01*
X108454523Y-116320505D01*
X108400009Y-116348281D01*
X108384522Y-116349500D01*
X107389562Y-116349500D01*
X107310438Y-116349500D01*
X107263661Y-116362033D01*
X107234007Y-116369979D01*
X107165493Y-116409536D01*
X107165488Y-116409540D01*
X106827130Y-116747898D01*
X106772614Y-116775675D01*
X106712182Y-116766104D01*
X106677472Y-116736682D01*
X106597154Y-116627855D01*
X106597152Y-116627853D01*
X106597150Y-116627850D01*
X106597146Y-116627847D01*
X106597144Y-116627845D01*
X106487883Y-116547207D01*
X106359703Y-116502355D01*
X106359694Y-116502353D01*
X106329274Y-116499500D01*
X106329266Y-116499500D01*
X105695734Y-116499500D01*
X105695725Y-116499500D01*
X105665305Y-116502353D01*
X105665296Y-116502355D01*
X105537116Y-116547207D01*
X105427855Y-116627845D01*
X105427845Y-116627855D01*
X105347207Y-116737116D01*
X105302355Y-116865296D01*
X105302353Y-116865305D01*
X105299500Y-116895725D01*
X105299500Y-117904274D01*
X105302353Y-117934694D01*
X105302355Y-117934703D01*
X105347207Y-118062883D01*
X105427845Y-118172144D01*
X105427847Y-118172146D01*
X105427850Y-118172150D01*
X105427853Y-118172152D01*
X105427855Y-118172154D01*
X105537116Y-118252792D01*
X105537117Y-118252792D01*
X105537118Y-118252793D01*
X105665301Y-118297646D01*
X105695725Y-118300499D01*
X105695727Y-118300500D01*
X105695734Y-118300500D01*
X106329261Y-118300500D01*
X106329266Y-118300500D01*
X106329271Y-118300499D01*
X106331072Y-118300415D01*
X106331382Y-118300500D01*
X106331581Y-118300500D01*
X106331581Y-118300554D01*
X106390085Y-118316573D01*
X106428331Y-118364332D01*
X106431199Y-118425450D01*
X106405718Y-118469310D01*
X104604525Y-120270504D01*
X104550008Y-120298281D01*
X104534521Y-120299500D01*
X104289562Y-120299500D01*
X104210438Y-120299500D01*
X104163661Y-120312033D01*
X104134007Y-120319979D01*
X104070299Y-120356762D01*
X104046429Y-120366651D01*
X104034011Y-120369979D01*
X104034003Y-120369982D01*
X103965489Y-120409539D01*
X103804524Y-120570504D01*
X103750008Y-120598281D01*
X103734521Y-120599500D01*
X103560435Y-120599500D01*
X103484011Y-120619978D01*
X103484007Y-120619980D01*
X103415489Y-120659539D01*
X103278679Y-120796349D01*
X103224163Y-120824126D01*
X103189362Y-120823443D01*
X103068995Y-120799500D01*
X103068993Y-120799500D01*
X102931007Y-120799500D01*
X102931004Y-120799500D01*
X102795672Y-120826420D01*
X102795670Y-120826420D01*
X102668193Y-120879222D01*
X102668182Y-120879228D01*
X102553458Y-120955885D01*
X102455885Y-121053458D01*
X102379228Y-121168182D01*
X102379222Y-121168193D01*
X102326420Y-121295670D01*
X102326420Y-121295672D01*
X102299500Y-121431004D01*
X102299500Y-121568995D01*
X102326420Y-121704327D01*
X102326420Y-121704329D01*
X102379222Y-121831806D01*
X102379228Y-121831817D01*
X102455885Y-121946541D01*
X102553458Y-122044114D01*
X102668182Y-122120771D01*
X102668193Y-122120777D01*
X102715283Y-122140282D01*
X102795672Y-122173580D01*
X102931007Y-122200500D01*
X102931008Y-122200500D01*
X103068992Y-122200500D01*
X103068993Y-122200500D01*
X103204328Y-122173580D01*
X103331811Y-122120775D01*
X103345653Y-122111526D01*
X104565250Y-122111526D01*
X104644743Y-122164641D01*
X104781229Y-122221176D01*
X104781235Y-122221178D01*
X104926128Y-122249999D01*
X104926132Y-122250000D01*
X105073868Y-122250000D01*
X105073871Y-122249999D01*
X105218764Y-122221178D01*
X105218770Y-122221176D01*
X105355257Y-122164641D01*
X105434748Y-122111526D01*
X104999999Y-121676777D01*
X104565250Y-122111526D01*
X103345653Y-122111526D01*
X103446542Y-122044114D01*
X103544114Y-121946542D01*
X103620775Y-121831811D01*
X103673580Y-121704328D01*
X103700500Y-121568993D01*
X103700500Y-121431007D01*
X103678183Y-121318813D01*
X103685375Y-121258053D01*
X103726907Y-121213123D01*
X103775281Y-121200500D01*
X103939563Y-121200500D01*
X103939563Y-121200499D01*
X104015989Y-121180021D01*
X104084511Y-121140460D01*
X104140460Y-121084511D01*
X104163832Y-121061138D01*
X104218343Y-121033362D01*
X104278775Y-121042930D01*
X104322042Y-121086193D01*
X104331616Y-121146625D01*
X104325298Y-121169027D01*
X104278824Y-121281225D01*
X104278821Y-121281235D01*
X104250000Y-121426128D01*
X104250000Y-121573871D01*
X104278821Y-121718764D01*
X104278823Y-121718770D01*
X104335358Y-121855256D01*
X104335362Y-121855265D01*
X104388472Y-121934749D01*
X104823224Y-121499999D01*
X105176777Y-121499999D01*
X105611526Y-121934748D01*
X105664641Y-121855257D01*
X105721176Y-121718770D01*
X105721178Y-121718764D01*
X105749999Y-121573871D01*
X105750000Y-121573867D01*
X105750000Y-121426132D01*
X105749999Y-121426128D01*
X105721178Y-121281235D01*
X105721176Y-121281229D01*
X105664641Y-121144743D01*
X105611526Y-121065250D01*
X105176777Y-121499999D01*
X104823224Y-121499999D01*
X104911612Y-121411612D01*
X104934237Y-121388987D01*
X105434749Y-120888472D01*
X105355265Y-120835362D01*
X105355256Y-120835358D01*
X105218770Y-120778823D01*
X105218757Y-120778819D01*
X105173035Y-120769724D01*
X105119652Y-120739827D01*
X105094037Y-120684261D01*
X105105975Y-120624252D01*
X105122343Y-120602627D01*
X107090460Y-118634511D01*
X107098850Y-118619979D01*
X107103717Y-118611550D01*
X107106719Y-118606350D01*
X107130021Y-118565989D01*
X107150500Y-118489562D01*
X107150500Y-117315479D01*
X107169407Y-117257288D01*
X107179496Y-117245475D01*
X107445475Y-116979496D01*
X107499992Y-116951719D01*
X107515479Y-116950500D01*
X108589561Y-116950500D01*
X108589562Y-116950500D01*
X108625377Y-116940903D01*
X108686476Y-116944104D01*
X108734027Y-116982608D01*
X108750000Y-117036529D01*
X108750000Y-117344999D01*
X108750001Y-117345000D01*
X109201000Y-117345000D01*
X109259191Y-117363907D01*
X109295155Y-117413407D01*
X109300000Y-117444000D01*
X109300000Y-117496000D01*
X109281093Y-117554191D01*
X109231593Y-117590155D01*
X109201000Y-117595000D01*
X108750002Y-117595000D01*
X108750001Y-117595001D01*
X108750001Y-117926485D01*
X108764833Y-118020141D01*
X108764836Y-118020151D01*
X108822358Y-118133043D01*
X108911956Y-118222641D01*
X109024848Y-118280163D01*
X109024853Y-118280165D01*
X109043626Y-118283138D01*
X109098143Y-118310914D01*
X109125922Y-118365430D01*
X109123768Y-118406540D01*
X109104500Y-118478450D01*
X109104500Y-118611550D01*
X109132350Y-118715487D01*
X109138950Y-118740120D01*
X109202679Y-118850500D01*
X109205499Y-118855384D01*
X109299616Y-118949501D01*
X109301350Y-118950502D01*
X109414880Y-119016049D01*
X109414878Y-119016049D01*
X109414882Y-119016050D01*
X109414884Y-119016051D01*
X109543450Y-119050500D01*
X109543452Y-119050500D01*
X109676548Y-119050500D01*
X109676550Y-119050500D01*
X109805116Y-119016051D01*
X109805118Y-119016049D01*
X109805120Y-119016049D01*
X109866531Y-118980593D01*
X109920384Y-118949501D01*
X110014501Y-118855384D01*
X110081051Y-118740116D01*
X110081052Y-118740110D01*
X110083533Y-118734124D01*
X110086289Y-118735265D01*
X110112865Y-118694284D01*
X110169971Y-118672319D01*
X110229083Y-118688115D01*
X110267620Y-118735640D01*
X110270844Y-118745550D01*
X110283608Y-118793186D01*
X110283609Y-118793188D01*
X110283610Y-118793191D01*
X110349496Y-118907309D01*
X110349498Y-118907311D01*
X110349500Y-118907314D01*
X110442686Y-119000500D01*
X110442688Y-119000501D01*
X110442690Y-119000503D01*
X110556810Y-119066390D01*
X110556808Y-119066390D01*
X110556812Y-119066391D01*
X110556814Y-119066392D01*
X110684108Y-119100500D01*
X110684110Y-119100500D01*
X110815890Y-119100500D01*
X110815892Y-119100500D01*
X110943186Y-119066392D01*
X110943188Y-119066390D01*
X110943190Y-119066390D01*
X111057309Y-119000503D01*
X111057309Y-119000502D01*
X111057314Y-119000500D01*
X111150500Y-118907314D01*
X111180482Y-118855384D01*
X111216390Y-118793190D01*
X111216390Y-118793188D01*
X111216392Y-118793186D01*
X111250500Y-118665892D01*
X111250500Y-118534108D01*
X111216392Y-118406814D01*
X111216390Y-118406811D01*
X111216390Y-118406809D01*
X111208994Y-118393999D01*
X111196272Y-118334151D01*
X111221158Y-118278255D01*
X111274146Y-118247662D01*
X111294727Y-118245499D01*
X111350500Y-118245499D01*
X111408691Y-118264406D01*
X111444655Y-118313906D01*
X111449500Y-118344499D01*
X111449500Y-118589564D01*
X111469978Y-118665988D01*
X111469980Y-118665992D01*
X111509538Y-118734508D01*
X111509540Y-118734511D01*
X111565489Y-118790460D01*
X111565491Y-118790461D01*
X111634007Y-118830019D01*
X111634011Y-118830021D01*
X111710435Y-118850499D01*
X111710437Y-118850500D01*
X111710438Y-118850500D01*
X111789562Y-118850500D01*
X111801679Y-118850500D01*
X111859870Y-118869407D01*
X111871676Y-118879490D01*
X111942686Y-118950500D01*
X111942688Y-118950501D01*
X111942690Y-118950503D01*
X112056810Y-119016390D01*
X112056808Y-119016390D01*
X112056812Y-119016391D01*
X112056814Y-119016392D01*
X112184108Y-119050500D01*
X112184110Y-119050500D01*
X112315890Y-119050500D01*
X112315892Y-119050500D01*
X112443186Y-119016392D01*
X112443188Y-119016390D01*
X112443190Y-119016390D01*
X112557309Y-118950503D01*
X112557309Y-118950502D01*
X112557314Y-118950500D01*
X112628319Y-118879494D01*
X112682834Y-118851719D01*
X112698321Y-118850500D01*
X112789563Y-118850500D01*
X112789563Y-118850499D01*
X112865989Y-118830021D01*
X112934511Y-118790460D01*
X112990460Y-118734511D01*
X113030021Y-118665989D01*
X113050500Y-118589562D01*
X113050500Y-118344499D01*
X113069407Y-118286308D01*
X113118907Y-118250344D01*
X113149493Y-118245499D01*
X113350500Y-118245499D01*
X113408691Y-118264406D01*
X113444655Y-118313906D01*
X113449500Y-118344499D01*
X113449500Y-118439564D01*
X113469978Y-118515988D01*
X113469980Y-118515992D01*
X113498845Y-118565987D01*
X113509540Y-118584511D01*
X113905622Y-118980593D01*
X114293520Y-119368491D01*
X114317485Y-119409997D01*
X114317495Y-119409994D01*
X114317524Y-119410065D01*
X114319141Y-119412865D01*
X114319978Y-119415988D01*
X114319979Y-119415990D01*
X114359538Y-119484508D01*
X114359540Y-119484511D01*
X114415489Y-119540460D01*
X114415491Y-119540461D01*
X114484007Y-119580019D01*
X114484011Y-119580021D01*
X114560435Y-119600499D01*
X114560437Y-119600500D01*
X114560438Y-119600500D01*
X115434521Y-119600500D01*
X115492712Y-119619407D01*
X115504525Y-119629496D01*
X115509540Y-119634511D01*
X115509539Y-119634511D01*
X115565489Y-119690460D01*
X115634007Y-119730019D01*
X115634011Y-119730021D01*
X115710435Y-119750499D01*
X115710437Y-119750500D01*
X115710438Y-119750500D01*
X116234521Y-119750500D01*
X116292712Y-119769407D01*
X116304525Y-119779496D01*
X118759540Y-122234511D01*
X118759539Y-122234511D01*
X118815489Y-122290460D01*
X118884007Y-122330019D01*
X118884011Y-122330021D01*
X118960435Y-122350499D01*
X118960437Y-122350500D01*
X118960438Y-122350500D01*
X122839563Y-122350500D01*
X122839563Y-122350499D01*
X122915989Y-122330021D01*
X122984511Y-122290460D01*
X123040460Y-122234511D01*
X123080021Y-122165989D01*
X123100500Y-122089562D01*
X123100500Y-119910438D01*
X123080021Y-119834011D01*
X123040460Y-119765489D01*
X123025470Y-119750499D01*
X122984511Y-119709539D01*
X122984511Y-119709540D01*
X122074780Y-118799809D01*
X122049157Y-118755427D01*
X122045055Y-118740119D01*
X122038456Y-118715489D01*
X122038456Y-118715488D01*
X122038456Y-118715487D01*
X122030022Y-118684013D01*
X122030022Y-118684012D01*
X122019618Y-118665992D01*
X122013762Y-118655848D01*
X122000500Y-118606350D01*
X122000500Y-117960437D01*
X122000499Y-117960435D01*
X121980021Y-117884011D01*
X121980019Y-117884007D01*
X121940460Y-117815489D01*
X121884511Y-117759539D01*
X121884511Y-117759540D01*
X121854496Y-117729525D01*
X121826719Y-117675008D01*
X121825500Y-117659521D01*
X121825500Y-116895727D01*
X121825499Y-116895725D01*
X121822646Y-116865305D01*
X121822646Y-116865301D01*
X121777793Y-116737118D01*
X121777471Y-116736682D01*
X121697154Y-116627855D01*
X121697152Y-116627853D01*
X121697150Y-116627850D01*
X121697146Y-116627847D01*
X121697144Y-116627845D01*
X121587883Y-116547207D01*
X121459703Y-116502355D01*
X121459694Y-116502353D01*
X121429274Y-116499500D01*
X121429266Y-116499500D01*
X120795734Y-116499500D01*
X120795725Y-116499500D01*
X120765305Y-116502353D01*
X120765296Y-116502355D01*
X120637116Y-116547207D01*
X120527855Y-116627845D01*
X120527845Y-116627855D01*
X120447207Y-116737116D01*
X120402355Y-116865296D01*
X120402353Y-116865305D01*
X120399500Y-116895725D01*
X120399500Y-117904274D01*
X120402353Y-117934694D01*
X120402355Y-117934703D01*
X120447207Y-118062883D01*
X120527845Y-118172144D01*
X120527847Y-118172146D01*
X120527850Y-118172150D01*
X120527853Y-118172152D01*
X120527855Y-118172154D01*
X120637116Y-118252792D01*
X120637117Y-118252792D01*
X120637118Y-118252793D01*
X120765301Y-118297646D01*
X120795725Y-118300499D01*
X120795727Y-118300500D01*
X120795734Y-118300500D01*
X121300500Y-118300500D01*
X121358691Y-118319407D01*
X121394655Y-118368907D01*
X121399500Y-118399500D01*
X121399500Y-118789564D01*
X121417137Y-118855383D01*
X121419979Y-118865989D01*
X121428339Y-118880469D01*
X121436237Y-118894149D01*
X121446748Y-118933379D01*
X121448653Y-118933129D01*
X121449500Y-118939564D01*
X121469978Y-119015988D01*
X121478080Y-119030021D01*
X121489904Y-119050500D01*
X121509540Y-119084511D01*
X121965489Y-119540460D01*
X122330718Y-119905689D01*
X122358495Y-119960206D01*
X122348924Y-120020638D01*
X122305659Y-120063903D01*
X122256581Y-120074480D01*
X122256581Y-120074500D01*
X122256490Y-120074500D01*
X122256096Y-120074585D01*
X122254276Y-120074500D01*
X122254266Y-120074500D01*
X121645734Y-120074500D01*
X121645725Y-120074500D01*
X121615303Y-120077353D01*
X121553284Y-120099054D01*
X121492114Y-120100426D01*
X121450585Y-120075613D01*
X121084510Y-119709539D01*
X121051464Y-119690460D01*
X121051462Y-119690459D01*
X121015989Y-119669979D01*
X121015986Y-119669978D01*
X120939564Y-119649500D01*
X120933129Y-119648653D01*
X120933379Y-119646748D01*
X120894155Y-119636240D01*
X120891165Y-119634514D01*
X120891165Y-119634512D01*
X120891157Y-119634510D01*
X120865988Y-119619978D01*
X120789564Y-119599500D01*
X120789562Y-119599500D01*
X120065479Y-119599500D01*
X120007288Y-119580593D01*
X119995475Y-119570504D01*
X118943975Y-118519004D01*
X118916198Y-118464487D01*
X118925769Y-118404055D01*
X118969034Y-118360790D01*
X119013979Y-118350000D01*
X119162499Y-118350000D01*
X119162500Y-118349999D01*
X119162500Y-117525001D01*
X119412500Y-117525001D01*
X119412500Y-118349999D01*
X119412501Y-118350000D01*
X119597824Y-118350000D01*
X119657370Y-118343598D01*
X119657381Y-118343596D01*
X119792088Y-118293353D01*
X119792090Y-118293352D01*
X119907184Y-118207192D01*
X119907192Y-118207184D01*
X119993352Y-118092090D01*
X119993353Y-118092088D01*
X120043596Y-117957381D01*
X120043598Y-117957370D01*
X120050000Y-117897824D01*
X120050000Y-117525001D01*
X120049999Y-117525000D01*
X119412501Y-117525000D01*
X119412500Y-117525001D01*
X119162500Y-117525001D01*
X119162499Y-117525000D01*
X118525001Y-117525000D01*
X118525000Y-117525001D01*
X118525000Y-117861021D01*
X118506093Y-117919212D01*
X118456593Y-117955176D01*
X118395407Y-117955176D01*
X118355996Y-117931025D01*
X118229496Y-117804525D01*
X118201719Y-117750008D01*
X118200500Y-117734521D01*
X118200500Y-116902175D01*
X118525000Y-116902175D01*
X118525000Y-117274999D01*
X118525001Y-117275000D01*
X119162499Y-117275000D01*
X119162500Y-117274999D01*
X119162500Y-116450001D01*
X119412500Y-116450001D01*
X119412500Y-117274999D01*
X119412501Y-117275000D01*
X120049999Y-117275000D01*
X120050000Y-117274999D01*
X120050000Y-116902175D01*
X120043598Y-116842629D01*
X120043596Y-116842618D01*
X119993353Y-116707911D01*
X119993352Y-116707909D01*
X119907192Y-116592815D01*
X119907184Y-116592807D01*
X119792090Y-116506647D01*
X119792088Y-116506646D01*
X119657381Y-116456403D01*
X119657370Y-116456401D01*
X119597824Y-116450000D01*
X119412501Y-116450000D01*
X119412500Y-116450001D01*
X119162500Y-116450001D01*
X119162499Y-116450000D01*
X118977176Y-116450000D01*
X118917629Y-116456401D01*
X118917618Y-116456403D01*
X118782911Y-116506646D01*
X118782909Y-116506647D01*
X118667815Y-116592807D01*
X118667807Y-116592815D01*
X118581647Y-116707909D01*
X118581646Y-116707911D01*
X118531403Y-116842618D01*
X118531401Y-116842629D01*
X118525000Y-116902175D01*
X118200500Y-116902175D01*
X118200500Y-116860437D01*
X118200499Y-116860435D01*
X118180021Y-116784011D01*
X118180019Y-116784007D01*
X118140460Y-116715489D01*
X118084512Y-116659540D01*
X117834510Y-116409539D01*
X117811308Y-116396144D01*
X117782575Y-116379555D01*
X117765988Y-116369978D01*
X117689564Y-116349500D01*
X117689562Y-116349500D01*
X116615478Y-116349500D01*
X116557287Y-116330593D01*
X116545480Y-116320509D01*
X116534511Y-116309540D01*
X116500000Y-116289615D01*
X116490460Y-116284107D01*
X116490459Y-116284107D01*
X116465988Y-116269978D01*
X116389564Y-116249500D01*
X116389562Y-116249500D01*
X115089562Y-116249500D01*
X115010438Y-116249500D01*
X115010435Y-116249500D01*
X114927744Y-116271658D01*
X114927091Y-116269224D01*
X114876884Y-116273173D01*
X114872064Y-116271607D01*
X114846562Y-116264773D01*
X114795249Y-116231447D01*
X114776562Y-116194771D01*
X114766392Y-116156814D01*
X114700500Y-116042686D01*
X114607314Y-115949500D01*
X114607311Y-115949498D01*
X114607309Y-115949496D01*
X114493189Y-115883609D01*
X114493191Y-115883609D01*
X114443799Y-115870375D01*
X114365892Y-115849500D01*
X114234108Y-115849500D01*
X114170461Y-115866554D01*
X114106812Y-115883608D01*
X114097099Y-115889217D01*
X114037250Y-115901938D01*
X113981355Y-115877051D01*
X113950762Y-115824063D01*
X113949634Y-115789205D01*
X113950499Y-115783265D01*
X113950500Y-115783258D01*
X113950500Y-114764478D01*
X113969407Y-114706287D01*
X114018907Y-114670323D01*
X114080093Y-114670323D01*
X114119501Y-114694472D01*
X114765489Y-115340460D01*
X114765491Y-115340461D01*
X114765493Y-115340463D01*
X114834008Y-115380020D01*
X114834006Y-115380020D01*
X114834010Y-115380021D01*
X114834012Y-115380022D01*
X114910438Y-115400500D01*
X114910440Y-115400500D01*
X118289563Y-115400500D01*
X118289563Y-115400499D01*
X118365989Y-115380021D01*
X118376404Y-115374007D01*
X118394150Y-115363763D01*
X118443649Y-115350500D01*
X118689563Y-115350500D01*
X118689563Y-115350499D01*
X118765989Y-115330021D01*
X118779813Y-115322040D01*
X118794150Y-115313763D01*
X118843649Y-115300500D01*
X119489563Y-115300500D01*
X119489563Y-115300499D01*
X119565989Y-115280021D01*
X119598609Y-115261187D01*
X119658456Y-115248466D01*
X119697607Y-115261186D01*
X119754257Y-115293893D01*
X119803819Y-115314422D01*
X119930986Y-115348497D01*
X119984174Y-115355500D01*
X119984175Y-115355500D01*
X120549999Y-115355500D01*
X120550000Y-115355500D01*
X120595728Y-115350348D01*
X120654509Y-115322039D01*
X120715139Y-115313827D01*
X120759188Y-115333835D01*
X120760835Y-115335148D01*
X120760836Y-115335149D01*
X120850000Y-115355500D01*
X121415824Y-115355500D01*
X121415826Y-115355500D01*
X121469014Y-115348497D01*
X121596181Y-115314422D01*
X121645743Y-115293893D01*
X121759757Y-115228067D01*
X121802317Y-115195409D01*
X121895409Y-115102317D01*
X121928067Y-115059757D01*
X121993893Y-114945743D01*
X122014422Y-114896181D01*
X122048497Y-114769014D01*
X122055500Y-114715826D01*
X122055500Y-114160479D01*
X122074407Y-114102288D01*
X122084496Y-114090475D01*
X122118161Y-114056810D01*
X122190460Y-113984511D01*
X122199109Y-113969531D01*
X122230021Y-113915989D01*
X122250500Y-113839562D01*
X122250500Y-113215478D01*
X122269407Y-113157287D01*
X122279490Y-113145480D01*
X122690460Y-112734511D01*
X122697310Y-112722646D01*
X122730020Y-112665992D01*
X122730021Y-112665989D01*
X122730022Y-112665988D01*
X122750500Y-112589562D01*
X122750500Y-112510438D01*
X122750500Y-110410438D01*
X122730021Y-110334011D01*
X122690460Y-110265489D01*
X122634511Y-110209540D01*
X122634508Y-110209538D01*
X122565992Y-110169980D01*
X122565988Y-110169978D01*
X122489564Y-110149500D01*
X122489562Y-110149500D01*
X120789562Y-110149500D01*
X120710438Y-110149500D01*
X120710435Y-110149500D01*
X120634011Y-110169978D01*
X120634007Y-110169980D01*
X120565491Y-110209538D01*
X120509538Y-110265491D01*
X120469980Y-110334007D01*
X120469978Y-110334011D01*
X120450841Y-110405430D01*
X120425218Y-110449810D01*
X120280894Y-110594133D01*
X120226378Y-110621910D01*
X120178193Y-110617573D01*
X120134703Y-110602355D01*
X120134694Y-110602353D01*
X120104274Y-110599500D01*
X120104266Y-110599500D01*
X119470734Y-110599500D01*
X119470725Y-110599500D01*
X119440305Y-110602353D01*
X119440296Y-110602355D01*
X119312116Y-110647207D01*
X119202855Y-110727845D01*
X119202845Y-110727855D01*
X119122207Y-110837116D01*
X119077355Y-110965296D01*
X119077353Y-110965305D01*
X119074500Y-110995725D01*
X119074500Y-112004274D01*
X119077353Y-112034694D01*
X119077353Y-112034697D01*
X119077354Y-112034699D01*
X119104880Y-112113363D01*
X119123929Y-112167803D01*
X119125301Y-112228973D01*
X119090457Y-112279267D01*
X119032705Y-112299475D01*
X119030484Y-112299500D01*
X118810435Y-112299500D01*
X118734011Y-112319978D01*
X118684428Y-112348606D01*
X118684424Y-112348608D01*
X118665491Y-112359538D01*
X118665489Y-112359539D01*
X118344003Y-112681025D01*
X118289487Y-112708802D01*
X118229055Y-112699231D01*
X118185790Y-112655966D01*
X118175000Y-112611021D01*
X118175000Y-112475001D01*
X118174999Y-112475000D01*
X117325001Y-112475000D01*
X117325000Y-112475001D01*
X117325000Y-113099999D01*
X117325001Y-113100000D01*
X117686021Y-113100000D01*
X117744212Y-113118907D01*
X117780176Y-113168407D01*
X117780176Y-113229593D01*
X117756025Y-113269004D01*
X117504525Y-113520504D01*
X117450008Y-113548281D01*
X117434521Y-113549500D01*
X116670725Y-113549500D01*
X116640305Y-113552353D01*
X116640296Y-113552355D01*
X116512116Y-113597207D01*
X116402855Y-113677845D01*
X116402845Y-113677855D01*
X116322207Y-113787116D01*
X116288587Y-113883198D01*
X116251522Y-113931878D01*
X116195143Y-113949500D01*
X115498321Y-113949500D01*
X115440130Y-113930593D01*
X115428323Y-113920509D01*
X115357314Y-113849500D01*
X115357311Y-113849498D01*
X115357309Y-113849496D01*
X115243189Y-113783609D01*
X115243191Y-113783609D01*
X115185137Y-113768054D01*
X115115892Y-113749500D01*
X114984108Y-113749500D01*
X114914863Y-113768054D01*
X114856809Y-113783609D01*
X114742690Y-113849496D01*
X114649496Y-113942690D01*
X114583609Y-114056810D01*
X114583607Y-114056814D01*
X114574771Y-114089791D01*
X114541447Y-114141105D01*
X114484325Y-114163031D01*
X114425225Y-114147195D01*
X114409146Y-114134175D01*
X114284511Y-114009540D01*
X114272894Y-114002833D01*
X114241158Y-113984510D01*
X114241157Y-113984510D01*
X114215988Y-113969978D01*
X114139564Y-113949500D01*
X114139562Y-113949500D01*
X113855361Y-113949500D01*
X113797170Y-113930593D01*
X113761206Y-113881093D01*
X113761206Y-113819907D01*
X113797170Y-113770407D01*
X113801081Y-113768054D01*
X113806477Y-113764200D01*
X113806483Y-113764198D01*
X113889198Y-113681483D01*
X113940573Y-113576393D01*
X113950500Y-113508260D01*
X113950500Y-112915478D01*
X113969407Y-112857287D01*
X113979490Y-112845480D01*
X114177146Y-112647824D01*
X116224999Y-112647824D01*
X116231401Y-112707370D01*
X116231403Y-112707381D01*
X116281646Y-112842088D01*
X116281647Y-112842090D01*
X116367807Y-112957184D01*
X116367815Y-112957192D01*
X116482909Y-113043352D01*
X116482911Y-113043353D01*
X116617618Y-113093596D01*
X116617629Y-113093598D01*
X116677176Y-113100000D01*
X117074999Y-113100000D01*
X117075000Y-113099999D01*
X117075000Y-112475001D01*
X117074999Y-112475000D01*
X116225001Y-112475000D01*
X116225000Y-112475001D01*
X116225000Y-112647824D01*
X116224999Y-112647824D01*
X114177146Y-112647824D01*
X114772796Y-112052175D01*
X116225000Y-112052175D01*
X116225000Y-112224999D01*
X116225001Y-112225000D01*
X117074999Y-112225000D01*
X117075000Y-112224999D01*
X117075000Y-111600001D01*
X117325000Y-111600001D01*
X117325000Y-112224999D01*
X117325001Y-112225000D01*
X118174999Y-112225000D01*
X118175000Y-112224999D01*
X118175000Y-112052175D01*
X118168598Y-111992629D01*
X118168596Y-111992618D01*
X118118353Y-111857911D01*
X118118352Y-111857909D01*
X118032192Y-111742815D01*
X118032184Y-111742807D01*
X117917090Y-111656647D01*
X117917088Y-111656646D01*
X117782381Y-111606403D01*
X117782370Y-111606401D01*
X117722824Y-111600000D01*
X117325001Y-111600000D01*
X117325000Y-111600001D01*
X117075000Y-111600001D01*
X117074999Y-111600000D01*
X116677176Y-111600000D01*
X116617629Y-111606401D01*
X116617618Y-111606403D01*
X116482911Y-111656646D01*
X116482909Y-111656647D01*
X116367815Y-111742807D01*
X116367807Y-111742815D01*
X116281647Y-111857909D01*
X116281646Y-111857911D01*
X116231403Y-111992618D01*
X116231401Y-111992629D01*
X116225000Y-112052175D01*
X114772796Y-112052175D01*
X115290460Y-111534511D01*
X115313520Y-111494570D01*
X115330020Y-111465992D01*
X115330020Y-111465990D01*
X115330022Y-111465988D01*
X115350500Y-111389562D01*
X115350500Y-111310438D01*
X115350500Y-110544390D01*
X115369407Y-110486199D01*
X115418907Y-110450235D01*
X115463773Y-110446425D01*
X115491740Y-110450500D01*
X115491741Y-110450500D01*
X115858257Y-110450500D01*
X115858260Y-110450500D01*
X115926393Y-110440573D01*
X116031483Y-110389198D01*
X116114198Y-110306483D01*
X116165573Y-110201393D01*
X116175500Y-110133260D01*
X116175500Y-108416740D01*
X116444500Y-108416740D01*
X116444500Y-110133260D01*
X116449850Y-110169978D01*
X116454427Y-110201395D01*
X116485495Y-110264944D01*
X116505802Y-110306483D01*
X116588517Y-110389198D01*
X116642285Y-110415483D01*
X116693604Y-110440572D01*
X116693605Y-110440572D01*
X116693607Y-110440573D01*
X116761740Y-110450500D01*
X116761743Y-110450500D01*
X117128257Y-110450500D01*
X117128260Y-110450500D01*
X117196393Y-110440573D01*
X117301483Y-110389198D01*
X117384198Y-110306483D01*
X117435573Y-110201393D01*
X117445500Y-110133260D01*
X117445500Y-108997824D01*
X119024999Y-108997824D01*
X119031401Y-109057370D01*
X119031403Y-109057381D01*
X119081646Y-109192088D01*
X119081647Y-109192090D01*
X119167807Y-109307184D01*
X119167815Y-109307192D01*
X119282909Y-109393352D01*
X119282911Y-109393353D01*
X119417618Y-109443596D01*
X119417629Y-109443598D01*
X119477176Y-109450000D01*
X119662499Y-109450000D01*
X119662500Y-109449999D01*
X119662500Y-108625001D01*
X119662499Y-108625000D01*
X119025001Y-108625000D01*
X119025000Y-108625001D01*
X119025000Y-108997824D01*
X119024999Y-108997824D01*
X117445500Y-108997824D01*
X117445500Y-108416740D01*
X117435573Y-108348607D01*
X117428771Y-108334694D01*
X117396855Y-108269407D01*
X117384198Y-108243517D01*
X117301483Y-108160802D01*
X117269499Y-108145166D01*
X117196395Y-108109427D01*
X117168377Y-108105345D01*
X117128260Y-108099500D01*
X116761740Y-108099500D01*
X116733772Y-108103575D01*
X116693604Y-108109427D01*
X116588518Y-108160801D01*
X116505801Y-108243518D01*
X116454427Y-108348604D01*
X116449463Y-108382673D01*
X116444500Y-108416740D01*
X116175500Y-108416740D01*
X116165573Y-108348607D01*
X116158771Y-108334694D01*
X116126855Y-108269407D01*
X116114198Y-108243517D01*
X116031483Y-108160802D01*
X115999499Y-108145166D01*
X115926395Y-108109427D01*
X115898377Y-108105345D01*
X115858260Y-108099500D01*
X115491740Y-108099500D01*
X115463772Y-108103574D01*
X115441504Y-108099764D01*
X115418907Y-108099764D01*
X115411944Y-108094705D01*
X115403464Y-108093254D01*
X115387688Y-108077082D01*
X115369407Y-108063800D01*
X115366747Y-108055615D01*
X115360740Y-108049457D01*
X115356638Y-108031894D01*
X115355345Y-108030114D01*
X115353495Y-108018436D01*
X115350500Y-108005609D01*
X115350500Y-108002175D01*
X119025000Y-108002175D01*
X119025000Y-108374999D01*
X119025001Y-108375000D01*
X119662499Y-108375000D01*
X119662500Y-108374999D01*
X119662500Y-107550001D01*
X119662499Y-107550000D01*
X119477176Y-107550000D01*
X119417629Y-107556401D01*
X119417618Y-107556403D01*
X119282911Y-107606646D01*
X119282909Y-107606647D01*
X119167815Y-107692807D01*
X119167807Y-107692815D01*
X119081647Y-107807909D01*
X119081646Y-107807911D01*
X119031403Y-107942618D01*
X119031401Y-107942629D01*
X119025000Y-108002175D01*
X115350500Y-108002175D01*
X115350500Y-107910437D01*
X115350499Y-107910435D01*
X115330021Y-107834011D01*
X115330019Y-107834007D01*
X115290461Y-107765491D01*
X115290460Y-107765489D01*
X115234511Y-107709540D01*
X115234508Y-107709538D01*
X115165992Y-107669980D01*
X115165988Y-107669978D01*
X115089564Y-107649500D01*
X115089562Y-107649500D01*
X112539562Y-107649500D01*
X112460438Y-107649500D01*
X112413661Y-107662033D01*
X112384007Y-107669979D01*
X112315493Y-107709536D01*
X112315487Y-107709540D01*
X112265488Y-107759540D01*
X112209539Y-107815489D01*
X112169980Y-107884007D01*
X112169978Y-107884011D01*
X112149500Y-107960435D01*
X112149500Y-108000500D01*
X112130593Y-108058691D01*
X112081093Y-108094655D01*
X112050500Y-108099500D01*
X112048260Y-108099500D01*
X111681740Y-108099500D01*
X111653772Y-108103575D01*
X111613604Y-108109427D01*
X111508518Y-108160801D01*
X111425801Y-108243518D01*
X111374427Y-108348604D01*
X111369463Y-108382673D01*
X111364500Y-108416740D01*
X111364500Y-110133260D01*
X111369850Y-110169978D01*
X111374427Y-110201395D01*
X111405495Y-110264944D01*
X111425802Y-110306483D01*
X111508517Y-110389198D01*
X111562285Y-110415483D01*
X111613604Y-110440572D01*
X111613605Y-110440572D01*
X111613607Y-110440573D01*
X111681740Y-110450500D01*
X111681743Y-110450500D01*
X112048256Y-110450500D01*
X112048260Y-110450500D01*
X112116393Y-110440573D01*
X112116396Y-110440571D01*
X112117758Y-110440373D01*
X112178066Y-110450693D01*
X112220792Y-110494490D01*
X112229614Y-110555036D01*
X112221467Y-110577604D01*
X112222462Y-110578017D01*
X112219977Y-110584014D01*
X112199500Y-110660435D01*
X112199500Y-111134521D01*
X112180593Y-111192712D01*
X112170504Y-111204525D01*
X111665489Y-111709540D01*
X111665488Y-111709539D01*
X111609539Y-111765489D01*
X111569980Y-111834007D01*
X111569978Y-111834011D01*
X111549500Y-111910435D01*
X111549500Y-112000500D01*
X111530593Y-112058691D01*
X111481093Y-112094655D01*
X111450500Y-112099500D01*
X111366740Y-112099500D01*
X111332673Y-112104463D01*
X111298604Y-112109427D01*
X111193518Y-112160801D01*
X111110801Y-112243518D01*
X111059427Y-112348604D01*
X111057811Y-112359699D01*
X111049500Y-112416740D01*
X111049500Y-113508260D01*
X111051284Y-113520504D01*
X111059427Y-113576395D01*
X111109026Y-113677850D01*
X111110802Y-113681483D01*
X111193517Y-113764198D01*
X111193978Y-113764423D01*
X111194387Y-113764819D01*
X111200194Y-113768965D01*
X111199572Y-113769835D01*
X111237953Y-113806965D01*
X111249500Y-113853365D01*
X111249500Y-114346635D01*
X111230593Y-114404826D01*
X111199889Y-114430612D01*
X111200192Y-114431036D01*
X111194817Y-114434873D01*
X111193982Y-114435574D01*
X111193800Y-114435663D01*
X111193518Y-114435801D01*
X111110801Y-114518518D01*
X111059427Y-114623604D01*
X111059427Y-114623607D01*
X111049500Y-114691740D01*
X111049500Y-115783260D01*
X111049931Y-115786222D01*
X111039615Y-115846531D01*
X110995820Y-115889258D01*
X110951967Y-115899500D01*
X110934108Y-115899500D01*
X110856200Y-115920375D01*
X110806809Y-115933609D01*
X110692684Y-115999500D01*
X110687536Y-116003451D01*
X110686181Y-116001686D01*
X110640443Y-116024966D01*
X110580015Y-116015368D01*
X110554998Y-115997184D01*
X110507314Y-115949500D01*
X110507311Y-115949498D01*
X110507309Y-115949496D01*
X110393189Y-115883609D01*
X110393191Y-115883609D01*
X110343799Y-115870375D01*
X110265892Y-115849500D01*
X110265890Y-115849500D01*
X110249500Y-115849500D01*
X110191309Y-115830593D01*
X110155345Y-115781093D01*
X110150500Y-115750500D01*
X110150500Y-115260437D01*
X110150499Y-115260435D01*
X110150300Y-115259694D01*
X110130021Y-115184011D01*
X110090460Y-115115489D01*
X110077280Y-115102309D01*
X110034511Y-115059539D01*
X110034511Y-115059540D01*
X109979496Y-115004525D01*
X109951719Y-114950008D01*
X109950500Y-114934521D01*
X109950500Y-114170727D01*
X109950499Y-114170725D01*
X109947646Y-114140301D01*
X109902793Y-114012118D01*
X109900890Y-114009540D01*
X109822154Y-113902855D01*
X109822152Y-113902853D01*
X109822150Y-113902850D01*
X109822146Y-113902847D01*
X109822144Y-113902845D01*
X109712885Y-113822208D01*
X109712879Y-113822205D01*
X109666802Y-113806082D01*
X109618121Y-113769016D01*
X109600500Y-113712638D01*
X109600500Y-113543647D01*
X109613765Y-113494145D01*
X109618712Y-113485578D01*
X109630022Y-113465988D01*
X109650500Y-113389562D01*
X109650500Y-113310438D01*
X109650500Y-112824500D01*
X109669407Y-112766309D01*
X109718907Y-112730345D01*
X109749500Y-112725500D01*
X109754273Y-112725500D01*
X109754273Y-112725499D01*
X109784699Y-112722646D01*
X109912882Y-112677793D01*
X110022150Y-112597150D01*
X110102793Y-112487882D01*
X110147646Y-112359699D01*
X110150499Y-112329273D01*
X110150500Y-112329273D01*
X110150500Y-111270727D01*
X110150499Y-111270725D01*
X110148776Y-111252353D01*
X110147646Y-111240301D01*
X110102793Y-111112118D01*
X110084503Y-111087336D01*
X110022154Y-111002855D01*
X110022152Y-111002853D01*
X110022150Y-111002850D01*
X110022146Y-111002847D01*
X110022144Y-111002845D01*
X109912883Y-110922207D01*
X109784703Y-110877355D01*
X109784694Y-110877353D01*
X109754274Y-110874500D01*
X109754266Y-110874500D01*
X109749500Y-110874500D01*
X109691309Y-110855593D01*
X109655345Y-110806093D01*
X109650500Y-110775500D01*
X109650500Y-110461188D01*
X109669407Y-110402997D01*
X109679496Y-110391184D01*
X109681480Y-110389198D01*
X109681483Y-110389198D01*
X109764198Y-110306483D01*
X109815573Y-110201393D01*
X109825500Y-110133260D01*
X109825500Y-109400001D01*
X110045001Y-109400001D01*
X110045001Y-110131485D01*
X110059833Y-110225141D01*
X110059836Y-110225151D01*
X110117358Y-110338043D01*
X110206956Y-110427641D01*
X110319848Y-110485163D01*
X110319852Y-110485164D01*
X110413516Y-110499999D01*
X110469999Y-110499998D01*
X110470000Y-110499998D01*
X110470000Y-109400001D01*
X110720000Y-109400001D01*
X110720000Y-110499998D01*
X110720001Y-110499999D01*
X110776483Y-110499999D01*
X110776485Y-110499998D01*
X110870141Y-110485166D01*
X110870151Y-110485163D01*
X110983043Y-110427641D01*
X111072641Y-110338043D01*
X111130163Y-110225151D01*
X111130164Y-110225147D01*
X111145000Y-110131484D01*
X111145000Y-109400001D01*
X111144999Y-109400000D01*
X110720001Y-109400000D01*
X110720000Y-109400001D01*
X110470000Y-109400001D01*
X110469999Y-109400000D01*
X110045002Y-109400000D01*
X110045001Y-109400001D01*
X109825500Y-109400001D01*
X109825500Y-108416740D01*
X109815573Y-108348607D01*
X109764198Y-108243517D01*
X109764196Y-108243515D01*
X109763935Y-108242981D01*
X109755364Y-108182399D01*
X109784039Y-108128349D01*
X109839007Y-108101476D01*
X109852876Y-108100500D01*
X110012595Y-108100500D01*
X110070786Y-108119407D01*
X110106750Y-108168907D01*
X110106750Y-108230093D01*
X110100804Y-108244445D01*
X110059837Y-108324845D01*
X110059835Y-108324852D01*
X110045000Y-108418515D01*
X110045000Y-109149999D01*
X110045001Y-109150000D01*
X111144998Y-109150000D01*
X111144999Y-109149999D01*
X111144999Y-108418516D01*
X111144998Y-108418514D01*
X111130166Y-108324858D01*
X111130163Y-108324848D01*
X111072640Y-108211955D01*
X111068060Y-108205650D01*
X111070902Y-108203584D01*
X111050016Y-108162591D01*
X111059587Y-108102159D01*
X111098294Y-108061369D01*
X111134511Y-108040460D01*
X111190460Y-107984511D01*
X113195475Y-105979496D01*
X113249992Y-105951719D01*
X113265479Y-105950500D01*
X113839563Y-105950500D01*
X113839563Y-105950499D01*
X113915989Y-105930021D01*
X113984511Y-105890460D01*
X114040460Y-105834511D01*
X114080021Y-105765989D01*
X114100500Y-105689562D01*
X114100500Y-105597304D01*
X114119407Y-105539113D01*
X114168907Y-105503149D01*
X114213775Y-105499339D01*
X114221740Y-105500500D01*
X114221745Y-105500500D01*
X114588257Y-105500500D01*
X114588260Y-105500500D01*
X114656393Y-105490573D01*
X114761483Y-105439198D01*
X114844198Y-105356483D01*
X114895573Y-105251393D01*
X114905500Y-105183260D01*
X114905500Y-104310479D01*
X114924407Y-104252288D01*
X114934496Y-104240475D01*
X115005496Y-104169475D01*
X115060013Y-104141698D01*
X115120445Y-104151269D01*
X115163710Y-104194534D01*
X115174500Y-104239479D01*
X115174500Y-105183260D01*
X115181118Y-105228682D01*
X115184427Y-105251395D01*
X115235801Y-105356481D01*
X115235802Y-105356483D01*
X115318517Y-105439198D01*
X115360500Y-105459722D01*
X115423604Y-105490572D01*
X115423605Y-105490572D01*
X115423607Y-105490573D01*
X115491740Y-105500500D01*
X115491743Y-105500500D01*
X115858257Y-105500500D01*
X115858260Y-105500500D01*
X115926393Y-105490573D01*
X116031483Y-105439198D01*
X116114198Y-105356483D01*
X116165573Y-105251393D01*
X116175500Y-105183260D01*
X116175500Y-103466740D01*
X116167782Y-103413771D01*
X116178102Y-103353465D01*
X116221899Y-103310740D01*
X116265748Y-103300500D01*
X116354252Y-103300500D01*
X116412443Y-103319407D01*
X116448407Y-103368907D01*
X116452217Y-103413770D01*
X116444500Y-103466740D01*
X116444500Y-105183260D01*
X116451118Y-105228682D01*
X116454427Y-105251395D01*
X116505801Y-105356481D01*
X116505802Y-105356483D01*
X116588517Y-105439198D01*
X116630500Y-105459722D01*
X116693604Y-105490572D01*
X116693605Y-105490572D01*
X116693607Y-105490573D01*
X116761740Y-105500500D01*
X116761743Y-105500500D01*
X117128257Y-105500500D01*
X117128260Y-105500500D01*
X117196393Y-105490573D01*
X117301483Y-105439198D01*
X117384198Y-105356483D01*
X117435573Y-105251393D01*
X117445500Y-105183260D01*
X117445500Y-103466740D01*
X117435573Y-103398607D01*
X117435572Y-103398604D01*
X117435572Y-103398603D01*
X117432824Y-103392983D01*
X117424251Y-103332402D01*
X117452924Y-103278351D01*
X117507892Y-103251477D01*
X117521763Y-103250500D01*
X117589563Y-103250500D01*
X117589563Y-103250499D01*
X117665989Y-103230021D01*
X117734511Y-103190460D01*
X117775471Y-103149500D01*
X117790461Y-103134511D01*
X117996531Y-102928439D01*
X118221320Y-102703649D01*
X118275835Y-102675873D01*
X118310632Y-102676555D01*
X118431007Y-102700500D01*
X118431008Y-102700500D01*
X118568992Y-102700500D01*
X118568993Y-102700500D01*
X118704328Y-102673580D01*
X118831811Y-102620775D01*
X118895500Y-102578219D01*
X118954385Y-102561611D01*
X119011789Y-102582788D01*
X119045783Y-102633661D01*
X119049500Y-102660535D01*
X119049500Y-103189564D01*
X119069978Y-103265988D01*
X119077116Y-103278351D01*
X119089904Y-103300500D01*
X119109540Y-103334511D01*
X119661714Y-103886685D01*
X120208280Y-104433251D01*
X120236057Y-104487768D01*
X120226486Y-104548200D01*
X120183221Y-104591465D01*
X120129031Y-104601822D01*
X120104274Y-104599500D01*
X120104266Y-104599500D01*
X119470734Y-104599500D01*
X119470725Y-104599500D01*
X119440305Y-104602353D01*
X119440296Y-104602355D01*
X119312116Y-104647207D01*
X119202855Y-104727845D01*
X119202845Y-104727855D01*
X119122207Y-104837116D01*
X119077355Y-104965296D01*
X119077353Y-104965305D01*
X119074500Y-104995725D01*
X119074500Y-106004274D01*
X119077353Y-106034694D01*
X119077355Y-106034703D01*
X119122207Y-106162883D01*
X119202845Y-106272144D01*
X119202847Y-106272146D01*
X119202850Y-106272150D01*
X119202853Y-106272152D01*
X119202855Y-106272154D01*
X119312116Y-106352792D01*
X119312117Y-106352792D01*
X119312118Y-106352793D01*
X119440301Y-106397646D01*
X119470725Y-106400499D01*
X119470727Y-106400500D01*
X119470734Y-106400500D01*
X120000500Y-106400500D01*
X120058691Y-106419407D01*
X120094655Y-106468907D01*
X120099500Y-106499500D01*
X120099500Y-106889562D01*
X120102928Y-106902354D01*
X120119979Y-106965989D01*
X120119979Y-106965991D01*
X120122282Y-106969978D01*
X120122283Y-106969979D01*
X120136237Y-106994148D01*
X120149500Y-107043646D01*
X120149500Y-107289564D01*
X120169978Y-107365988D01*
X120190617Y-107401735D01*
X120203339Y-107461584D01*
X120178453Y-107517479D01*
X120125465Y-107548072D01*
X120099581Y-107550094D01*
X120097828Y-107550000D01*
X119912501Y-107550000D01*
X119912500Y-107550001D01*
X119912500Y-109449999D01*
X119912501Y-109450000D01*
X120097824Y-109450000D01*
X120157370Y-109443598D01*
X120157381Y-109443596D01*
X120292088Y-109393353D01*
X120292090Y-109393352D01*
X120407184Y-109307192D01*
X120407192Y-109307184D01*
X120493352Y-109192090D01*
X120493353Y-109192088D01*
X120543596Y-109057381D01*
X120543598Y-109057369D01*
X120543915Y-109054428D01*
X120544717Y-109052637D01*
X120545023Y-109051344D01*
X120545270Y-109051402D01*
X120568933Y-108998591D01*
X120621993Y-108968123D01*
X120667969Y-108969380D01*
X120784108Y-109000500D01*
X120820143Y-109000500D01*
X120878334Y-109019407D01*
X120913587Y-109066802D01*
X120947207Y-109162883D01*
X121027845Y-109272144D01*
X121027847Y-109272146D01*
X121027850Y-109272150D01*
X121027853Y-109272152D01*
X121027855Y-109272154D01*
X121137116Y-109352792D01*
X121137117Y-109352792D01*
X121137118Y-109352793D01*
X121265301Y-109397646D01*
X121295725Y-109400499D01*
X121295727Y-109400500D01*
X121295734Y-109400500D01*
X121929273Y-109400500D01*
X121929273Y-109400499D01*
X121959699Y-109397646D01*
X122087882Y-109352793D01*
X122197150Y-109272150D01*
X122277793Y-109162882D01*
X122322646Y-109034699D01*
X122325499Y-109004273D01*
X122325500Y-109004273D01*
X122325500Y-107995727D01*
X122325499Y-107995725D01*
X122322646Y-107965301D01*
X122277793Y-107837118D01*
X122261830Y-107815489D01*
X122197154Y-107727855D01*
X122197152Y-107727853D01*
X122197150Y-107727850D01*
X122197146Y-107727847D01*
X122197144Y-107727845D01*
X122087883Y-107647207D01*
X121959703Y-107602355D01*
X121959694Y-107602353D01*
X121929274Y-107599500D01*
X121929266Y-107599500D01*
X121295734Y-107599500D01*
X121295725Y-107599500D01*
X121265305Y-107602353D01*
X121265301Y-107602354D01*
X121221805Y-107617574D01*
X121160635Y-107618946D01*
X121119104Y-107594133D01*
X120974780Y-107449809D01*
X120949157Y-107405427D01*
X120938590Y-107365988D01*
X120938590Y-107365987D01*
X120930021Y-107334010D01*
X120930020Y-107334008D01*
X120890463Y-107265493D01*
X120890459Y-107265488D01*
X120779496Y-107154524D01*
X120751719Y-107100008D01*
X120750500Y-107084521D01*
X120750500Y-106860439D01*
X120747703Y-106850000D01*
X120730022Y-106784012D01*
X120713762Y-106755848D01*
X120700500Y-106706350D01*
X120700500Y-106060437D01*
X120700499Y-106060435D01*
X120680021Y-105984011D01*
X120680019Y-105984007D01*
X120640460Y-105915489D01*
X120584511Y-105859539D01*
X120584511Y-105859540D01*
X120529496Y-105804525D01*
X120501719Y-105750008D01*
X120500500Y-105734521D01*
X120500500Y-105064478D01*
X120519407Y-105006287D01*
X120568907Y-104970323D01*
X120630093Y-104970323D01*
X120669501Y-104994472D01*
X120870505Y-105195476D01*
X120898281Y-105249991D01*
X120899500Y-105265478D01*
X120899500Y-106004274D01*
X120902353Y-106034694D01*
X120902355Y-106034703D01*
X120947207Y-106162883D01*
X121027845Y-106272144D01*
X121027847Y-106272146D01*
X121027850Y-106272150D01*
X121027853Y-106272152D01*
X121027855Y-106272154D01*
X121137116Y-106352792D01*
X121137117Y-106352792D01*
X121137118Y-106352793D01*
X121265301Y-106397646D01*
X121295725Y-106400499D01*
X121295727Y-106400500D01*
X121295734Y-106400500D01*
X121929273Y-106400500D01*
X121929273Y-106400499D01*
X121959699Y-106397646D01*
X122087882Y-106352793D01*
X122197150Y-106272150D01*
X122277793Y-106162882D01*
X122322646Y-106034699D01*
X122325499Y-106004273D01*
X122325500Y-106004273D01*
X122325500Y-104995727D01*
X122325499Y-104995725D01*
X122322646Y-104965305D01*
X122322646Y-104965301D01*
X122277793Y-104837118D01*
X122197150Y-104727850D01*
X122197146Y-104727847D01*
X122197144Y-104727845D01*
X122087883Y-104647207D01*
X121959703Y-104602355D01*
X121959694Y-104602353D01*
X121929274Y-104599500D01*
X121929266Y-104599500D01*
X121295734Y-104599500D01*
X121295725Y-104599500D01*
X121265305Y-104602353D01*
X121265301Y-104602354D01*
X121221805Y-104617574D01*
X121160635Y-104618946D01*
X121119104Y-104594133D01*
X120974780Y-104449809D01*
X120949157Y-104405427D01*
X120938456Y-104365488D01*
X120938456Y-104365487D01*
X120930021Y-104334010D01*
X120930020Y-104334008D01*
X120890463Y-104265493D01*
X120890462Y-104265492D01*
X120890461Y-104265491D01*
X120890460Y-104265489D01*
X119679496Y-103054525D01*
X119651719Y-103000008D01*
X119650500Y-102984521D01*
X119650500Y-102599218D01*
X121019500Y-102599218D01*
X121019500Y-102800781D01*
X121051028Y-102999846D01*
X121113314Y-103191542D01*
X121203685Y-103368907D01*
X121204818Y-103371129D01*
X121323289Y-103534190D01*
X121465810Y-103676711D01*
X121628871Y-103795182D01*
X121808458Y-103886686D01*
X122000149Y-103948970D01*
X122000150Y-103948970D01*
X122000153Y-103948971D01*
X122199219Y-103980500D01*
X122199222Y-103980500D01*
X122400781Y-103980500D01*
X122599846Y-103948971D01*
X122599847Y-103948970D01*
X122599851Y-103948970D01*
X122791542Y-103886686D01*
X122971129Y-103795182D01*
X123134190Y-103676711D01*
X123276711Y-103534190D01*
X123395182Y-103371129D01*
X123486686Y-103191542D01*
X123548970Y-102999851D01*
X123551398Y-102984521D01*
X123580500Y-102800781D01*
X123580500Y-102599218D01*
X123548971Y-102400153D01*
X123530763Y-102344114D01*
X123486686Y-102208458D01*
X123395182Y-102028871D01*
X123276711Y-101865810D01*
X123134190Y-101723289D01*
X122971129Y-101604818D01*
X122971128Y-101604817D01*
X122971126Y-101604816D01*
X122791542Y-101513314D01*
X122599846Y-101451028D01*
X122400781Y-101419500D01*
X122400778Y-101419500D01*
X122199222Y-101419500D01*
X122199219Y-101419500D01*
X122000153Y-101451028D01*
X121808457Y-101513314D01*
X121628873Y-101604816D01*
X121465811Y-101723288D01*
X121323288Y-101865811D01*
X121204816Y-102028873D01*
X121113314Y-102208457D01*
X121051028Y-102400153D01*
X121019500Y-102599218D01*
X119650500Y-102599218D01*
X119650500Y-101110437D01*
X119650499Y-101110435D01*
X119630021Y-101034011D01*
X119630019Y-101034007D01*
X119590461Y-100965491D01*
X119590460Y-100965489D01*
X119534511Y-100909540D01*
X119534508Y-100909538D01*
X119465992Y-100869980D01*
X119465988Y-100869978D01*
X119389564Y-100849500D01*
X119389562Y-100849500D01*
X117215479Y-100849500D01*
X117157288Y-100830593D01*
X117145476Y-100820504D01*
X117034510Y-100709539D01*
X116992416Y-100685236D01*
X116951475Y-100639766D01*
X116945079Y-100578916D01*
X116975672Y-100525928D01*
X117031568Y-100501042D01*
X117041916Y-100500500D01*
X123934108Y-100500500D01*
X123994437Y-100500500D01*
X124005520Y-100501121D01*
X124100071Y-100511774D01*
X124121677Y-100516706D01*
X124206197Y-100546282D01*
X124226167Y-100555899D01*
X124301986Y-100603539D01*
X124319319Y-100617361D01*
X124382638Y-100680680D01*
X124396460Y-100698013D01*
X124444100Y-100773832D01*
X124453718Y-100793804D01*
X124483291Y-100878316D01*
X124488225Y-100899931D01*
X124498878Y-100994479D01*
X124499500Y-101005563D01*
X124499500Y-123994436D01*
X124498878Y-124005520D01*
X124488225Y-124100068D01*
X124483291Y-124121683D01*
X124453718Y-124206195D01*
X124444100Y-124226167D01*
X124396460Y-124301986D01*
X124382638Y-124319319D01*
X124319319Y-124382638D01*
X124301986Y-124396460D01*
X124226167Y-124444100D01*
X124206195Y-124453718D01*
X124121683Y-124483291D01*
X124100069Y-124488224D01*
X124005522Y-124498877D01*
X123994437Y-124499500D01*
X101005563Y-124499500D01*
X100994479Y-124498878D01*
X100899931Y-124488225D01*
X100878316Y-124483291D01*
X100793804Y-124453718D01*
X100773832Y-124444100D01*
X100698013Y-124396460D01*
X100680680Y-124382638D01*
X100617361Y-124319319D01*
X100603539Y-124301986D01*
X100555899Y-124226167D01*
X100546281Y-124206195D01*
X100516706Y-124121677D01*
X100511774Y-124100067D01*
X100501122Y-124005519D01*
X100500500Y-123994436D01*
X100500500Y-117897824D01*
X103424999Y-117897824D01*
X103431401Y-117957370D01*
X103431403Y-117957381D01*
X103481646Y-118092088D01*
X103481647Y-118092090D01*
X103567807Y-118207184D01*
X103567815Y-118207192D01*
X103682909Y-118293352D01*
X103682911Y-118293353D01*
X103817618Y-118343596D01*
X103817629Y-118343598D01*
X103877176Y-118350000D01*
X104062499Y-118350000D01*
X104062500Y-118349999D01*
X104062500Y-117525001D01*
X104312500Y-117525001D01*
X104312500Y-118349999D01*
X104312501Y-118350000D01*
X104497824Y-118350000D01*
X104557370Y-118343598D01*
X104557381Y-118343596D01*
X104692088Y-118293353D01*
X104692090Y-118293352D01*
X104807184Y-118207192D01*
X104807192Y-118207184D01*
X104893352Y-118092090D01*
X104893353Y-118092088D01*
X104943596Y-117957381D01*
X104943598Y-117957370D01*
X104950000Y-117897824D01*
X104950000Y-117525001D01*
X104949999Y-117525000D01*
X104312501Y-117525000D01*
X104312500Y-117525001D01*
X104062500Y-117525001D01*
X104062499Y-117525000D01*
X103425001Y-117525000D01*
X103425000Y-117525001D01*
X103425000Y-117897824D01*
X103424999Y-117897824D01*
X100500500Y-117897824D01*
X100500500Y-116902175D01*
X103425000Y-116902175D01*
X103425000Y-117274999D01*
X103425001Y-117275000D01*
X104062499Y-117275000D01*
X104062500Y-117274999D01*
X104062500Y-116450001D01*
X104312500Y-116450001D01*
X104312500Y-117274999D01*
X104312501Y-117275000D01*
X104949999Y-117275000D01*
X104950000Y-117274999D01*
X104950000Y-116902175D01*
X104943598Y-116842629D01*
X104943596Y-116842618D01*
X104893353Y-116707911D01*
X104893352Y-116707909D01*
X104807192Y-116592815D01*
X104807184Y-116592807D01*
X104692090Y-116506647D01*
X104692088Y-116506646D01*
X104557381Y-116456403D01*
X104557370Y-116456401D01*
X104497824Y-116450000D01*
X104312501Y-116450000D01*
X104312500Y-116450001D01*
X104062500Y-116450001D01*
X104062499Y-116450000D01*
X103877176Y-116450000D01*
X103817629Y-116456401D01*
X103817618Y-116456403D01*
X103682911Y-116506646D01*
X103682909Y-116506647D01*
X103567815Y-116592807D01*
X103567807Y-116592815D01*
X103481647Y-116707909D01*
X103481646Y-116707911D01*
X103431403Y-116842618D01*
X103431401Y-116842629D01*
X103425000Y-116902175D01*
X100500500Y-116902175D01*
X100500500Y-115222824D01*
X106599999Y-115222824D01*
X106606401Y-115282370D01*
X106606403Y-115282381D01*
X106656646Y-115417088D01*
X106656647Y-115417090D01*
X106742807Y-115532184D01*
X106742815Y-115532192D01*
X106857909Y-115618352D01*
X106857911Y-115618353D01*
X106992618Y-115668596D01*
X106992629Y-115668598D01*
X107052176Y-115675000D01*
X107224999Y-115675000D01*
X107225000Y-115674999D01*
X107225000Y-114825001D01*
X107475000Y-114825001D01*
X107475000Y-115674999D01*
X107475001Y-115675000D01*
X107647824Y-115675000D01*
X107707370Y-115668598D01*
X107707381Y-115668596D01*
X107842088Y-115618353D01*
X107842090Y-115618352D01*
X107957184Y-115532192D01*
X107957192Y-115532184D01*
X108043352Y-115417090D01*
X108043353Y-115417088D01*
X108093596Y-115282381D01*
X108093598Y-115282370D01*
X108100000Y-115222824D01*
X108100000Y-114825001D01*
X108099999Y-114825000D01*
X107475001Y-114825000D01*
X107475000Y-114825001D01*
X107225000Y-114825001D01*
X107224999Y-114825000D01*
X106600001Y-114825000D01*
X106600000Y-114825001D01*
X106600000Y-115222824D01*
X106599999Y-115222824D01*
X100500500Y-115222824D01*
X100500500Y-114177175D01*
X106600000Y-114177175D01*
X106600000Y-114574999D01*
X106600001Y-114575000D01*
X107224999Y-114575000D01*
X107225000Y-114574999D01*
X107225000Y-113725001D01*
X107475000Y-113725001D01*
X107475000Y-114574999D01*
X107475001Y-114575000D01*
X108099999Y-114575000D01*
X108100000Y-114574999D01*
X108100000Y-114177175D01*
X108093598Y-114117629D01*
X108093596Y-114117618D01*
X108043353Y-113982911D01*
X108043352Y-113982909D01*
X107957192Y-113867815D01*
X107957184Y-113867807D01*
X107842090Y-113781647D01*
X107842088Y-113781646D01*
X107707381Y-113731403D01*
X107707370Y-113731401D01*
X107647824Y-113725000D01*
X107475001Y-113725000D01*
X107475000Y-113725001D01*
X107225000Y-113725001D01*
X107224999Y-113725000D01*
X107052176Y-113725000D01*
X106992629Y-113731401D01*
X106992618Y-113731403D01*
X106857911Y-113781646D01*
X106857909Y-113781647D01*
X106742815Y-113867807D01*
X106742807Y-113867815D01*
X106656647Y-113982909D01*
X106656646Y-113982911D01*
X106606403Y-114117618D01*
X106606401Y-114117629D01*
X106600000Y-114177175D01*
X100500500Y-114177175D01*
X100500500Y-110347824D01*
X104324999Y-110347824D01*
X104331401Y-110407370D01*
X104331403Y-110407381D01*
X104381646Y-110542088D01*
X104381647Y-110542090D01*
X104467807Y-110657184D01*
X104467815Y-110657192D01*
X104582909Y-110743352D01*
X104582911Y-110743353D01*
X104717618Y-110793596D01*
X104717629Y-110793598D01*
X104777176Y-110800000D01*
X105174999Y-110800000D01*
X105175000Y-110799999D01*
X105175000Y-110175001D01*
X105174999Y-110175000D01*
X104325001Y-110175000D01*
X104325000Y-110175001D01*
X104325000Y-110347824D01*
X104324999Y-110347824D01*
X100500500Y-110347824D01*
X100500500Y-109752175D01*
X104325000Y-109752175D01*
X104325000Y-109924999D01*
X104325001Y-109925000D01*
X105174999Y-109925000D01*
X105175000Y-109924999D01*
X105175000Y-109300001D01*
X105425000Y-109300001D01*
X105425000Y-109924999D01*
X105425001Y-109925000D01*
X106274999Y-109925000D01*
X106275000Y-109924999D01*
X106275000Y-109752175D01*
X106268598Y-109692629D01*
X106268596Y-109692618D01*
X106218353Y-109557911D01*
X106218352Y-109557909D01*
X106132192Y-109442815D01*
X106132184Y-109442807D01*
X106017090Y-109356647D01*
X106017088Y-109356646D01*
X105882381Y-109306403D01*
X105882370Y-109306401D01*
X105822824Y-109300000D01*
X105425001Y-109300000D01*
X105425000Y-109300001D01*
X105175000Y-109300001D01*
X105174999Y-109300000D01*
X104777176Y-109300000D01*
X104717629Y-109306401D01*
X104717618Y-109306403D01*
X104582911Y-109356646D01*
X104582909Y-109356647D01*
X104467815Y-109442807D01*
X104467807Y-109442815D01*
X104381647Y-109557909D01*
X104381646Y-109557911D01*
X104331403Y-109692618D01*
X104331401Y-109692629D01*
X104325000Y-109752175D01*
X100500500Y-109752175D01*
X100500500Y-108297824D01*
X101824999Y-108297824D01*
X101831401Y-108357370D01*
X101831403Y-108357381D01*
X101881646Y-108492088D01*
X101881647Y-108492090D01*
X101967807Y-108607184D01*
X101967815Y-108607192D01*
X102082909Y-108693352D01*
X102082911Y-108693353D01*
X102217618Y-108743596D01*
X102217629Y-108743598D01*
X102277176Y-108750000D01*
X102462499Y-108750000D01*
X102462500Y-108749999D01*
X102462500Y-107925001D01*
X102712500Y-107925001D01*
X102712500Y-108749999D01*
X102712501Y-108750000D01*
X102897824Y-108750000D01*
X102957370Y-108743598D01*
X102957381Y-108743596D01*
X103092088Y-108693353D01*
X103092090Y-108693352D01*
X103207184Y-108607192D01*
X103207192Y-108607184D01*
X103293352Y-108492090D01*
X103293353Y-108492088D01*
X103343596Y-108357381D01*
X103343598Y-108357370D01*
X103350000Y-108297824D01*
X103350000Y-107925001D01*
X103349999Y-107925000D01*
X102712501Y-107925000D01*
X102712500Y-107925001D01*
X102462500Y-107925001D01*
X102462499Y-107925000D01*
X101825001Y-107925000D01*
X101825000Y-107925001D01*
X101825000Y-108297824D01*
X101824999Y-108297824D01*
X100500500Y-108297824D01*
X100500500Y-107302175D01*
X101825000Y-107302175D01*
X101825000Y-107674999D01*
X101825001Y-107675000D01*
X102462499Y-107675000D01*
X102462500Y-107674999D01*
X102462500Y-106850001D01*
X102712500Y-106850001D01*
X102712500Y-107674999D01*
X102712501Y-107675000D01*
X103349999Y-107675000D01*
X103350000Y-107674999D01*
X103350000Y-107302175D01*
X103343598Y-107242629D01*
X103343596Y-107242618D01*
X103293353Y-107107911D01*
X103293352Y-107107909D01*
X103207192Y-106992815D01*
X103207184Y-106992807D01*
X103092090Y-106906647D01*
X103092088Y-106906646D01*
X102957381Y-106856403D01*
X102957370Y-106856401D01*
X102897824Y-106850000D01*
X102712501Y-106850000D01*
X102712500Y-106850001D01*
X102462500Y-106850001D01*
X102462499Y-106850000D01*
X102277176Y-106850000D01*
X102217629Y-106856401D01*
X102217618Y-106856403D01*
X102082911Y-106906646D01*
X102082909Y-106906647D01*
X101967815Y-106992807D01*
X101967807Y-106992815D01*
X101881647Y-107107909D01*
X101881646Y-107107911D01*
X101831403Y-107242618D01*
X101831401Y-107242629D01*
X101825000Y-107302175D01*
X100500500Y-107302175D01*
X100500500Y-102599218D01*
X101419500Y-102599218D01*
X101419500Y-102800781D01*
X101451028Y-102999846D01*
X101513314Y-103191542D01*
X101603685Y-103368907D01*
X101604818Y-103371129D01*
X101723289Y-103534190D01*
X101865810Y-103676711D01*
X102028871Y-103795182D01*
X102208458Y-103886686D01*
X102400149Y-103948970D01*
X102400150Y-103948970D01*
X102400153Y-103948971D01*
X102599219Y-103980500D01*
X102599222Y-103980500D01*
X102800781Y-103980500D01*
X102999846Y-103948971D01*
X102999847Y-103948970D01*
X102999851Y-103948970D01*
X103191542Y-103886686D01*
X103371129Y-103795182D01*
X103534190Y-103676711D01*
X103676711Y-103534190D01*
X103795182Y-103371129D01*
X103886686Y-103191542D01*
X103948970Y-102999851D01*
X103951398Y-102984521D01*
X103980500Y-102800781D01*
X103980500Y-102599218D01*
X103948971Y-102400153D01*
X103930763Y-102344114D01*
X103886686Y-102208458D01*
X103795182Y-102028871D01*
X103676711Y-101865810D01*
X103534190Y-101723289D01*
X103371129Y-101604818D01*
X103371128Y-101604817D01*
X103371126Y-101604816D01*
X103191542Y-101513314D01*
X102999846Y-101451028D01*
X102800781Y-101419500D01*
X102800778Y-101419500D01*
X102599222Y-101419500D01*
X102599219Y-101419500D01*
X102400153Y-101451028D01*
X102208457Y-101513314D01*
X102028873Y-101604816D01*
X101865811Y-101723288D01*
X101723288Y-101865811D01*
X101604816Y-102028873D01*
X101513314Y-102208457D01*
X101451028Y-102400153D01*
X101419500Y-102599218D01*
X100500500Y-102599218D01*
X100500500Y-101005563D01*
X100501122Y-100994480D01*
X100511774Y-100899932D01*
X100511775Y-100899931D01*
X100511774Y-100899928D01*
X100516705Y-100878324D01*
X100546283Y-100793798D01*
X100555899Y-100773832D01*
X100603542Y-100698008D01*
X100617357Y-100680684D01*
X100680684Y-100617357D01*
X100698008Y-100603542D01*
X100773834Y-100555897D01*
X100793798Y-100546283D01*
X100878324Y-100516705D01*
X100899928Y-100511774D01*
X100980091Y-100502743D01*
X100994480Y-100501122D01*
X101005563Y-100500500D01*
X101065892Y-100500500D01*
X114508084Y-100500500D01*
X114566275Y-100519407D01*
G37*
%TD.AperFunction*%
%TA.AperFunction,Conductor*%
G36*
X116410438Y-116950500D02*
G01*
X117484521Y-116950500D01*
X117542712Y-116969407D01*
X117554525Y-116979496D01*
X117570504Y-116995475D01*
X117598281Y-117049992D01*
X117599500Y-117065479D01*
X117599500Y-117939564D01*
X117619978Y-118015988D01*
X117622382Y-118020151D01*
X117647053Y-118062882D01*
X117659540Y-118084511D01*
X118605050Y-119030021D01*
X119533605Y-119958576D01*
X119561382Y-120013093D01*
X119551811Y-120073525D01*
X119522930Y-120107833D01*
X119442815Y-120167807D01*
X119442807Y-120167815D01*
X119356647Y-120282909D01*
X119356646Y-120282911D01*
X119306403Y-120417618D01*
X119306401Y-120417629D01*
X119300000Y-120477175D01*
X119300000Y-120874999D01*
X119300001Y-120875000D01*
X120799999Y-120875000D01*
X120800000Y-120874999D01*
X120800000Y-120513979D01*
X120818907Y-120455788D01*
X120868407Y-120419824D01*
X120929593Y-120419824D01*
X120969004Y-120443975D01*
X121220504Y-120695475D01*
X121248281Y-120749992D01*
X121249500Y-120765479D01*
X121249500Y-121529274D01*
X121252353Y-121559694D01*
X121252355Y-121559703D01*
X121272685Y-121617802D01*
X121274058Y-121678972D01*
X121239215Y-121729267D01*
X121181463Y-121749475D01*
X121179241Y-121749500D01*
X120873851Y-121749500D01*
X120815660Y-121730593D01*
X120779696Y-121681093D01*
X120779696Y-121619907D01*
X120781093Y-121615904D01*
X120793596Y-121582381D01*
X120793598Y-121582370D01*
X120800000Y-121522824D01*
X120800000Y-121125001D01*
X120799999Y-121125000D01*
X119300001Y-121125000D01*
X119300000Y-121125001D01*
X119300000Y-121522824D01*
X119299999Y-121522824D01*
X119306401Y-121582370D01*
X119306403Y-121582381D01*
X119318907Y-121615904D01*
X119321527Y-121677033D01*
X119287716Y-121728028D01*
X119230388Y-121749409D01*
X119226149Y-121749500D01*
X119165479Y-121749500D01*
X119107288Y-121730593D01*
X119095475Y-121720504D01*
X117852146Y-120477175D01*
X116584511Y-119209540D01*
X116584508Y-119209538D01*
X116568853Y-119200499D01*
X116568853Y-119200500D01*
X116515989Y-119169979D01*
X116515988Y-119169978D01*
X116515987Y-119169978D01*
X116439564Y-119149500D01*
X116439562Y-119149500D01*
X115915479Y-119149500D01*
X115857288Y-119130593D01*
X115845476Y-119120504D01*
X115784513Y-119059542D01*
X115784511Y-119059540D01*
X115773145Y-119052977D01*
X115732206Y-119007508D01*
X115725812Y-118946658D01*
X115752643Y-118897241D01*
X115794501Y-118855384D01*
X115861051Y-118740116D01*
X115895500Y-118611550D01*
X115895500Y-118478450D01*
X115876232Y-118406540D01*
X115879435Y-118345440D01*
X115917940Y-118297890D01*
X115956377Y-118283137D01*
X115975146Y-118280165D01*
X115975151Y-118280163D01*
X116088043Y-118222641D01*
X116177641Y-118133043D01*
X116235163Y-118020151D01*
X116235164Y-118020147D01*
X116250000Y-117926484D01*
X116250000Y-117595001D01*
X116249999Y-117595000D01*
X115799000Y-117595000D01*
X115740809Y-117576093D01*
X115704845Y-117526593D01*
X115700000Y-117496000D01*
X115700000Y-117444000D01*
X115718907Y-117385809D01*
X115768407Y-117349845D01*
X115799000Y-117345000D01*
X116249998Y-117345000D01*
X116249999Y-117344999D01*
X116249999Y-117036529D01*
X116268906Y-116978338D01*
X116318406Y-116942374D01*
X116374622Y-116940903D01*
X116410438Y-116950500D01*
G37*
%TD.AperFunction*%
%TA.AperFunction,Conductor*%
G36*
X113872443Y-108269407D02*
G01*
X113908407Y-108318907D01*
X113912217Y-108363770D01*
X113904500Y-108416740D01*
X113904500Y-110133260D01*
X113909850Y-110169978D01*
X113914427Y-110201395D01*
X113945495Y-110264944D01*
X113965802Y-110306483D01*
X114048517Y-110389198D01*
X114102285Y-110415483D01*
X114153604Y-110440572D01*
X114153605Y-110440572D01*
X114153607Y-110440573D01*
X114221740Y-110450500D01*
X114221743Y-110450500D01*
X114588259Y-110450500D01*
X114588260Y-110450500D01*
X114636226Y-110443511D01*
X114696534Y-110453830D01*
X114739259Y-110497627D01*
X114749500Y-110541476D01*
X114749500Y-111184521D01*
X114730593Y-111242712D01*
X114720504Y-111254525D01*
X113861665Y-112113363D01*
X113807148Y-112141140D01*
X113748181Y-112132300D01*
X113727289Y-112122086D01*
X113701394Y-112109427D01*
X113684359Y-112106945D01*
X113633260Y-112099500D01*
X113266740Y-112099500D01*
X113232673Y-112104463D01*
X113198604Y-112109427D01*
X113093518Y-112160801D01*
X113093514Y-112160803D01*
X113080004Y-112174314D01*
X113025486Y-112202091D01*
X112965055Y-112192517D01*
X112939998Y-112174313D01*
X112888043Y-112122358D01*
X112775151Y-112064836D01*
X112775147Y-112064835D01*
X112681484Y-112050000D01*
X112625001Y-112050000D01*
X112625000Y-112050001D01*
X112625000Y-112863500D01*
X112606093Y-112921691D01*
X112556593Y-112957655D01*
X112526000Y-112962500D01*
X112474000Y-112962500D01*
X112415809Y-112943593D01*
X112379845Y-112894093D01*
X112375000Y-112863500D01*
X112375000Y-112049999D01*
X112356238Y-112031238D01*
X112355788Y-112031092D01*
X112354979Y-112029979D01*
X112346003Y-112021003D01*
X112347424Y-112019581D01*
X112319824Y-111981592D01*
X112319824Y-111920406D01*
X112343973Y-111880997D01*
X112740460Y-111484511D01*
X112780021Y-111415989D01*
X112800500Y-111339562D01*
X112800500Y-110843647D01*
X112813765Y-110794145D01*
X112830020Y-110765991D01*
X112830019Y-110765991D01*
X112830022Y-110765988D01*
X112850500Y-110689562D01*
X112850500Y-110610438D01*
X112850500Y-110549500D01*
X112869407Y-110491309D01*
X112918907Y-110455345D01*
X112949500Y-110450500D01*
X113318257Y-110450500D01*
X113318260Y-110450500D01*
X113386393Y-110440573D01*
X113491483Y-110389198D01*
X113574198Y-110306483D01*
X113625573Y-110201393D01*
X113635500Y-110133260D01*
X113635500Y-108416740D01*
X113627782Y-108363771D01*
X113638102Y-108303465D01*
X113681899Y-108260740D01*
X113725748Y-108250500D01*
X113814252Y-108250500D01*
X113872443Y-108269407D01*
G37*
%TD.AperFunction*%
%TD*%
M02*
