%TF.GenerationSoftware,KiCad,Pcbnew,10.0.6*%
%TF.CreationDate,2026-09-05T19:52:01+08:00*%
%TF.ProjectId,sl25,736c3235-2e6b-4696-9361-645f70636258,B*%
%TF.SameCoordinates,Original*%
%TF.FileFunction,Copper,L1,Top*%
%TF.FilePolarity,Positive*%
%FSLAX46Y46*%
G04 Gerber Fmt 4.6, Leading zero omitted, Abs format (unit mm)*
G04 Created by KiCad (PCBNEW 10.0.6) date 2026-09-05 19:52:01*
%MOMM*%
%LPD*%
G01*
G04 APERTURE LIST*
G04 Aperture macros list*
%AMRoundRect*
0 Rectangle with rounded corners*
0 $1 Rounding radius*
0 $2 $3 $4 $5 $6 $7 $8 $9 X,Y pos of 4 corners*
0 Add a 4 corners polygon primitive as box body*
4,1,4,$2,$3,$4,$5,$6,$7,$8,$9,$2,$3,0*
0 Add four circle primitives for the rounded corners*
1,1,$1+$1,$2,$3*
1,1,$1+$1,$4,$5*
1,1,$1+$1,$6,$7*
1,1,$1+$1,$8,$9*
0 Add four rect primitives between the rounded corners*
20,1,$1+$1,$2,$3,$4,$5,0*
20,1,$1+$1,$4,$5,$6,$7,0*
20,1,$1+$1,$6,$7,$8,$9,0*
20,1,$1+$1,$8,$9,$2,$3,0*%
G04 Aperture macros list end*
%TA.AperFunction,SMDPad,CuDef*%
%ADD10RoundRect,0.090000X0.660000X0.360000X-0.660000X0.360000X-0.660000X-0.360000X0.660000X-0.360000X0*%
%TD*%
%TA.AperFunction,ComponentPad*%
%ADD11O,1.000000X1.800000*%
%TD*%
%TA.AperFunction,ComponentPad*%
%ADD12O,1.000000X2.100000*%
%TD*%
%TA.AperFunction,ViaPad*%
%ADD13C,0.600000*%
%TD*%
%TA.AperFunction,Conductor*%
%ADD14C,0.200000*%
%TD*%
G04 APERTURE END LIST*
D10*
%TO.P,D1,1*%
%TO.N,/+5V*%
X114950000Y-114150000D03*
%TO.P,D1,2*%
%TO.N,unconnected-(D1-DOUT-Pad2)*%
X114950000Y-110850000D03*
%TO.P,D1,3*%
%TO.N,/GND*%
X110050000Y-110850000D03*
%TO.P,D1,4*%
%TO.N,/LED_DATA*%
X110050000Y-114150000D03*
%TD*%
D11*
%TO.P,J1,SH*%
%TO.N,/GND*%
X116820000Y-122225000D03*
D12*
X116820000Y-118045000D03*
D11*
X108180000Y-122225000D03*
D12*
X108180000Y-118045000D03*
%TD*%
D13*
%TO.N,/+5V*%
X110200000Y-116350000D03*
X115050000Y-114250000D03*
X114300000Y-116350000D03*
X112600000Y-115250000D03*
%TO.N,/GND*%
X107350000Y-114700000D03*
X119300000Y-117400000D03*
X104950000Y-117550000D03*
X113000000Y-111650000D03*
X108950000Y-117450000D03*
X120050000Y-120500000D03*
X113500000Y-111250000D03*
X117800000Y-109050000D03*
X119700000Y-121350000D03*
X110350000Y-110550000D03*
X108400000Y-111800000D03*
X117200000Y-112350000D03*
X118500000Y-117400000D03*
X115750000Y-117150000D03*
%TO.N,/LED_DATA*%
X120850000Y-108500000D03*
%TO.N,/USB_DP*%
X112250000Y-118550000D03*
X111000000Y-116400000D03*
%TO.N,/USB_DM*%
X113450000Y-114850000D03*
X113450000Y-112950000D03*
%TO.N,/CC2*%
X110750000Y-118600000D03*
X106250000Y-117400000D03*
%TD*%
%TO.N,/+5V*%
D14*
X114050000Y-115050000D02*
X114950000Y-114150000D01*
X110200000Y-116350000D02*
X110300000Y-116250000D01*
X114000000Y-115150000D02*
X114050000Y-115100000D01*
X112950000Y-115250000D02*
X113100000Y-115400000D01*
X110300000Y-116250000D02*
X110300000Y-116200000D01*
X112550000Y-115300000D02*
X112600000Y-115250000D01*
X113200000Y-115450000D02*
X113750000Y-115450000D01*
X112450000Y-115300000D02*
X112550000Y-115300000D01*
X110650000Y-115850000D02*
X110700000Y-115850000D01*
X114300000Y-116350000D02*
X113700000Y-116350000D01*
X110750000Y-115800000D02*
X111950000Y-115800000D01*
X113100000Y-115400000D02*
X113150000Y-115400000D01*
X113700000Y-116350000D02*
X112600000Y-115250000D01*
X115050000Y-114250000D02*
X114950000Y-114150000D01*
X113750000Y-115450000D02*
X114000000Y-115200000D01*
X110700000Y-115850000D02*
X110750000Y-115800000D01*
X111950000Y-115800000D02*
X112450000Y-115300000D01*
X112600000Y-115250000D02*
X112950000Y-115250000D01*
X113150000Y-115400000D02*
X113200000Y-115450000D01*
X114000000Y-115200000D02*
X114000000Y-115150000D01*
X114050000Y-115100000D02*
X114050000Y-115050000D01*
X110300000Y-116200000D02*
X110650000Y-115850000D01*
%TO.N,/GND*%
X120050000Y-118150000D02*
X119300000Y-117400000D01*
X117400000Y-121600000D02*
X118150000Y-121600000D01*
X108150000Y-118000000D02*
X108200000Y-118050000D01*
X105650000Y-117650000D02*
X105650000Y-116400000D01*
X115750000Y-115250000D02*
X116050000Y-114950000D01*
X106500000Y-118000000D02*
X106000000Y-118000000D01*
X116800000Y-122200000D02*
X117400000Y-121600000D01*
X106550000Y-117950000D02*
X106500000Y-118000000D01*
X105700000Y-117700000D02*
X105650000Y-117650000D01*
X105700000Y-117750000D02*
X105700000Y-117700000D01*
X106850000Y-117750000D02*
X106800000Y-117800000D01*
X106000000Y-118000000D02*
X108150000Y-118000000D01*
X117450000Y-117400000D02*
X116800000Y-118050000D01*
X108400000Y-111800000D02*
X109100000Y-111800000D01*
X105900000Y-117950000D02*
X105700000Y-117750000D01*
X116050000Y-113500000D02*
X117200000Y-112350000D01*
X118500000Y-117400000D02*
X117450000Y-117400000D01*
X105650000Y-116400000D02*
X107350000Y-114700000D01*
X109100000Y-111800000D02*
X110050000Y-110850000D01*
X106750000Y-117800000D02*
X106600000Y-117950000D01*
X106900000Y-117750000D02*
X106850000Y-117750000D01*
X108950000Y-117450000D02*
X107200000Y-117450000D01*
X105500000Y-117550000D02*
X105900000Y-117950000D01*
X105900000Y-117950000D02*
X105950000Y-117950000D01*
X116400000Y-109050000D02*
X115400000Y-110050000D01*
X110350000Y-110550000D02*
X110050000Y-110850000D01*
X113850000Y-110900000D02*
X113500000Y-111250000D01*
X104950000Y-117550000D02*
X105500000Y-117550000D01*
X106800000Y-117800000D02*
X106750000Y-117800000D01*
X108200000Y-118050000D02*
X108180000Y-118045000D01*
X115400000Y-110050000D02*
X113850000Y-110050000D01*
X106600000Y-117950000D02*
X106550000Y-117950000D01*
X118200000Y-121550000D02*
X119500000Y-121550000D01*
X117800000Y-109050000D02*
X116400000Y-109050000D01*
X105950000Y-117950000D02*
X106000000Y-118000000D01*
X119500000Y-121550000D02*
X119700000Y-121350000D01*
X113850000Y-110050000D02*
X113850000Y-110900000D01*
X116800000Y-118050000D02*
X116820000Y-118045000D01*
X105950000Y-117950000D02*
X105900000Y-117950000D01*
X106000000Y-118000000D02*
X105950000Y-117950000D01*
X110850000Y-111650000D02*
X110050000Y-110850000D01*
X116820000Y-122225000D02*
X116800000Y-122200000D01*
X116050000Y-114950000D02*
X116050000Y-113500000D01*
X107200000Y-117450000D02*
X106900000Y-117750000D01*
X113000000Y-111650000D02*
X110850000Y-111650000D01*
X118150000Y-121600000D02*
X118200000Y-121550000D01*
X120050000Y-120500000D02*
X120050000Y-118150000D01*
X115750000Y-117150000D02*
X115750000Y-115250000D01*
%TO.N,/LED_DATA*%
X120850000Y-108500000D02*
X119200000Y-108500000D01*
X116050000Y-111650000D02*
X116000000Y-111650000D01*
X116000000Y-111650000D02*
X115400000Y-112250000D01*
X115400000Y-112250000D02*
X111950000Y-112250000D01*
X119200000Y-108500000D02*
X116050000Y-111650000D01*
X111950000Y-112250000D02*
X110050000Y-114150000D01*
%TO.N,/USB_DP*%
X111000000Y-117300000D02*
X111000000Y-116400000D01*
X112250000Y-118550000D02*
X111000000Y-117300000D01*
%TO.N,/USB_DM*%
X113450000Y-114850000D02*
X113450000Y-112950000D01*
%TO.N,/CC2*%
X110400000Y-117800000D02*
X110400000Y-118250000D01*
X106600000Y-117400000D02*
X107350000Y-116650000D01*
X110400000Y-118250000D02*
X110750000Y-118600000D01*
X107350000Y-116650000D02*
X109250000Y-116650000D01*
X106250000Y-117400000D02*
X106600000Y-117400000D01*
X109250000Y-116650000D02*
X110400000Y-117800000D01*
%TD*%
%TA.AperFunction,Conductor*%
%TO.N,/GND*%
G36*
X124005520Y-100501121D02*
G01*
X124100071Y-100511774D01*
X124121677Y-100516706D01*
X124206197Y-100546282D01*
X124226167Y-100555899D01*
X124301986Y-100603539D01*
X124319319Y-100617361D01*
X124382638Y-100680680D01*
X124396460Y-100698013D01*
X124444100Y-100773832D01*
X124453718Y-100793804D01*
X124483291Y-100878316D01*
X124488225Y-100899931D01*
X124498878Y-100994479D01*
X124499500Y-101005563D01*
X124499500Y-123994436D01*
X124498878Y-124005520D01*
X124488225Y-124100068D01*
X124483291Y-124121683D01*
X124453718Y-124206195D01*
X124444100Y-124226167D01*
X124396460Y-124301986D01*
X124382638Y-124319319D01*
X124319319Y-124382638D01*
X124301986Y-124396460D01*
X124226167Y-124444100D01*
X124206195Y-124453718D01*
X124121683Y-124483291D01*
X124100069Y-124488224D01*
X124005522Y-124498877D01*
X123994437Y-124499500D01*
X101005563Y-124499500D01*
X100994479Y-124498878D01*
X100899931Y-124488225D01*
X100878316Y-124483291D01*
X100793804Y-124453718D01*
X100773832Y-124444100D01*
X100698013Y-124396460D01*
X100680680Y-124382638D01*
X100617361Y-124319319D01*
X100603539Y-124301986D01*
X100555899Y-124226167D01*
X100546281Y-124206195D01*
X100516706Y-124121677D01*
X100511774Y-124100067D01*
X100501122Y-124005519D01*
X100500500Y-123994436D01*
X100500500Y-117334108D01*
X105749500Y-117334108D01*
X105749500Y-117465892D01*
X105754489Y-117484511D01*
X105783609Y-117593190D01*
X105849496Y-117707309D01*
X105849498Y-117707311D01*
X105849500Y-117707314D01*
X105942686Y-117800500D01*
X105942688Y-117800501D01*
X105942690Y-117800503D01*
X106056810Y-117866390D01*
X106056808Y-117866390D01*
X106056812Y-117866391D01*
X106056814Y-117866392D01*
X106184108Y-117900500D01*
X106184110Y-117900500D01*
X106315890Y-117900500D01*
X106315892Y-117900500D01*
X106443186Y-117866392D01*
X106443188Y-117866390D01*
X106443190Y-117866390D01*
X106557309Y-117800503D01*
X106557309Y-117800502D01*
X106557314Y-117800500D01*
X106645056Y-117712757D01*
X106689433Y-117687136D01*
X106715989Y-117680021D01*
X106784511Y-117640460D01*
X106840460Y-117584511D01*
X107445475Y-116979496D01*
X107499992Y-116951719D01*
X107515479Y-116950500D01*
X109084521Y-116950500D01*
X109142712Y-116969407D01*
X109154525Y-116979496D01*
X110070504Y-117895475D01*
X110098281Y-117949992D01*
X110099500Y-117965479D01*
X110099500Y-118080608D01*
X110080593Y-118138799D01*
X110031093Y-118174763D01*
X109969907Y-118174763D01*
X109930498Y-118150613D01*
X109920384Y-118140499D01*
X109917440Y-118138799D01*
X109805119Y-118073950D01*
X109805121Y-118073950D01*
X109755235Y-118060583D01*
X109676550Y-118039500D01*
X109543450Y-118039500D01*
X109464764Y-118060583D01*
X109414879Y-118073950D01*
X109299618Y-118140497D01*
X109205497Y-118234618D01*
X109138950Y-118349879D01*
X109123696Y-118406809D01*
X109104500Y-118478450D01*
X109104500Y-118611550D01*
X109134880Y-118724930D01*
X109138950Y-118740120D01*
X109205497Y-118855381D01*
X109205499Y-118855384D01*
X109299616Y-118949501D01*
X109301352Y-118950503D01*
X109414880Y-119016049D01*
X109414878Y-119016049D01*
X109414882Y-119016050D01*
X109414884Y-119016051D01*
X109543450Y-119050500D01*
X109543452Y-119050500D01*
X109676548Y-119050500D01*
X109676550Y-119050500D01*
X109805116Y-119016051D01*
X109805118Y-119016049D01*
X109805120Y-119016049D01*
X109839362Y-118996278D01*
X109920384Y-118949501D01*
X110014501Y-118855384D01*
X110081051Y-118740116D01*
X110081052Y-118740110D01*
X110083533Y-118734124D01*
X110086289Y-118735265D01*
X110112865Y-118694284D01*
X110169971Y-118672319D01*
X110229083Y-118688115D01*
X110267620Y-118735640D01*
X110270844Y-118745550D01*
X110283608Y-118793186D01*
X110283609Y-118793188D01*
X110283610Y-118793191D01*
X110349496Y-118907309D01*
X110349498Y-118907311D01*
X110349500Y-118907314D01*
X110442686Y-119000500D01*
X110442688Y-119000501D01*
X110442690Y-119000503D01*
X110556810Y-119066390D01*
X110556808Y-119066390D01*
X110556812Y-119066391D01*
X110556814Y-119066392D01*
X110684108Y-119100500D01*
X110684110Y-119100500D01*
X110815890Y-119100500D01*
X110815892Y-119100500D01*
X110943186Y-119066392D01*
X110943188Y-119066390D01*
X110943190Y-119066390D01*
X111057309Y-119000503D01*
X111057309Y-119000502D01*
X111057314Y-119000500D01*
X111150500Y-118907314D01*
X111179368Y-118857314D01*
X111216390Y-118793190D01*
X111216390Y-118793188D01*
X111216392Y-118793186D01*
X111250500Y-118665892D01*
X111250500Y-118534108D01*
X111216392Y-118406814D01*
X111216390Y-118406811D01*
X111216390Y-118406809D01*
X111150503Y-118292690D01*
X111150501Y-118292688D01*
X111150500Y-118292686D01*
X111057314Y-118199500D01*
X111057311Y-118199498D01*
X111057309Y-118199496D01*
X110943189Y-118133609D01*
X110943191Y-118133609D01*
X110893799Y-118120375D01*
X110815892Y-118099500D01*
X110815890Y-118099500D01*
X110799500Y-118099500D01*
X110741309Y-118080593D01*
X110705345Y-118031093D01*
X110700500Y-118000500D01*
X110700500Y-117760439D01*
X110700500Y-117760438D01*
X110691437Y-117726614D01*
X110691437Y-117726613D01*
X110691437Y-117726612D01*
X110680022Y-117684012D01*
X110680021Y-117684010D01*
X110678642Y-117681620D01*
X110678638Y-117681615D01*
X110640460Y-117615489D01*
X110042057Y-117017086D01*
X110014282Y-116962572D01*
X110023853Y-116902140D01*
X110067118Y-116858875D01*
X110127550Y-116849304D01*
X110131659Y-116850177D01*
X110134107Y-116850499D01*
X110134108Y-116850500D01*
X110134109Y-116850500D01*
X110265890Y-116850500D01*
X110265892Y-116850500D01*
X110393186Y-116816392D01*
X110393188Y-116816390D01*
X110393190Y-116816390D01*
X110459134Y-116778317D01*
X110507314Y-116750500D01*
X110507314Y-116750499D01*
X110507317Y-116750498D01*
X110512465Y-116746549D01*
X110513826Y-116748323D01*
X110559491Y-116725043D01*
X110619926Y-116734601D01*
X110645000Y-116752814D01*
X110670505Y-116778319D01*
X110698281Y-116832834D01*
X110699500Y-116848321D01*
X110699500Y-117339564D01*
X110719978Y-117415987D01*
X110719979Y-117415989D01*
X110759540Y-117484511D01*
X111720505Y-118445476D01*
X111748281Y-118499991D01*
X111749500Y-118515478D01*
X111749500Y-118615892D01*
X111768852Y-118688115D01*
X111783609Y-118743190D01*
X111849496Y-118857309D01*
X111849498Y-118857311D01*
X111849500Y-118857314D01*
X111942686Y-118950500D01*
X111942688Y-118950501D01*
X111942690Y-118950503D01*
X112056810Y-119016390D01*
X112056808Y-119016390D01*
X112056812Y-119016391D01*
X112056814Y-119016392D01*
X112184108Y-119050500D01*
X112184110Y-119050500D01*
X112315890Y-119050500D01*
X112315892Y-119050500D01*
X112443186Y-119016392D01*
X112443188Y-119016390D01*
X112443190Y-119016390D01*
X112557309Y-118950503D01*
X112557309Y-118950502D01*
X112557314Y-118950500D01*
X112650500Y-118857314D01*
X112687522Y-118793190D01*
X112716390Y-118743190D01*
X112716390Y-118743188D01*
X112716392Y-118743186D01*
X112750500Y-118615892D01*
X112750500Y-118484108D01*
X112748984Y-118478450D01*
X114884500Y-118478450D01*
X114884500Y-118611550D01*
X114914880Y-118724930D01*
X114918950Y-118740120D01*
X114985497Y-118855381D01*
X114985499Y-118855384D01*
X115079616Y-118949501D01*
X115081352Y-118950503D01*
X115194880Y-119016049D01*
X115194878Y-119016049D01*
X115194882Y-119016050D01*
X115194884Y-119016051D01*
X115323450Y-119050500D01*
X115323452Y-119050500D01*
X115456548Y-119050500D01*
X115456550Y-119050500D01*
X115585116Y-119016051D01*
X115585118Y-119016049D01*
X115585120Y-119016049D01*
X115619362Y-118996278D01*
X115700384Y-118949501D01*
X115794501Y-118855384D01*
X115857910Y-118745556D01*
X115861049Y-118740120D01*
X115861049Y-118740118D01*
X115861051Y-118740116D01*
X115895500Y-118611550D01*
X115895500Y-118478450D01*
X115861051Y-118349884D01*
X115861049Y-118349881D01*
X115861049Y-118349879D01*
X115804387Y-118251739D01*
X115794501Y-118234616D01*
X115700384Y-118140499D01*
X115697440Y-118138799D01*
X115585119Y-118073950D01*
X115585121Y-118073950D01*
X115535235Y-118060583D01*
X115456550Y-118039500D01*
X115323450Y-118039500D01*
X115244764Y-118060583D01*
X115194879Y-118073950D01*
X115079618Y-118140497D01*
X114985497Y-118234618D01*
X114918950Y-118349879D01*
X114903696Y-118406809D01*
X114884500Y-118478450D01*
X112748984Y-118478450D01*
X112716392Y-118356814D01*
X112716390Y-118356811D01*
X112716390Y-118356809D01*
X112650503Y-118242690D01*
X112650501Y-118242688D01*
X112650500Y-118242686D01*
X112557314Y-118149500D01*
X112557311Y-118149498D01*
X112557309Y-118149496D01*
X112443189Y-118083609D01*
X112443191Y-118083609D01*
X112393799Y-118070375D01*
X112315892Y-118049500D01*
X112215479Y-118049500D01*
X112157288Y-118030593D01*
X112145475Y-118020504D01*
X111329496Y-117204525D01*
X111301719Y-117150008D01*
X111300500Y-117134521D01*
X111300500Y-116848321D01*
X111319407Y-116790130D01*
X111329490Y-116778323D01*
X111400500Y-116707314D01*
X111416561Y-116679496D01*
X111466390Y-116593190D01*
X111466390Y-116593188D01*
X111466392Y-116593186D01*
X111500500Y-116465892D01*
X111500500Y-116334108D01*
X111471297Y-116225120D01*
X111474500Y-116164022D01*
X111513005Y-116116472D01*
X111566924Y-116100500D01*
X111989563Y-116100500D01*
X111989563Y-116100499D01*
X112065989Y-116080021D01*
X112134511Y-116040460D01*
X112162485Y-116012485D01*
X112190461Y-115984511D01*
X112407222Y-115767748D01*
X112461739Y-115739970D01*
X112502847Y-115742123D01*
X112534108Y-115750500D01*
X112534109Y-115750500D01*
X112634521Y-115750500D01*
X112692712Y-115769407D01*
X112704525Y-115779496D01*
X113459540Y-116534511D01*
X113459539Y-116534511D01*
X113515489Y-116590460D01*
X113584007Y-116630019D01*
X113584011Y-116630021D01*
X113660435Y-116650499D01*
X113660437Y-116650500D01*
X113660438Y-116650500D01*
X113739562Y-116650500D01*
X113851679Y-116650500D01*
X113909870Y-116669407D01*
X113921676Y-116679490D01*
X113992686Y-116750500D01*
X113992688Y-116750501D01*
X113992690Y-116750503D01*
X114106810Y-116816390D01*
X114106808Y-116816390D01*
X114106812Y-116816391D01*
X114106814Y-116816392D01*
X114234108Y-116850500D01*
X114234110Y-116850500D01*
X114365890Y-116850500D01*
X114365892Y-116850500D01*
X114493186Y-116816392D01*
X114493188Y-116816390D01*
X114493190Y-116816390D01*
X114607309Y-116750503D01*
X114607309Y-116750502D01*
X114607314Y-116750500D01*
X114700500Y-116657314D01*
X114737522Y-116593190D01*
X114766390Y-116543190D01*
X114766390Y-116543188D01*
X114766392Y-116543186D01*
X114800500Y-116415892D01*
X114800500Y-116284108D01*
X114766392Y-116156814D01*
X114766390Y-116156811D01*
X114766390Y-116156809D01*
X114700503Y-116042690D01*
X114700501Y-116042688D01*
X114700500Y-116042686D01*
X114607314Y-115949500D01*
X114607311Y-115949498D01*
X114607309Y-115949496D01*
X114493189Y-115883609D01*
X114493191Y-115883609D01*
X114443799Y-115870375D01*
X114365892Y-115849500D01*
X114234108Y-115849500D01*
X114156200Y-115870375D01*
X114106809Y-115883609D01*
X113992690Y-115949496D01*
X113992689Y-115949497D01*
X113992686Y-115949499D01*
X113992686Y-115949500D01*
X113928580Y-116013605D01*
X113874066Y-116041381D01*
X113813634Y-116031810D01*
X113788575Y-116013604D01*
X113694475Y-115919504D01*
X113666698Y-115864987D01*
X113676269Y-115804555D01*
X113719534Y-115761290D01*
X113764479Y-115750500D01*
X113789563Y-115750500D01*
X113789563Y-115750499D01*
X113865989Y-115730021D01*
X113934511Y-115690460D01*
X113962485Y-115662485D01*
X113990461Y-115634511D01*
X114154467Y-115470504D01*
X114240460Y-115384511D01*
X114243052Y-115380021D01*
X114280021Y-115315989D01*
X114283346Y-115303579D01*
X114293236Y-115279703D01*
X114297222Y-115272798D01*
X114330022Y-115215988D01*
X114330855Y-115212878D01*
X114332464Y-115210091D01*
X114332506Y-115209990D01*
X114332519Y-115209995D01*
X114356480Y-115168490D01*
X114695476Y-114829495D01*
X114749992Y-114801718D01*
X114765479Y-114800499D01*
X115653370Y-114800499D01*
X115653372Y-114800499D01*
X115677662Y-114797682D01*
X115777016Y-114753813D01*
X115853813Y-114677016D01*
X115897682Y-114577662D01*
X115900500Y-114553373D01*
X115900499Y-113746628D01*
X115897682Y-113722338D01*
X115853813Y-113622984D01*
X115777016Y-113546187D01*
X115677662Y-113502318D01*
X115677661Y-113502317D01*
X115677659Y-113502317D01*
X115653376Y-113499500D01*
X114246630Y-113499500D01*
X114246627Y-113499501D01*
X114222338Y-113502317D01*
X114122984Y-113546187D01*
X114046187Y-113622984D01*
X114002317Y-113722340D01*
X113999500Y-113746622D01*
X113999500Y-114452679D01*
X113980593Y-114510870D01*
X113931093Y-114546834D01*
X113869907Y-114546834D01*
X113830498Y-114522684D01*
X113779494Y-114471680D01*
X113751719Y-114417166D01*
X113750500Y-114401679D01*
X113750500Y-113398321D01*
X113769407Y-113340130D01*
X113779490Y-113328323D01*
X113850500Y-113257314D01*
X113916392Y-113143186D01*
X113950500Y-113015892D01*
X113950500Y-112884108D01*
X113916392Y-112756814D01*
X113883013Y-112699000D01*
X113870292Y-112639152D01*
X113895179Y-112583256D01*
X113948167Y-112552663D01*
X113968750Y-112550500D01*
X115439563Y-112550500D01*
X115439563Y-112550499D01*
X115515989Y-112530021D01*
X115584511Y-112490460D01*
X115612485Y-112462485D01*
X115640461Y-112434511D01*
X116118491Y-111956479D01*
X116160000Y-111932514D01*
X116159996Y-111932503D01*
X116160080Y-111932468D01*
X116162872Y-111930856D01*
X116165989Y-111930021D01*
X116234511Y-111890460D01*
X116290460Y-111834511D01*
X119295475Y-108829496D01*
X119349992Y-108801719D01*
X119365479Y-108800500D01*
X120401679Y-108800500D01*
X120459870Y-108819407D01*
X120471676Y-108829490D01*
X120542686Y-108900500D01*
X120542688Y-108900501D01*
X120542690Y-108900503D01*
X120656810Y-108966390D01*
X120656808Y-108966390D01*
X120656812Y-108966391D01*
X120656814Y-108966392D01*
X120784108Y-109000500D01*
X120784110Y-109000500D01*
X120915890Y-109000500D01*
X120915892Y-109000500D01*
X121043186Y-108966392D01*
X121043188Y-108966390D01*
X121043190Y-108966390D01*
X121157309Y-108900503D01*
X121157309Y-108900502D01*
X121157314Y-108900500D01*
X121250500Y-108807314D01*
X121316392Y-108693186D01*
X121350500Y-108565892D01*
X121350500Y-108434108D01*
X121316392Y-108306814D01*
X121316390Y-108306811D01*
X121316390Y-108306809D01*
X121250503Y-108192690D01*
X121250501Y-108192688D01*
X121250500Y-108192686D01*
X121157314Y-108099500D01*
X121157311Y-108099498D01*
X121157309Y-108099496D01*
X121043189Y-108033609D01*
X121043191Y-108033609D01*
X120993799Y-108020375D01*
X120915892Y-107999500D01*
X120784108Y-107999500D01*
X120706200Y-108020375D01*
X120656809Y-108033609D01*
X120542690Y-108099496D01*
X120542689Y-108099497D01*
X120542686Y-108099499D01*
X120542686Y-108099500D01*
X120471680Y-108170505D01*
X120417166Y-108198281D01*
X120401679Y-108199500D01*
X119239562Y-108199500D01*
X119160438Y-108199500D01*
X119113661Y-108212033D01*
X119084007Y-108219979D01*
X119015493Y-108259536D01*
X119015492Y-108259537D01*
X116069503Y-111205524D01*
X116014986Y-111233301D01*
X115954554Y-111223730D01*
X115911289Y-111180465D01*
X115900499Y-111135523D01*
X115900499Y-110446628D01*
X115897682Y-110422338D01*
X115853813Y-110322984D01*
X115777016Y-110246187D01*
X115677662Y-110202318D01*
X115677661Y-110202317D01*
X115677659Y-110202317D01*
X115653376Y-110199500D01*
X114246630Y-110199500D01*
X114246627Y-110199501D01*
X114222338Y-110202317D01*
X114122984Y-110246187D01*
X114046187Y-110322984D01*
X114002317Y-110422340D01*
X113999500Y-110446622D01*
X113999500Y-111253369D01*
X113999501Y-111253372D01*
X114002317Y-111277661D01*
X114011896Y-111299354D01*
X114046187Y-111377016D01*
X114122984Y-111453813D01*
X114222338Y-111497682D01*
X114246627Y-111500500D01*
X115485521Y-111500499D01*
X115543712Y-111519406D01*
X115579676Y-111568906D01*
X115579676Y-111630092D01*
X115555525Y-111669502D01*
X115304525Y-111920503D01*
X115250008Y-111948281D01*
X115234521Y-111949500D01*
X111989562Y-111949500D01*
X111910438Y-111949500D01*
X111863661Y-111962033D01*
X111834007Y-111969979D01*
X111765493Y-112009536D01*
X111765488Y-112009540D01*
X110304522Y-113470504D01*
X110250006Y-113498281D01*
X110234519Y-113499500D01*
X109346630Y-113499500D01*
X109346627Y-113499501D01*
X109322338Y-113502317D01*
X109222984Y-113546187D01*
X109146187Y-113622984D01*
X109102317Y-113722340D01*
X109099500Y-113746622D01*
X109099500Y-114553369D01*
X109099501Y-114553372D01*
X109102317Y-114577661D01*
X109126816Y-114633146D01*
X109146187Y-114677016D01*
X109222984Y-114753813D01*
X109322338Y-114797682D01*
X109346627Y-114800500D01*
X110753372Y-114800499D01*
X110777662Y-114797682D01*
X110877016Y-114753813D01*
X110953813Y-114677016D01*
X110997682Y-114577662D01*
X111000500Y-114553373D01*
X111000499Y-113746628D01*
X110997682Y-113722338D01*
X110995963Y-113718446D01*
X110989750Y-113657579D01*
X111016519Y-113608450D01*
X112045475Y-112579496D01*
X112099992Y-112551719D01*
X112115479Y-112550500D01*
X112931250Y-112550500D01*
X112989441Y-112569407D01*
X113025405Y-112618907D01*
X113025405Y-112680093D01*
X113016987Y-112699000D01*
X112983608Y-112756812D01*
X112960869Y-112841676D01*
X112949500Y-112884108D01*
X112949500Y-113015892D01*
X112979579Y-113128151D01*
X112983609Y-113143190D01*
X113049496Y-113257309D01*
X113049498Y-113257311D01*
X113049500Y-113257314D01*
X113120505Y-113328319D01*
X113148281Y-113382834D01*
X113149500Y-113398321D01*
X113149500Y-114401679D01*
X113130593Y-114459870D01*
X113120509Y-114471676D01*
X113081316Y-114510870D01*
X113049497Y-114542689D01*
X113049496Y-114542690D01*
X112983609Y-114656809D01*
X112962067Y-114737208D01*
X112928743Y-114788522D01*
X112871621Y-114810449D01*
X112816941Y-114797322D01*
X112793189Y-114783609D01*
X112793186Y-114783608D01*
X112665892Y-114749500D01*
X112534108Y-114749500D01*
X112456200Y-114770375D01*
X112406809Y-114783609D01*
X112292690Y-114849496D01*
X112199496Y-114942690D01*
X112133609Y-115056809D01*
X112099500Y-115184109D01*
X112099500Y-115184521D01*
X112099408Y-115184801D01*
X112098653Y-115190542D01*
X112097589Y-115190401D01*
X112080593Y-115242712D01*
X112070504Y-115254525D01*
X111854525Y-115470504D01*
X111800008Y-115498281D01*
X111784521Y-115499500D01*
X110789562Y-115499500D01*
X110710438Y-115499500D01*
X110672225Y-115509739D01*
X110634010Y-115519978D01*
X110570300Y-115556762D01*
X110546426Y-115566651D01*
X110534012Y-115569977D01*
X110534008Y-115569979D01*
X110465493Y-115609536D01*
X110465488Y-115609540D01*
X110254524Y-115820504D01*
X110200008Y-115848281D01*
X110184521Y-115849500D01*
X110134108Y-115849500D01*
X110056200Y-115870375D01*
X110006809Y-115883609D01*
X109892690Y-115949496D01*
X109799496Y-116042690D01*
X109733609Y-116156809D01*
X109699500Y-116284109D01*
X109699500Y-116415891D01*
X109700347Y-116422324D01*
X109698003Y-116422632D01*
X109695332Y-116473431D01*
X109656818Y-116520974D01*
X109597715Y-116536799D01*
X109540598Y-116514862D01*
X109532920Y-116507949D01*
X109434511Y-116409540D01*
X109411308Y-116396144D01*
X109382575Y-116379555D01*
X109365988Y-116369978D01*
X109289564Y-116349500D01*
X109289562Y-116349500D01*
X107310438Y-116349500D01*
X107310435Y-116349500D01*
X107234011Y-116369978D01*
X107188694Y-116396143D01*
X107188693Y-116396143D01*
X107165489Y-116409539D01*
X106622576Y-116952451D01*
X106568060Y-116980228D01*
X106507628Y-116970657D01*
X106503073Y-116968183D01*
X106443189Y-116933609D01*
X106443191Y-116933609D01*
X106393799Y-116920375D01*
X106315892Y-116899500D01*
X106184108Y-116899500D01*
X106106200Y-116920375D01*
X106056809Y-116933609D01*
X105942690Y-116999496D01*
X105849496Y-117092690D01*
X105783609Y-117206809D01*
X105783608Y-117206814D01*
X105749500Y-117334108D01*
X100500500Y-117334108D01*
X100500500Y-110975001D01*
X109050000Y-110975001D01*
X109050000Y-111249838D01*
X109056519Y-111299354D01*
X109056521Y-111299361D01*
X109107190Y-111408021D01*
X109191978Y-111492809D01*
X109300638Y-111543478D01*
X109300645Y-111543480D01*
X109350161Y-111550000D01*
X109924999Y-111550000D01*
X109925000Y-111549999D01*
X109925000Y-110975001D01*
X110175000Y-110975001D01*
X110175000Y-111549999D01*
X110175001Y-111550000D01*
X110749838Y-111550000D01*
X110799354Y-111543480D01*
X110799361Y-111543478D01*
X110908021Y-111492809D01*
X110992809Y-111408021D01*
X111043478Y-111299361D01*
X111043480Y-111299354D01*
X111050000Y-111249838D01*
X111050000Y-110975001D01*
X111049999Y-110975000D01*
X110175001Y-110975000D01*
X110175000Y-110975001D01*
X109925000Y-110975001D01*
X109924999Y-110975000D01*
X109050001Y-110975000D01*
X109050000Y-110975001D01*
X100500500Y-110975001D01*
X100500500Y-110450161D01*
X109050000Y-110450161D01*
X109050000Y-110724999D01*
X109050001Y-110725000D01*
X109924999Y-110725000D01*
X109925000Y-110724999D01*
X109925000Y-110150001D01*
X110175000Y-110150001D01*
X110175000Y-110724999D01*
X110175001Y-110725000D01*
X111049999Y-110725000D01*
X111050000Y-110724999D01*
X111050000Y-110450161D01*
X111043480Y-110400645D01*
X111043478Y-110400638D01*
X110992809Y-110291978D01*
X110908021Y-110207190D01*
X110799361Y-110156521D01*
X110799354Y-110156519D01*
X110749839Y-110150000D01*
X110175001Y-110150000D01*
X110175000Y-110150001D01*
X109925000Y-110150001D01*
X109924999Y-110150000D01*
X109350161Y-110150000D01*
X109300645Y-110156519D01*
X109300638Y-110156521D01*
X109191978Y-110207190D01*
X109107190Y-110291978D01*
X109056521Y-110400638D01*
X109056519Y-110400645D01*
X109050000Y-110450161D01*
X100500500Y-110450161D01*
X100500500Y-102599218D01*
X101419500Y-102599218D01*
X101419500Y-102800781D01*
X101451028Y-102999846D01*
X101451030Y-102999851D01*
X101513314Y-103191542D01*
X101604818Y-103371129D01*
X101723289Y-103534190D01*
X101865810Y-103676711D01*
X102028871Y-103795182D01*
X102208458Y-103886686D01*
X102400149Y-103948970D01*
X102400150Y-103948970D01*
X102400153Y-103948971D01*
X102599219Y-103980500D01*
X102599222Y-103980500D01*
X102800781Y-103980500D01*
X102999846Y-103948971D01*
X102999847Y-103948970D01*
X102999851Y-103948970D01*
X103191542Y-103886686D01*
X103371129Y-103795182D01*
X103534190Y-103676711D01*
X103676711Y-103534190D01*
X103795182Y-103371129D01*
X103886686Y-103191542D01*
X103948970Y-102999851D01*
X103980500Y-102800778D01*
X103980500Y-102599222D01*
X103980500Y-102599218D01*
X121019500Y-102599218D01*
X121019500Y-102800781D01*
X121051028Y-102999846D01*
X121051030Y-102999851D01*
X121113314Y-103191542D01*
X121204818Y-103371129D01*
X121323289Y-103534190D01*
X121465810Y-103676711D01*
X121628871Y-103795182D01*
X121808458Y-103886686D01*
X122000149Y-103948970D01*
X122000150Y-103948970D01*
X122000153Y-103948971D01*
X122199219Y-103980500D01*
X122199222Y-103980500D01*
X122400781Y-103980500D01*
X122599846Y-103948971D01*
X122599847Y-103948970D01*
X122599851Y-103948970D01*
X122791542Y-103886686D01*
X122971129Y-103795182D01*
X123134190Y-103676711D01*
X123276711Y-103534190D01*
X123395182Y-103371129D01*
X123486686Y-103191542D01*
X123548970Y-102999851D01*
X123580500Y-102800778D01*
X123580500Y-102599222D01*
X123580500Y-102599218D01*
X123548971Y-102400153D01*
X123548970Y-102400149D01*
X123486686Y-102208458D01*
X123395182Y-102028871D01*
X123276711Y-101865810D01*
X123134190Y-101723289D01*
X122971129Y-101604818D01*
X122971128Y-101604817D01*
X122971126Y-101604816D01*
X122791542Y-101513314D01*
X122599846Y-101451028D01*
X122400781Y-101419500D01*
X122400778Y-101419500D01*
X122199222Y-101419500D01*
X122199219Y-101419500D01*
X122000153Y-101451028D01*
X121808457Y-101513314D01*
X121628873Y-101604816D01*
X121465811Y-101723288D01*
X121323288Y-101865811D01*
X121204816Y-102028873D01*
X121113314Y-102208457D01*
X121051028Y-102400153D01*
X121019500Y-102599218D01*
X103980500Y-102599218D01*
X103948971Y-102400153D01*
X103948970Y-102400149D01*
X103886686Y-102208458D01*
X103795182Y-102028871D01*
X103676711Y-101865810D01*
X103534190Y-101723289D01*
X103371129Y-101604818D01*
X103371128Y-101604817D01*
X103371126Y-101604816D01*
X103191542Y-101513314D01*
X102999846Y-101451028D01*
X102800781Y-101419500D01*
X102800778Y-101419500D01*
X102599222Y-101419500D01*
X102599219Y-101419500D01*
X102400153Y-101451028D01*
X102208457Y-101513314D01*
X102028873Y-101604816D01*
X101865811Y-101723288D01*
X101723288Y-101865811D01*
X101604816Y-102028873D01*
X101513314Y-102208457D01*
X101451028Y-102400153D01*
X101419500Y-102599218D01*
X100500500Y-102599218D01*
X100500500Y-101005563D01*
X100501122Y-100994480D01*
X100511774Y-100899932D01*
X100511775Y-100899931D01*
X100511774Y-100899928D01*
X100516705Y-100878324D01*
X100546283Y-100793798D01*
X100555899Y-100773832D01*
X100603542Y-100698008D01*
X100617357Y-100680684D01*
X100680684Y-100617357D01*
X100698008Y-100603542D01*
X100773834Y-100555897D01*
X100793798Y-100546283D01*
X100878324Y-100516705D01*
X100899928Y-100511774D01*
X100980091Y-100502743D01*
X100994480Y-100501122D01*
X101005563Y-100500500D01*
X101065892Y-100500500D01*
X123934108Y-100500500D01*
X123994437Y-100500500D01*
X124005520Y-100501121D01*
G37*
%TD.AperFunction*%
%TD*%
M02*
