%TF.GenerationSoftware,KiCad,Pcbnew,10.0.6*%
%TF.CreationDate,2026-09-05T19:52:01+08:00*%
%TF.ProjectId,sl25,736c3235-2e6b-4696-9361-645f70636258,B*%
%TF.SameCoordinates,Original*%
%TF.FileFunction,Legend,Top*%
%TF.FilePolarity,Positive*%
%FSLAX46Y46*%
G04 Gerber Fmt 4.6, Leading zero omitted, Abs format (unit mm)*
G04 Created by KiCad (PCBNEW 10.0.6) date 2026-09-05 19:52:01*
%MOMM*%
%LPD*%
G01*
G04 APERTURE LIST*
%ADD10C,0.120000*%
%ADD11C,0.100000*%
%ADD12C,0.150000*%
G04 APERTURE END LIST*
D10*
X109071427Y-102625760D02*
X109185713Y-102663855D01*
X109185713Y-102663855D02*
X109376189Y-102663855D01*
X109376189Y-102663855D02*
X109452380Y-102625760D01*
X109452380Y-102625760D02*
X109490475Y-102587664D01*
X109490475Y-102587664D02*
X109528570Y-102511474D01*
X109528570Y-102511474D02*
X109528570Y-102435283D01*
X109528570Y-102435283D02*
X109490475Y-102359093D01*
X109490475Y-102359093D02*
X109452380Y-102320998D01*
X109452380Y-102320998D02*
X109376189Y-102282902D01*
X109376189Y-102282902D02*
X109223808Y-102244807D01*
X109223808Y-102244807D02*
X109147618Y-102206712D01*
X109147618Y-102206712D02*
X109109523Y-102168617D01*
X109109523Y-102168617D02*
X109071427Y-102092426D01*
X109071427Y-102092426D02*
X109071427Y-102016236D01*
X109071427Y-102016236D02*
X109109523Y-101940045D01*
X109109523Y-101940045D02*
X109147618Y-101901950D01*
X109147618Y-101901950D02*
X109223808Y-101863855D01*
X109223808Y-101863855D02*
X109414285Y-101863855D01*
X109414285Y-101863855D02*
X109528570Y-101901950D01*
X110252380Y-102663855D02*
X109871428Y-102663855D01*
X109871428Y-102663855D02*
X109871428Y-101863855D01*
X110480951Y-101940045D02*
X110519047Y-101901950D01*
X110519047Y-101901950D02*
X110595237Y-101863855D01*
X110595237Y-101863855D02*
X110785713Y-101863855D01*
X110785713Y-101863855D02*
X110861904Y-101901950D01*
X110861904Y-101901950D02*
X110899999Y-101940045D01*
X110899999Y-101940045D02*
X110938094Y-102016236D01*
X110938094Y-102016236D02*
X110938094Y-102092426D01*
X110938094Y-102092426D02*
X110899999Y-102206712D01*
X110899999Y-102206712D02*
X110442856Y-102663855D01*
X110442856Y-102663855D02*
X110938094Y-102663855D01*
X111661904Y-101863855D02*
X111280952Y-101863855D01*
X111280952Y-101863855D02*
X111242856Y-102244807D01*
X111242856Y-102244807D02*
X111280952Y-102206712D01*
X111280952Y-102206712D02*
X111357142Y-102168617D01*
X111357142Y-102168617D02*
X111547618Y-102168617D01*
X111547618Y-102168617D02*
X111623809Y-102206712D01*
X111623809Y-102206712D02*
X111661904Y-102244807D01*
X111661904Y-102244807D02*
X111699999Y-102320998D01*
X111699999Y-102320998D02*
X111699999Y-102511474D01*
X111699999Y-102511474D02*
X111661904Y-102587664D01*
X111661904Y-102587664D02*
X111623809Y-102625760D01*
X111623809Y-102625760D02*
X111547618Y-102663855D01*
X111547618Y-102663855D02*
X111357142Y-102663855D01*
X111357142Y-102663855D02*
X111280952Y-102625760D01*
X111280952Y-102625760D02*
X111242856Y-102587664D01*
X113109524Y-102663855D02*
X112842857Y-102282902D01*
X112652381Y-102663855D02*
X112652381Y-101863855D01*
X112652381Y-101863855D02*
X112957143Y-101863855D01*
X112957143Y-101863855D02*
X113033333Y-101901950D01*
X113033333Y-101901950D02*
X113071428Y-101940045D01*
X113071428Y-101940045D02*
X113109524Y-102016236D01*
X113109524Y-102016236D02*
X113109524Y-102130521D01*
X113109524Y-102130521D02*
X113071428Y-102206712D01*
X113071428Y-102206712D02*
X113033333Y-102244807D01*
X113033333Y-102244807D02*
X112957143Y-102282902D01*
X112957143Y-102282902D02*
X112652381Y-102282902D01*
X113452381Y-102244807D02*
X113719047Y-102244807D01*
X113833333Y-102663855D02*
X113452381Y-102663855D01*
X113452381Y-102663855D02*
X113452381Y-101863855D01*
X113452381Y-101863855D02*
X113833333Y-101863855D01*
X114061905Y-101863855D02*
X114328572Y-102663855D01*
X114328572Y-102663855D02*
X114595238Y-101863855D01*
X115738095Y-102244807D02*
X115852381Y-102282902D01*
X115852381Y-102282902D02*
X115890476Y-102320998D01*
X115890476Y-102320998D02*
X115928572Y-102397188D01*
X115928572Y-102397188D02*
X115928572Y-102511474D01*
X115928572Y-102511474D02*
X115890476Y-102587664D01*
X115890476Y-102587664D02*
X115852381Y-102625760D01*
X115852381Y-102625760D02*
X115776191Y-102663855D01*
X115776191Y-102663855D02*
X115471429Y-102663855D01*
X115471429Y-102663855D02*
X115471429Y-101863855D01*
X115471429Y-101863855D02*
X115738095Y-101863855D01*
X115738095Y-101863855D02*
X115814286Y-101901950D01*
X115814286Y-101901950D02*
X115852381Y-101940045D01*
X115852381Y-101940045D02*
X115890476Y-102016236D01*
X115890476Y-102016236D02*
X115890476Y-102092426D01*
X115890476Y-102092426D02*
X115852381Y-102168617D01*
X115852381Y-102168617D02*
X115814286Y-102206712D01*
X115814286Y-102206712D02*
X115738095Y-102244807D01*
X115738095Y-102244807D02*
X115471429Y-102244807D01*
X109395238Y-121287664D02*
X109357142Y-121325760D01*
X109357142Y-121325760D02*
X109242857Y-121363855D01*
X109242857Y-121363855D02*
X109166666Y-121363855D01*
X109166666Y-121363855D02*
X109052380Y-121325760D01*
X109052380Y-121325760D02*
X108976190Y-121249569D01*
X108976190Y-121249569D02*
X108938095Y-121173379D01*
X108938095Y-121173379D02*
X108899999Y-121020998D01*
X108899999Y-121020998D02*
X108899999Y-120906712D01*
X108899999Y-120906712D02*
X108938095Y-120754331D01*
X108938095Y-120754331D02*
X108976190Y-120678140D01*
X108976190Y-120678140D02*
X109052380Y-120601950D01*
X109052380Y-120601950D02*
X109166666Y-120563855D01*
X109166666Y-120563855D02*
X109242857Y-120563855D01*
X109242857Y-120563855D02*
X109357142Y-120601950D01*
X109357142Y-120601950D02*
X109395238Y-120640045D01*
X109738095Y-120944807D02*
X110004761Y-120944807D01*
X110119047Y-121363855D02*
X109738095Y-121363855D01*
X109738095Y-121363855D02*
X109738095Y-120563855D01*
X109738095Y-120563855D02*
X110119047Y-120563855D01*
X110461905Y-121363855D02*
X110461905Y-120563855D01*
X110461905Y-120563855D02*
X110919048Y-121363855D01*
X110919048Y-121363855D02*
X110919048Y-120563855D01*
X111185714Y-120563855D02*
X111642857Y-120563855D01*
X111414285Y-121363855D02*
X111414285Y-120563855D01*
X111909524Y-120944807D02*
X112176190Y-120944807D01*
X112290476Y-121363855D02*
X111909524Y-121363855D01*
X111909524Y-121363855D02*
X111909524Y-120563855D01*
X111909524Y-120563855D02*
X112290476Y-120563855D01*
X113090477Y-121363855D02*
X112823810Y-120982902D01*
X112633334Y-121363855D02*
X112633334Y-120563855D01*
X112633334Y-120563855D02*
X112938096Y-120563855D01*
X112938096Y-120563855D02*
X113014286Y-120601950D01*
X113014286Y-120601950D02*
X113052381Y-120640045D01*
X113052381Y-120640045D02*
X113090477Y-120716236D01*
X113090477Y-120716236D02*
X113090477Y-120830521D01*
X113090477Y-120830521D02*
X113052381Y-120906712D01*
X113052381Y-120906712D02*
X113014286Y-120944807D01*
X113014286Y-120944807D02*
X112938096Y-120982902D01*
X112938096Y-120982902D02*
X112633334Y-120982902D01*
X114500001Y-121363855D02*
X114233334Y-120982902D01*
X114042858Y-121363855D02*
X114042858Y-120563855D01*
X114042858Y-120563855D02*
X114347620Y-120563855D01*
X114347620Y-120563855D02*
X114423810Y-120601950D01*
X114423810Y-120601950D02*
X114461905Y-120640045D01*
X114461905Y-120640045D02*
X114500001Y-120716236D01*
X114500001Y-120716236D02*
X114500001Y-120830521D01*
X114500001Y-120830521D02*
X114461905Y-120906712D01*
X114461905Y-120906712D02*
X114423810Y-120944807D01*
X114423810Y-120944807D02*
X114347620Y-120982902D01*
X114347620Y-120982902D02*
X114042858Y-120982902D01*
X115261905Y-120601950D02*
X115185715Y-120563855D01*
X115185715Y-120563855D02*
X115071429Y-120563855D01*
X115071429Y-120563855D02*
X114957143Y-120601950D01*
X114957143Y-120601950D02*
X114880953Y-120678140D01*
X114880953Y-120678140D02*
X114842858Y-120754331D01*
X114842858Y-120754331D02*
X114804762Y-120906712D01*
X114804762Y-120906712D02*
X114804762Y-121020998D01*
X114804762Y-121020998D02*
X114842858Y-121173379D01*
X114842858Y-121173379D02*
X114880953Y-121249569D01*
X114880953Y-121249569D02*
X114957143Y-121325760D01*
X114957143Y-121325760D02*
X115071429Y-121363855D01*
X115071429Y-121363855D02*
X115147620Y-121363855D01*
X115147620Y-121363855D02*
X115261905Y-121325760D01*
X115261905Y-121325760D02*
X115300001Y-121287664D01*
X115300001Y-121287664D02*
X115300001Y-121020998D01*
X115300001Y-121020998D02*
X115147620Y-121020998D01*
X115909524Y-120944807D02*
X116023810Y-120982902D01*
X116023810Y-120982902D02*
X116061905Y-121020998D01*
X116061905Y-121020998D02*
X116100001Y-121097188D01*
X116100001Y-121097188D02*
X116100001Y-121211474D01*
X116100001Y-121211474D02*
X116061905Y-121287664D01*
X116061905Y-121287664D02*
X116023810Y-121325760D01*
X116023810Y-121325760D02*
X115947620Y-121363855D01*
X115947620Y-121363855D02*
X115642858Y-121363855D01*
X115642858Y-121363855D02*
X115642858Y-120563855D01*
X115642858Y-120563855D02*
X115909524Y-120563855D01*
X115909524Y-120563855D02*
X115985715Y-120601950D01*
X115985715Y-120601950D02*
X116023810Y-120640045D01*
X116023810Y-120640045D02*
X116061905Y-120716236D01*
X116061905Y-120716236D02*
X116061905Y-120792426D01*
X116061905Y-120792426D02*
X116023810Y-120868617D01*
X116023810Y-120868617D02*
X115985715Y-120906712D01*
X115985715Y-120906712D02*
X115909524Y-120944807D01*
X115909524Y-120944807D02*
X115642858Y-120944807D01*
D11*
X111909524Y-109164895D02*
X111909524Y-108364895D01*
X111909524Y-108364895D02*
X112100000Y-108364895D01*
X112100000Y-108364895D02*
X112214286Y-108402990D01*
X112214286Y-108402990D02*
X112290476Y-108479180D01*
X112290476Y-108479180D02*
X112328571Y-108555371D01*
X112328571Y-108555371D02*
X112366667Y-108707752D01*
X112366667Y-108707752D02*
X112366667Y-108822038D01*
X112366667Y-108822038D02*
X112328571Y-108974419D01*
X112328571Y-108974419D02*
X112290476Y-109050609D01*
X112290476Y-109050609D02*
X112214286Y-109126800D01*
X112214286Y-109126800D02*
X112100000Y-109164895D01*
X112100000Y-109164895D02*
X111909524Y-109164895D01*
X113128571Y-109164895D02*
X112671428Y-109164895D01*
X112900000Y-109164895D02*
X112900000Y-108364895D01*
X112900000Y-108364895D02*
X112823809Y-108479180D01*
X112823809Y-108479180D02*
X112747619Y-108555371D01*
X112747619Y-108555371D02*
X112671428Y-108593466D01*
D12*
X116271428Y-113737704D02*
X116728571Y-113737704D01*
X116499999Y-113737704D02*
X116499999Y-114537704D01*
X116499999Y-114537704D02*
X116576190Y-114423419D01*
X116576190Y-114423419D02*
X116652380Y-114347228D01*
X116652380Y-114347228D02*
X116728571Y-114309133D01*
%TO.C,D1*%
D10*
X109000000Y-110200000D02*
X109000000Y-115250000D01*
X109450000Y-109750000D02*
X109000000Y-110200000D01*
X109800000Y-111600000D02*
X109800000Y-113400000D01*
X115200000Y-111600000D02*
X115200000Y-113400000D01*
X116000000Y-109750000D02*
X109450000Y-109750000D01*
X116000000Y-115250000D02*
X109000000Y-115250000D01*
X116000000Y-115250000D02*
X116000000Y-109750000D01*
%TD*%
M02*
