%TF.GenerationSoftware,KiCad,Pcbnew,10.0.6*%
%TF.CreationDate,2026-09-05T19:52:01+08:00*%
%TF.ProjectId,sl25,736c3235-2e6b-4696-9361-645f70636258,B*%
%TF.SameCoordinates,Original*%
%TF.FileFunction,Soldermask,Bot*%
%TF.FilePolarity,Negative*%
%FSLAX46Y46*%
G04 Gerber Fmt 4.6, Leading zero omitted, Abs format (unit mm)*
G04 Created by KiCad (PCBNEW 10.0.6) date 2026-09-05 19:52:01*
%MOMM*%
%LPD*%
G01*
G04 APERTURE LIST*
G04 Aperture macros list*
%AMRoundRect*
0 Rectangle with rounded corners*
0 $1 Rounding radius*
0 $2 $3 $4 $5 $6 $7 $8 $9 X,Y pos of 4 corners*
0 Add a 4 corners polygon primitive as box body*
4,1,4,$2,$3,$4,$5,$6,$7,$8,$9,$2,$3,0*
0 Add four circle primitives for the rounded corners*
1,1,$1+$1,$2,$3*
1,1,$1+$1,$4,$5*
1,1,$1+$1,$6,$7*
1,1,$1+$1,$8,$9*
0 Add four rect primitives between the rounded corners*
20,1,$1+$1,$2,$3,$4,$5,0*
20,1,$1+$1,$4,$5,$6,$7,0*
20,1,$1+$1,$6,$7,$8,$9,0*
20,1,$1+$1,$8,$9,$2,$3,0*%
%AMFreePoly0*
4,1,23,0.500000,-0.750000,0.000000,-0.750000,0.000000,-0.745722,-0.065263,-0.745722,-0.191342,-0.711940,-0.304381,-0.646677,-0.396677,-0.554381,-0.461940,-0.441342,-0.495722,-0.315263,-0.495722,-0.250000,-0.500000,-0.250000,-0.500000,0.250000,-0.495722,0.250000,-0.495722,0.315263,-0.461940,0.441342,-0.396677,0.554381,-0.304381,0.646677,-0.191342,0.711940,-0.065263,0.745722,0.000000,0.745722,
0.000000,0.750000,0.500000,0.750000,0.500000,-0.750000,0.500000,-0.750000,$1*%
%AMFreePoly1*
4,1,23,0.000000,0.745722,0.065263,0.745722,0.191342,0.711940,0.304381,0.646677,0.396677,0.554381,0.461940,0.441342,0.495722,0.315263,0.495722,0.250000,0.500000,0.250000,0.500000,-0.250000,0.495722,-0.250000,0.495722,-0.315263,0.461940,-0.441342,0.396677,-0.554381,0.304381,-0.646677,0.191342,-0.711940,0.065263,-0.745722,0.000000,-0.745722,0.000000,-0.750000,-0.500000,-0.750000,
-0.500000,0.750000,0.000000,0.750000,0.000000,0.745722,0.000000,0.745722,$1*%
G04 Aperture macros list end*
%ADD10C,2.200000*%
%ADD11RoundRect,0.250000X0.250000X0.475000X-0.250000X0.475000X-0.250000X-0.475000X0.250000X-0.475000X0*%
%ADD12RoundRect,0.250000X0.475000X-0.250000X0.475000X0.250000X-0.475000X0.250000X-0.475000X-0.250000X0*%
%ADD13RoundRect,0.250000X0.262500X0.450000X-0.262500X0.450000X-0.262500X-0.450000X0.262500X-0.450000X0*%
%ADD14RoundRect,0.150000X-0.150000X0.512500X-0.150000X-0.512500X0.150000X-0.512500X0.150000X0.512500X0*%
%ADD15C,1.000000*%
%ADD16C,0.650000*%
%ADD17RoundRect,0.150000X0.150000X0.425000X-0.150000X0.425000X-0.150000X-0.425000X0.150000X-0.425000X0*%
%ADD18RoundRect,0.075000X0.075000X0.500000X-0.075000X0.500000X-0.075000X-0.500000X0.075000X-0.500000X0*%
%ADD19O,1.000000X1.800000*%
%ADD20O,1.000000X2.100000*%
%ADD21FreePoly0,180.000000*%
%ADD22FreePoly1,180.000000*%
%ADD23RoundRect,0.150000X-0.150000X0.825000X-0.150000X-0.825000X0.150000X-0.825000X0.150000X0.825000X0*%
G04 APERTURE END LIST*
%TO.C,JP1*%
G36*
X120550000Y-113650000D02*
G01*
X120850000Y-113650000D01*
X120850000Y-115150000D01*
X120550000Y-115150000D01*
X120550000Y-113650000D01*
G37*
%TD*%
D10*
%TO.C,H2*%
X122300000Y-102700000D03*
%TD*%
%TO.C,H1*%
X102700000Y-102700000D03*
%TD*%
D11*
%TO.C,C3*%
X121950000Y-121000000D03*
X120050000Y-121000000D03*
%TD*%
D12*
%TO.C,C2*%
X105300000Y-111950000D03*
X105300000Y-110050000D03*
%TD*%
D13*
%TO.C,R4*%
X121612500Y-108500000D03*
X119787500Y-108500000D03*
%TD*%
D12*
%TO.C,C5*%
X117200000Y-114250000D03*
X117200000Y-112350000D03*
%TD*%
D13*
%TO.C,R6*%
X121612500Y-111500000D03*
X119787500Y-111500000D03*
%TD*%
D14*
%TO.C,U2*%
X111550000Y-112962500D03*
X112500000Y-112962500D03*
X113450000Y-112962500D03*
X113450000Y-115237500D03*
X112500000Y-115237500D03*
X111550000Y-115237500D03*
%TD*%
D15*
%TO.C,TP3*%
X106500000Y-102000000D03*
%TD*%
D16*
%TO.C,J1*%
X115390000Y-118545000D03*
X109610000Y-118545000D03*
D17*
X115700000Y-117470000D03*
X114900000Y-117470000D03*
D18*
X113750000Y-117470000D03*
X112750000Y-117470000D03*
X112250000Y-117470000D03*
X111250000Y-117470000D03*
D17*
X110100000Y-117470000D03*
X109300000Y-117470000D03*
X109300000Y-117470000D03*
X110100000Y-117470000D03*
D18*
X110750000Y-117470000D03*
X111750000Y-117470000D03*
X113250000Y-117470000D03*
X114250000Y-117470000D03*
D17*
X114900000Y-117470000D03*
X115700000Y-117470000D03*
D19*
X116820000Y-122225000D03*
D20*
X116820000Y-118045000D03*
D19*
X108180000Y-122225000D03*
D20*
X108180000Y-118045000D03*
%TD*%
D15*
%TO.C,TP2*%
X105000000Y-121500000D03*
%TD*%
D11*
%TO.C,C1*%
X109450000Y-111800000D03*
X107550000Y-111800000D03*
%TD*%
D15*
%TO.C,TP1*%
X103000000Y-121500000D03*
%TD*%
D13*
%TO.C,R1*%
X121112500Y-117400000D03*
X119287500Y-117400000D03*
%TD*%
D15*
%TO.C,TP6*%
X118500000Y-102000000D03*
%TD*%
D21*
%TO.C,JP1*%
X121350000Y-114400000D03*
D22*
X120050000Y-114400000D03*
%TD*%
D13*
%TO.C,R7*%
X104412500Y-107800000D03*
X102587500Y-107800000D03*
%TD*%
D11*
%TO.C,C4*%
X109250000Y-114700000D03*
X107350000Y-114700000D03*
%TD*%
D23*
%TO.C,U1*%
X108055000Y-104325000D03*
X109325000Y-104325000D03*
X110595000Y-104325000D03*
X111865000Y-104325000D03*
X113135000Y-104325000D03*
X114405000Y-104325000D03*
X115675000Y-104325000D03*
X116945000Y-104325000D03*
X116945000Y-109275000D03*
X115675000Y-109275000D03*
X114405000Y-109275000D03*
X113135000Y-109275000D03*
X111865000Y-109275000D03*
X110595000Y-109275000D03*
X109325000Y-109275000D03*
X108055000Y-109275000D03*
%TD*%
D15*
%TO.C,TP5*%
X116000000Y-101800000D03*
%TD*%
%TO.C,TP4*%
X109000000Y-101800000D03*
%TD*%
D13*
%TO.C,R3*%
X121612500Y-105500000D03*
X119787500Y-105500000D03*
%TD*%
%TO.C,R2*%
X106012500Y-117400000D03*
X104187500Y-117400000D03*
%TD*%
M02*
