%TF.GenerationSoftware,KiCad,Pcbnew,10.0.6*%
%TF.CreationDate,2026-09-05T19:52:01+08:00*%
%TF.ProjectId,sl25,736c3235-2e6b-4696-9361-645f70636258,B*%
%TF.SameCoordinates,Original*%
%TF.FileFunction,Paste,Bot*%
%TF.FilePolarity,Positive*%
%FSLAX46Y46*%
G04 Gerber Fmt 4.6, Leading zero omitted, Abs format (unit mm)*
G04 Created by KiCad (PCBNEW 10.0.6) date 2026-09-05 19:52:01*
%MOMM*%
%LPD*%
G01*
G04 APERTURE LIST*
G04 Aperture macros list*
%AMRoundRect*
0 Rectangle with rounded corners*
0 $1 Rounding radius*
0 $2 $3 $4 $5 $6 $7 $8 $9 X,Y pos of 4 corners*
0 Add a 4 corners polygon primitive as box body*
4,1,4,$2,$3,$4,$5,$6,$7,$8,$9,$2,$3,0*
0 Add four circle primitives for the rounded corners*
1,1,$1+$1,$2,$3*
1,1,$1+$1,$4,$5*
1,1,$1+$1,$6,$7*
1,1,$1+$1,$8,$9*
0 Add four rect primitives between the rounded corners*
20,1,$1+$1,$2,$3,$4,$5,0*
20,1,$1+$1,$4,$5,$6,$7,0*
20,1,$1+$1,$6,$7,$8,$9,0*
20,1,$1+$1,$8,$9,$2,$3,0*%
G04 Aperture macros list end*
%ADD10RoundRect,0.250000X0.250000X0.475000X-0.250000X0.475000X-0.250000X-0.475000X0.250000X-0.475000X0*%
%ADD11RoundRect,0.250000X0.475000X-0.250000X0.475000X0.250000X-0.475000X0.250000X-0.475000X-0.250000X0*%
%ADD12RoundRect,0.250000X0.262500X0.450000X-0.262500X0.450000X-0.262500X-0.450000X0.262500X-0.450000X0*%
%ADD13RoundRect,0.150000X-0.150000X0.512500X-0.150000X-0.512500X0.150000X-0.512500X0.150000X0.512500X0*%
%ADD14RoundRect,0.150000X0.150000X0.425000X-0.150000X0.425000X-0.150000X-0.425000X0.150000X-0.425000X0*%
%ADD15RoundRect,0.075000X0.075000X0.500000X-0.075000X0.500000X-0.075000X-0.500000X0.075000X-0.500000X0*%
%ADD16O,1.000000X1.800000*%
%ADD17O,1.000000X2.100000*%
%ADD18RoundRect,0.150000X-0.150000X0.825000X-0.150000X-0.825000X0.150000X-0.825000X0.150000X0.825000X0*%
G04 APERTURE END LIST*
D10*
%TO.C,C3*%
X121950000Y-121000000D03*
X120050000Y-121000000D03*
%TD*%
D11*
%TO.C,C2*%
X105300000Y-111950000D03*
X105300000Y-110050000D03*
%TD*%
D12*
%TO.C,R4*%
X121612500Y-108500000D03*
X119787500Y-108500000D03*
%TD*%
D11*
%TO.C,C5*%
X117200000Y-114250000D03*
X117200000Y-112350000D03*
%TD*%
D12*
%TO.C,R6*%
X121612500Y-111500000D03*
X119787500Y-111500000D03*
%TD*%
D13*
%TO.C,U2*%
X111550000Y-112962500D03*
X112500000Y-112962500D03*
X113450000Y-112962500D03*
X113450000Y-115237500D03*
X112500000Y-115237500D03*
X111550000Y-115237500D03*
%TD*%
D14*
%TO.C,J1*%
X115700000Y-117470000D03*
X114900000Y-117470000D03*
D15*
X113750000Y-117470000D03*
X112750000Y-117470000D03*
X112250000Y-117470000D03*
X111250000Y-117470000D03*
D14*
X110100000Y-117470000D03*
X109300000Y-117470000D03*
X109300000Y-117470000D03*
X110100000Y-117470000D03*
D15*
X110750000Y-117470000D03*
X111750000Y-117470000D03*
X113250000Y-117470000D03*
X114250000Y-117470000D03*
D14*
X114900000Y-117470000D03*
X115700000Y-117470000D03*
D16*
X116820000Y-122225000D03*
D17*
X116820000Y-118045000D03*
D16*
X108180000Y-122225000D03*
D17*
X108180000Y-118045000D03*
%TD*%
D10*
%TO.C,C1*%
X109450000Y-111800000D03*
X107550000Y-111800000D03*
%TD*%
D12*
%TO.C,R1*%
X121112500Y-117400000D03*
X119287500Y-117400000D03*
%TD*%
%TO.C,R7*%
X104412500Y-107800000D03*
X102587500Y-107800000D03*
%TD*%
D10*
%TO.C,C4*%
X109250000Y-114700000D03*
X107350000Y-114700000D03*
%TD*%
D18*
%TO.C,U1*%
X108055000Y-104325000D03*
X109325000Y-104325000D03*
X110595000Y-104325000D03*
X111865000Y-104325000D03*
X113135000Y-104325000D03*
X114405000Y-104325000D03*
X115675000Y-104325000D03*
X116945000Y-104325000D03*
X116945000Y-109275000D03*
X115675000Y-109275000D03*
X114405000Y-109275000D03*
X113135000Y-109275000D03*
X111865000Y-109275000D03*
X110595000Y-109275000D03*
X109325000Y-109275000D03*
X108055000Y-109275000D03*
%TD*%
D12*
%TO.C,R3*%
X121612500Y-105500000D03*
X119787500Y-105500000D03*
%TD*%
%TO.C,R2*%
X106012500Y-117400000D03*
X104187500Y-117400000D03*
%TD*%
M02*
