%TF.GenerationSoftware,KiCad,Pcbnew,10.0.6*%
%TF.CreationDate,2026-09-05T18:57:33+08:00*%
%TF.ProjectId,sl25,736c3235-2e6b-4696-9361-645f70636258,rev?*%
%TF.SameCoordinates,Original*%
%TF.FileFunction,Paste,Top*%
%TF.FilePolarity,Positive*%
%FSLAX46Y46*%
G04 Gerber Fmt 4.6, Leading zero omitted, Abs format (unit mm)*
G04 Created by KiCad (PCBNEW 10.0.6) date 2026-09-05 18:57:33*
%MOMM*%
%LPD*%
G01*
G04 APERTURE LIST*
G04 Aperture macros list*
%AMRoundRect*
0 Rectangle with rounded corners*
0 $1 Rounding radius*
0 $2 $3 $4 $5 $6 $7 $8 $9 X,Y pos of 4 corners*
0 Add a 4 corners polygon primitive as box body*
4,1,4,$2,$3,$4,$5,$6,$7,$8,$9,$2,$3,0*
0 Add four circle primitives for the rounded corners*
1,1,$1+$1,$2,$3*
1,1,$1+$1,$4,$5*
1,1,$1+$1,$6,$7*
1,1,$1+$1,$8,$9*
0 Add four rect primitives between the rounded corners*
20,1,$1+$1,$2,$3,$4,$5,0*
20,1,$1+$1,$4,$5,$6,$7,0*
20,1,$1+$1,$6,$7,$8,$9,0*
20,1,$1+$1,$8,$9,$2,$3,0*%
G04 Aperture macros list end*
%ADD10RoundRect,0.250000X-0.250000X-0.475000X0.250000X-0.475000X0.250000X0.475000X-0.250000X0.475000X0*%
%ADD11RoundRect,0.250000X-0.262500X-0.450000X0.262500X-0.450000X0.262500X0.450000X-0.262500X0.450000X0*%
%ADD12RoundRect,0.150000X-0.150000X0.825000X-0.150000X-0.825000X0.150000X-0.825000X0.150000X0.825000X0*%
%ADD13RoundRect,0.150000X-0.150000X-0.425000X0.150000X-0.425000X0.150000X0.425000X-0.150000X0.425000X0*%
%ADD14RoundRect,0.075000X-0.075000X-0.500000X0.075000X-0.500000X0.075000X0.500000X-0.075000X0.500000X0*%
%ADD15O,1.000000X2.100000*%
%ADD16O,1.000000X1.800000*%
G04 APERTURE END LIST*
D10*
%TO.C,C1*%
X119750000Y-111100000D03*
X121650000Y-111100000D03*
%TD*%
D11*
%TO.C,R5*%
X102087500Y-114600000D03*
X103912500Y-114600000D03*
%TD*%
%TO.C,R7*%
X105587500Y-105400000D03*
X107412500Y-105400000D03*
%TD*%
%TO.C,R3*%
X102087500Y-108400000D03*
X103912500Y-108400000D03*
%TD*%
D12*
%TO.C,U1*%
X116945000Y-108225000D03*
X115675000Y-108225000D03*
X114405000Y-108225000D03*
X113135000Y-108225000D03*
X111865000Y-108225000D03*
X110595000Y-108225000D03*
X109325000Y-108225000D03*
X108055000Y-108225000D03*
X108055000Y-113175000D03*
X109325000Y-113175000D03*
X110595000Y-113175000D03*
X111865000Y-113175000D03*
X113135000Y-113175000D03*
X114405000Y-113175000D03*
X115675000Y-113175000D03*
X116945000Y-113175000D03*
%TD*%
D10*
%TO.C,C3*%
X120050000Y-121000000D03*
X121950000Y-121000000D03*
%TD*%
D11*
%TO.C,R1*%
X104187500Y-117400000D03*
X106012500Y-117400000D03*
%TD*%
%TO.C,R6*%
X119787500Y-114400000D03*
X121612500Y-114400000D03*
%TD*%
D10*
%TO.C,C2*%
X119750000Y-108000000D03*
X121650000Y-108000000D03*
%TD*%
D13*
%TO.C,J1*%
X109300000Y-117470000D03*
X110100000Y-117470000D03*
D14*
X111250000Y-117470000D03*
X112250000Y-117470000D03*
X112750000Y-117470000D03*
X113750000Y-117470000D03*
D13*
X114900000Y-117470000D03*
X115700000Y-117470000D03*
X115700000Y-117470000D03*
X114900000Y-117470000D03*
D14*
X114250000Y-117470000D03*
X113250000Y-117470000D03*
X111750000Y-117470000D03*
X110750000Y-117470000D03*
D13*
X110100000Y-117470000D03*
X109300000Y-117470000D03*
D15*
X108180000Y-118045000D03*
D16*
X108180000Y-122225000D03*
D15*
X116820000Y-118045000D03*
D16*
X116820000Y-122225000D03*
%TD*%
D11*
%TO.C,R4*%
X102087500Y-111500000D03*
X103912500Y-111500000D03*
%TD*%
%TO.C,R2*%
X119287500Y-117400000D03*
X121112500Y-117400000D03*
%TD*%
M02*
