M48
; DRILL file KiCad 10.0.6 date 2026-09-05T18:57:33
; FORMAT={-:-/ absolute / metric / decimal}
; #@! TF.CreationDate,2026-09-05T18:57:33+08:00
; #@! TF.GenerationSoftware,Kicad,Pcbnew,10.0.6
; #@! TF.FileFunction,Plated,1,2,PTH
FMAT,2
METRIC
; #@! TA.AperFunction,Plated,PTH,ViaDrill
T1C0.300
; #@! TA.AperFunction,Plated,PTH,ComponentDrill
T2C0.600
; #@! TA.AperFunction,Plated,PTH,ComponentDrill
T3C0.900
%
G90
G05
T1
X102.1Y-108.4
X106.65Y-105.4
X107.05Y-117.45
X107.75Y-111.5
X107.95Y-102.0
X109.25Y-117.15
X109.65Y-116.25
X110.6Y-108.2
X111.65Y-113.35
X111.65Y-115.95
X111.9Y-108.8
X112.6Y-115.85
X112.75Y-118.6
X113.1Y-109.75
X113.35Y-113.35
X113.55Y-107.5
X114.0Y-108.2
X114.3Y-113.05
X114.4Y-114.3
X115.2Y-116.35
X115.75Y-117.4
X116.1Y-113.15
X117.4Y-101.8
X117.6Y-105.65
X117.8Y-114.4
X117.95Y-113.6
X120.6Y-117.9
X121.6Y-114.4
T3
X109.261Y-103.5
X111.42Y-103.5
X113.579Y-103.5
X115.738Y-103.5
T2
X108.18Y-117.495G85X108.18Y-118.595
G05
X108.18Y-121.825G85X108.18Y-122.625
G05
X116.82Y-117.495G85X116.82Y-118.595
G05
X116.82Y-121.825G85X116.82Y-122.625
G05
M30
