%TF.GenerationSoftware,KiCad,Pcbnew,10.0.6*%
%TF.CreationDate,2026-09-05T18:57:33+08:00*%
%TF.ProjectId,sl25,736c3235-2e6b-4696-9361-645f70636258,rev?*%
%TF.SameCoordinates,Original*%
%TF.FileFunction,Copper,L1,Top*%
%TF.FilePolarity,Positive*%
%FSLAX46Y46*%
G04 Gerber Fmt 4.6, Leading zero omitted, Abs format (unit mm)*
G04 Created by KiCad (PCBNEW 10.0.6) date 2026-09-05 18:57:33*
%MOMM*%
%LPD*%
G01*
G04 APERTURE LIST*
G04 Aperture macros list*
%AMRoundRect*
0 Rectangle with rounded corners*
0 $1 Rounding radius*
0 $2 $3 $4 $5 $6 $7 $8 $9 X,Y pos of 4 corners*
0 Add a 4 corners polygon primitive as box body*
4,1,4,$2,$3,$4,$5,$6,$7,$8,$9,$2,$3,0*
0 Add four circle primitives for the rounded corners*
1,1,$1+$1,$2,$3*
1,1,$1+$1,$4,$5*
1,1,$1+$1,$6,$7*
1,1,$1+$1,$8,$9*
0 Add four rect primitives between the rounded corners*
20,1,$1+$1,$2,$3,$4,$5,0*
20,1,$1+$1,$4,$5,$6,$7,0*
20,1,$1+$1,$6,$7,$8,$9,0*
20,1,$1+$1,$8,$9,$2,$3,0*%
G04 Aperture macros list end*
%TA.AperFunction,SMDPad,CuDef*%
%ADD10RoundRect,0.250000X-0.250000X-0.475000X0.250000X-0.475000X0.250000X0.475000X-0.250000X0.475000X0*%
%TD*%
%TA.AperFunction,SMDPad,CuDef*%
%ADD11RoundRect,0.250000X-0.262500X-0.450000X0.262500X-0.450000X0.262500X0.450000X-0.262500X0.450000X0*%
%TD*%
%TA.AperFunction,SMDPad,CuDef*%
%ADD12RoundRect,0.150000X-0.150000X0.825000X-0.150000X-0.825000X0.150000X-0.825000X0.150000X0.825000X0*%
%TD*%
%TA.AperFunction,ComponentPad*%
%ADD13R,1.800000X1.800000*%
%TD*%
%TA.AperFunction,ComponentPad*%
%ADD14C,1.800000*%
%TD*%
%TA.AperFunction,SMDPad,CuDef*%
%ADD15RoundRect,0.150000X-0.150000X-0.425000X0.150000X-0.425000X0.150000X0.425000X-0.150000X0.425000X0*%
%TD*%
%TA.AperFunction,SMDPad,CuDef*%
%ADD16RoundRect,0.075000X-0.075000X-0.500000X0.075000X-0.500000X0.075000X0.500000X-0.075000X0.500000X0*%
%TD*%
%TA.AperFunction,ComponentPad*%
%ADD17O,1.000000X2.100000*%
%TD*%
%TA.AperFunction,ComponentPad*%
%ADD18O,1.000000X1.800000*%
%TD*%
%TA.AperFunction,ViaPad*%
%ADD19C,0.600000*%
%TD*%
%TA.AperFunction,Conductor*%
%ADD20C,0.200000*%
%TD*%
G04 APERTURE END LIST*
D10*
%TO.P,C1,1*%
%TO.N,/+5V*%
X119750000Y-111100000D03*
%TO.P,C1,2*%
%TO.N,/GND*%
X121650000Y-111100000D03*
%TD*%
D11*
%TO.P,R5,1*%
%TO.N,/GPIO_BLUE*%
X102087500Y-114600000D03*
%TO.P,R5,2*%
%TO.N,/LED_BLUE*%
X103912500Y-114600000D03*
%TD*%
%TO.P,R7,1*%
%TO.N,/RESET*%
X105587500Y-105400000D03*
%TO.P,R7,2*%
%TO.N,/GND*%
X107412500Y-105400000D03*
%TD*%
%TO.P,R3,1*%
%TO.N,/PWM_RED*%
X102087500Y-108400000D03*
%TO.P,R3,2*%
%TO.N,/LED_RED*%
X103912500Y-108400000D03*
%TD*%
D12*
%TO.P,U1,1*%
%TO.N,unconnected-(U1-P3.2-Pad1)*%
X116945000Y-108225000D03*
%TO.P,U1,2*%
%TO.N,/PROG_SCS*%
X115675000Y-108225000D03*
%TO.P,U1,3*%
%TO.N,/PWM_RED*%
X114405000Y-108225000D03*
%TO.P,U1,4*%
%TO.N,/PROG_MISO*%
X113135000Y-108225000D03*
%TO.P,U1,5*%
%TO.N,/PROG_SCK*%
X111865000Y-108225000D03*
%TO.P,U1,6*%
%TO.N,/RESET*%
X110595000Y-108225000D03*
%TO.P,U1,7*%
%TO.N,unconnected-(U1-P3.1_{slash}_TXD-Pad7)*%
X109325000Y-108225000D03*
%TO.P,U1,8*%
%TO.N,unconnected-(U1-P3.0_{slash}_RXD-Pad8)*%
X108055000Y-108225000D03*
%TO.P,U1,9*%
%TO.N,/GPIO_BLUE*%
X108055000Y-113175000D03*
%TO.P,U1,10*%
%TO.N,unconnected-(U1-P3.3-Pad10)*%
X109325000Y-113175000D03*
%TO.P,U1,11*%
%TO.N,/PWM_GREEN*%
X110595000Y-113175000D03*
%TO.P,U1,12*%
%TO.N,/USB_DP*%
X111865000Y-113175000D03*
%TO.P,U1,13*%
%TO.N,/USB_DM*%
X113135000Y-113175000D03*
%TO.P,U1,14*%
%TO.N,/GND*%
X114405000Y-113175000D03*
%TO.P,U1,15*%
%TO.N,/+5V*%
X115675000Y-113175000D03*
%TO.P,U1,16*%
%TO.N,/V33*%
X116945000Y-113175000D03*
%TD*%
D10*
%TO.P,C3,1*%
%TO.N,/+5V*%
X120050000Y-121000000D03*
%TO.P,C3,2*%
%TO.N,/GND*%
X121950000Y-121000000D03*
%TD*%
D13*
%TO.P,D1,1*%
%TO.N,/LED_RED*%
X109261500Y-103500000D03*
D14*
%TO.P,D1,2*%
%TO.N,/GND*%
X111420500Y-103500000D03*
%TO.P,D1,3*%
%TO.N,/LED_BLUE*%
X113579500Y-103500000D03*
%TO.P,D1,4*%
%TO.N,/LED_GREEN*%
X115738500Y-103500000D03*
%TD*%
D11*
%TO.P,R1,1*%
%TO.N,/CC1*%
X104187500Y-117400000D03*
%TO.P,R1,2*%
%TO.N,/GND*%
X106012500Y-117400000D03*
%TD*%
%TO.P,R6,1*%
%TO.N,/+5V*%
X119787500Y-114400000D03*
%TO.P,R6,2*%
%TO.N,/BOOT_PULL*%
X121612500Y-114400000D03*
%TD*%
D10*
%TO.P,C2,1*%
%TO.N,/V33*%
X119750000Y-108000000D03*
%TO.P,C2,2*%
%TO.N,/GND*%
X121650000Y-108000000D03*
%TD*%
D15*
%TO.P,J1,A1*%
%TO.N,/GND*%
X109300000Y-117470000D03*
%TO.P,J1,A4*%
%TO.N,/+5V*%
X110100000Y-117470000D03*
D16*
%TO.P,J1,A5*%
%TO.N,/CC1*%
X111250000Y-117470000D03*
%TO.P,J1,A6*%
%TO.N,/USB_DP*%
X112250000Y-117470000D03*
%TO.P,J1,A7*%
%TO.N,/USB_DM*%
X112750000Y-117470000D03*
%TO.P,J1,A8*%
%TO.N,unconnected-(J1-PadA8)*%
X113750000Y-117470000D03*
D15*
%TO.P,J1,A9*%
%TO.N,/+5V*%
X114900000Y-117470000D03*
%TO.P,J1,A12*%
%TO.N,/GND*%
X115700000Y-117470000D03*
%TO.P,J1,B1*%
X115700000Y-117470000D03*
%TO.P,J1,B4*%
%TO.N,/+5V*%
X114900000Y-117470000D03*
D16*
%TO.P,J1,B5*%
%TO.N,/CC2*%
X114250000Y-117470000D03*
%TO.P,J1,B6*%
%TO.N,/USB_DP*%
X113250000Y-117470000D03*
%TO.P,J1,B7*%
%TO.N,/USB_DM*%
X111750000Y-117470000D03*
%TO.P,J1,B8*%
%TO.N,unconnected-(J1-PadB8)*%
X110750000Y-117470000D03*
D15*
%TO.P,J1,B9*%
%TO.N,/+5V*%
X110100000Y-117470000D03*
%TO.P,J1,B12*%
%TO.N,/GND*%
X109300000Y-117470000D03*
D17*
%TO.P,J1,SH*%
X108180000Y-118045000D03*
D18*
X108180000Y-122225000D03*
D17*
X116820000Y-118045000D03*
D18*
X116820000Y-122225000D03*
%TD*%
D11*
%TO.P,R4,1*%
%TO.N,/PWM_GREEN*%
X102087500Y-111500000D03*
%TO.P,R4,2*%
%TO.N,/LED_GREEN*%
X103912500Y-111500000D03*
%TD*%
%TO.P,R2,1*%
%TO.N,/CC2*%
X119287500Y-117400000D03*
%TO.P,R2,2*%
%TO.N,/GND*%
X121112500Y-117400000D03*
%TD*%
D19*
%TO.N,/+5V*%
X107050000Y-117450000D03*
X117950000Y-113600000D03*
X109650000Y-116250000D03*
X115200000Y-116350000D03*
X116100000Y-113150000D03*
X112600000Y-115850000D03*
%TO.N,/GND*%
X109250000Y-117150000D03*
X114400000Y-114300000D03*
X106650000Y-105400000D03*
X114300000Y-113050000D03*
X115750000Y-117400000D03*
X120600000Y-117900000D03*
%TO.N,/RESET*%
X110600000Y-108200000D03*
%TO.N,/PWM_RED*%
X102100000Y-108400000D03*
X114000000Y-108200000D03*
%TO.N,/PROG_SCS*%
X107950000Y-102000000D03*
%TO.N,/PROG_MISO*%
X113550000Y-107500000D03*
%TO.N,/PROG_SCK*%
X117400000Y-101800000D03*
X111900000Y-108800000D03*
X117600000Y-105650000D03*
%TO.N,/USB_DP*%
X111650000Y-113350000D03*
X117800000Y-114400000D03*
X111650000Y-115950000D03*
%TO.N,/USB_DM*%
X112750000Y-118600000D03*
X113350000Y-113350000D03*
%TO.N,/LED_GREEN*%
X113100000Y-109750000D03*
X107750000Y-111500000D03*
%TO.N,/BOOT_PULL*%
X121600000Y-114400000D03*
%TD*%
%TO.N,/+5V*%
D20*
X120050000Y-121000000D02*
X117650000Y-118600000D01*
X110100000Y-117100000D02*
X110250000Y-116950000D01*
X111050000Y-115700000D02*
X111100000Y-115650000D01*
X114900000Y-117470000D02*
X114900000Y-117450000D01*
X116450000Y-116650000D02*
X116350000Y-116550000D01*
X110100000Y-117470000D02*
X110100000Y-117450000D01*
X108500000Y-116550000D02*
X109950000Y-116550000D01*
X117650000Y-118600000D02*
X117650000Y-116650000D01*
X111400000Y-115350000D02*
X112000000Y-115350000D01*
X113850000Y-115700000D02*
X115050000Y-114500000D01*
X110250000Y-116550000D02*
X111050000Y-115750000D01*
X115050000Y-116750000D02*
X115050000Y-116500000D01*
X113100000Y-115700000D02*
X113850000Y-115700000D01*
X119250000Y-113850000D02*
X119800000Y-114400000D01*
X114900000Y-117450000D02*
X114900000Y-116900000D01*
X110100000Y-117450000D02*
X110100000Y-117470000D01*
X110100000Y-117450000D02*
X110100000Y-117100000D01*
X112550000Y-115800000D02*
X112600000Y-115850000D01*
X109650000Y-116250000D02*
X109950000Y-116550000D01*
X108400000Y-116650000D02*
X108500000Y-116550000D01*
X117950000Y-113600000D02*
X118200000Y-113850000D01*
X118200000Y-113850000D02*
X119250000Y-113850000D01*
X115050000Y-116550000D02*
X115050000Y-117300000D01*
X112600000Y-115850000D02*
X112950000Y-115850000D01*
X112450000Y-115800000D02*
X112550000Y-115800000D01*
X110250000Y-116950000D02*
X110250000Y-116550000D01*
X109950000Y-117300000D02*
X110100000Y-117450000D01*
X119800000Y-114400000D02*
X119787500Y-114400000D01*
X119800000Y-111150000D02*
X119750000Y-111100000D01*
X111350000Y-115400000D02*
X111400000Y-115350000D01*
X115050000Y-113750000D02*
X115650000Y-113150000D01*
X109950000Y-116550000D02*
X109950000Y-117300000D01*
X112950000Y-115850000D02*
X113100000Y-115700000D01*
X114900000Y-117450000D02*
X114900000Y-117470000D01*
X115650000Y-113150000D02*
X116100000Y-113150000D01*
X117650000Y-116650000D02*
X116450000Y-116650000D01*
X111050000Y-115750000D02*
X111050000Y-115700000D01*
X112000000Y-115350000D02*
X112450000Y-115800000D01*
X109950000Y-116550000D02*
X109950000Y-117300000D01*
X119787500Y-114400000D02*
X119800000Y-114400000D01*
X111300000Y-115400000D02*
X111350000Y-115400000D01*
X115675000Y-113175000D02*
X115650000Y-113150000D01*
X107350000Y-117150000D02*
X107350000Y-116650000D01*
X114900000Y-116900000D02*
X115050000Y-116750000D01*
X115650000Y-113150000D02*
X115675000Y-113175000D01*
X116350000Y-116550000D02*
X115050000Y-116550000D01*
X119800000Y-114400000D02*
X119800000Y-111150000D01*
X110100000Y-117450000D02*
X110100000Y-117470000D01*
X111100000Y-115650000D02*
X111100000Y-115600000D01*
X115050000Y-117300000D02*
X114900000Y-117450000D01*
X109950000Y-117300000D02*
X110100000Y-117450000D01*
X107050000Y-117450000D02*
X107350000Y-117150000D01*
X111100000Y-115600000D02*
X111300000Y-115400000D01*
X107350000Y-116650000D02*
X108400000Y-116650000D01*
X115050000Y-116500000D02*
X115200000Y-116350000D01*
X115050000Y-114500000D02*
X115050000Y-113750000D01*
%TO.N,/GND*%
X106800000Y-118050000D02*
X108200000Y-118050000D01*
X116600000Y-117850000D02*
X116800000Y-118050000D01*
X121250000Y-118050000D02*
X121250000Y-117550000D01*
X107400000Y-105400000D02*
X106650000Y-105400000D01*
X121112500Y-117400000D02*
X121100000Y-117400000D01*
X108200000Y-118050000D02*
X108800000Y-117450000D01*
X115700000Y-117450000D02*
X115900000Y-117450000D01*
X111400000Y-103500000D02*
X110550000Y-104350000D01*
X121300000Y-119600000D02*
X121300000Y-118100000D01*
X114400000Y-113150000D02*
X114400000Y-114300000D01*
X114300000Y-113050000D02*
X114400000Y-113150000D01*
X106750000Y-118000000D02*
X106800000Y-118050000D01*
X110500000Y-104750000D02*
X108050000Y-104750000D01*
X121350000Y-120400000D02*
X121350000Y-119650000D01*
X110550000Y-104700000D02*
X110500000Y-104750000D01*
X121100000Y-117400000D02*
X121112500Y-117400000D01*
X121250000Y-117550000D02*
X121100000Y-117400000D01*
X121350000Y-119650000D02*
X121300000Y-119600000D01*
X121650000Y-108000000D02*
X121650000Y-111100000D01*
X107412500Y-105400000D02*
X107400000Y-105400000D01*
X115900000Y-117450000D02*
X116300000Y-117850000D01*
X114400000Y-113150000D02*
X114405000Y-113175000D01*
X120600000Y-117900000D02*
X121100000Y-117400000D01*
X114405000Y-113175000D02*
X114400000Y-113150000D01*
X121300000Y-118100000D02*
X121250000Y-118050000D01*
X109300000Y-117450000D02*
X109300000Y-117200000D01*
X106600000Y-118000000D02*
X106750000Y-118000000D01*
X115700000Y-117470000D02*
X115700000Y-117450000D01*
X109300000Y-117470000D02*
X109300000Y-117450000D01*
X121100000Y-117400000D02*
X121100000Y-117000000D01*
X109300000Y-117450000D02*
X109300000Y-117470000D01*
X120750000Y-115450000D02*
X120750000Y-112000000D01*
X106000000Y-117400000D02*
X106600000Y-118000000D01*
X120800000Y-115500000D02*
X120750000Y-115450000D01*
X121950000Y-121000000D02*
X121350000Y-120400000D01*
X116300000Y-117850000D02*
X116600000Y-117850000D01*
X111420500Y-103500000D02*
X111400000Y-103500000D01*
X106012500Y-117400000D02*
X106000000Y-117400000D01*
X108200000Y-118050000D02*
X108180000Y-118045000D01*
X120750000Y-112000000D02*
X121650000Y-111100000D01*
X108180000Y-118045000D02*
X108200000Y-118050000D01*
X108800000Y-117450000D02*
X109300000Y-117450000D01*
X121100000Y-117000000D02*
X120800000Y-116700000D01*
X115750000Y-117400000D02*
X115700000Y-117450000D01*
X115700000Y-117450000D02*
X115700000Y-117470000D01*
X120800000Y-116700000D02*
X120800000Y-115500000D01*
X109300000Y-117200000D02*
X109250000Y-117150000D01*
X116800000Y-118050000D02*
X116820000Y-118045000D01*
X108050000Y-104750000D02*
X107400000Y-105400000D01*
X110550000Y-104350000D02*
X110550000Y-104700000D01*
X107400000Y-105400000D02*
X107412500Y-105400000D01*
X121100000Y-117400000D02*
X121112500Y-117400000D01*
%TO.N,/GPIO_BLUE*%
X106500000Y-113250000D02*
X106450000Y-113300000D01*
X103050000Y-113550000D02*
X103050000Y-113650000D01*
X107350000Y-113150000D02*
X107250000Y-113250000D01*
X108050000Y-113150000D02*
X107350000Y-113150000D01*
X102100000Y-114600000D02*
X102087500Y-114600000D01*
X107250000Y-113250000D02*
X106500000Y-113250000D01*
X108055000Y-113175000D02*
X108050000Y-113150000D01*
X103050000Y-113650000D02*
X102100000Y-114600000D01*
X103150000Y-113550000D02*
X103050000Y-113550000D01*
X103400000Y-113300000D02*
X103150000Y-113550000D01*
X106450000Y-113300000D02*
X103400000Y-113300000D01*
%TO.N,/LED_BLUE*%
X112950000Y-105550000D02*
X112500000Y-106000000D01*
X113579500Y-103500000D02*
X113600000Y-103500000D01*
X103900000Y-114600000D02*
X103912500Y-114600000D01*
X112250000Y-109550000D02*
X109950000Y-111850000D01*
X109950000Y-114500000D02*
X109900000Y-114500000D01*
X109850000Y-114550000D02*
X103950000Y-114550000D01*
X113000000Y-104850000D02*
X112950000Y-104900000D01*
X112500000Y-106000000D02*
X112500000Y-109550000D01*
X109950000Y-111850000D02*
X109950000Y-114500000D01*
X109900000Y-114500000D02*
X109850000Y-114550000D01*
X112950000Y-104900000D02*
X112950000Y-105550000D01*
X113000000Y-104100000D02*
X113000000Y-104850000D01*
X113600000Y-103500000D02*
X113000000Y-104100000D01*
X112500000Y-109550000D02*
X112250000Y-109550000D01*
X103950000Y-114550000D02*
X103900000Y-114600000D01*
%TO.N,/RESET*%
X105600000Y-105400000D02*
X105587500Y-105400000D01*
X109950000Y-107550000D02*
X109950000Y-106900000D01*
X110595000Y-108225000D02*
X110600000Y-108200000D01*
X106550000Y-106450000D02*
X106550000Y-106350000D01*
X106550000Y-106350000D02*
X105600000Y-105400000D01*
X110600000Y-108200000D02*
X109950000Y-107550000D01*
X109900000Y-106850000D02*
X107050000Y-106850000D01*
X106650000Y-106450000D02*
X106550000Y-106450000D01*
X110600000Y-108200000D02*
X110595000Y-108225000D01*
X109950000Y-106900000D02*
X109900000Y-106850000D01*
X107050000Y-106850000D02*
X106650000Y-106450000D01*
%TO.N,/PWM_RED*%
X102100000Y-108400000D02*
X102087500Y-108400000D01*
X114405000Y-108225000D02*
X114400000Y-108200000D01*
X114400000Y-108200000D02*
X114000000Y-108200000D01*
%TO.N,/LED_RED*%
X106400000Y-104350000D02*
X104750000Y-104350000D01*
X106450000Y-104300000D02*
X106400000Y-104350000D01*
X109261500Y-103500000D02*
X109250000Y-103500000D01*
X103900000Y-108400000D02*
X103912500Y-108400000D01*
X108650000Y-104100000D02*
X108200000Y-104100000D01*
X104750000Y-107550000D02*
X103900000Y-108400000D01*
X109250000Y-103500000D02*
X108650000Y-104100000D01*
X108050000Y-104250000D02*
X108000000Y-104250000D01*
X108000000Y-104250000D02*
X107950000Y-104300000D01*
X107950000Y-104300000D02*
X106450000Y-104300000D01*
X108200000Y-104100000D02*
X108050000Y-104250000D01*
X104750000Y-104350000D02*
X104750000Y-107550000D01*
%TO.N,/PROG_SCS*%
X107950000Y-102000000D02*
X109450000Y-102000000D01*
X117000000Y-102250000D02*
X117000000Y-106200000D01*
X116300000Y-107550000D02*
X115650000Y-108200000D01*
X109700000Y-102250000D02*
X117000000Y-102250000D01*
X109450000Y-102000000D02*
X109700000Y-102250000D01*
X116300000Y-106900000D02*
X116300000Y-107550000D01*
X115650000Y-108200000D02*
X115675000Y-108225000D01*
X117000000Y-106200000D02*
X116300000Y-106900000D01*
%TO.N,/PROG_MISO*%
X113450000Y-107900000D02*
X113150000Y-108200000D01*
X113450000Y-107850000D02*
X113450000Y-107900000D01*
X113550000Y-107500000D02*
X113550000Y-107750000D01*
X113150000Y-108200000D02*
X113135000Y-108225000D01*
X113550000Y-107750000D02*
X113450000Y-107850000D01*
%TO.N,/PROG_SCK*%
X111850000Y-108200000D02*
X111865000Y-108225000D01*
X117400000Y-101800000D02*
X117400000Y-105450000D01*
X111900000Y-108250000D02*
X111850000Y-108200000D01*
X111900000Y-108800000D02*
X111900000Y-108250000D01*
X117400000Y-105450000D02*
X117600000Y-105650000D01*
%TO.N,/PWM_GREEN*%
X110100000Y-114900000D02*
X110150000Y-114900000D01*
X101450000Y-112900000D02*
X101450000Y-113350000D01*
X102087500Y-111500000D02*
X102100000Y-111500000D01*
X110150000Y-114900000D02*
X110200000Y-114850000D01*
X102100000Y-111500000D02*
X101500000Y-112100000D01*
X108100000Y-115650000D02*
X108800000Y-114950000D01*
X110350000Y-113400000D02*
X110600000Y-113150000D01*
X110350000Y-114700000D02*
X110350000Y-113400000D01*
X101250000Y-115650000D02*
X108100000Y-115650000D01*
X101500000Y-112100000D02*
X101500000Y-112850000D01*
X108800000Y-114950000D02*
X110050000Y-114950000D01*
X110250000Y-114850000D02*
X110300000Y-114800000D01*
X110300000Y-114800000D02*
X110300000Y-114750000D01*
X110600000Y-113150000D02*
X110595000Y-113175000D01*
X110300000Y-114750000D02*
X110350000Y-114700000D01*
X101250000Y-113550000D02*
X101250000Y-115650000D01*
X101450000Y-113350000D02*
X101250000Y-113550000D01*
X110050000Y-114950000D02*
X110100000Y-114900000D01*
X110200000Y-114850000D02*
X110250000Y-114850000D01*
X101500000Y-112850000D02*
X101450000Y-112900000D01*
%TO.N,/USB_DP*%
X117800000Y-114400000D02*
X117700000Y-114400000D01*
X117600000Y-114500000D02*
X116200000Y-114500000D01*
X114150000Y-116550000D02*
X113250000Y-116550000D01*
X113250000Y-116550000D02*
X113250000Y-117450000D01*
X111850000Y-113150000D02*
X111865000Y-113175000D01*
X112250000Y-117450000D02*
X112250000Y-117470000D01*
X112250000Y-117450000D02*
X112250000Y-116550000D01*
X113250000Y-117450000D02*
X113250000Y-116550000D01*
X113250000Y-117450000D02*
X113250000Y-117470000D01*
X117700000Y-114400000D02*
X117600000Y-114500000D01*
X113250000Y-117470000D02*
X113250000Y-117450000D01*
X113250000Y-116550000D02*
X112250000Y-116550000D01*
X112250000Y-116550000D02*
X112250000Y-117450000D01*
X112250000Y-117470000D02*
X112250000Y-117450000D01*
X111650000Y-113350000D02*
X111850000Y-113150000D01*
X116200000Y-114500000D02*
X114150000Y-116550000D01*
X112250000Y-116550000D02*
X111650000Y-115950000D01*
%TO.N,/USB_DM*%
X112750000Y-117450000D02*
X112750000Y-118600000D01*
X112750000Y-117450000D02*
X112750000Y-117470000D01*
X111750000Y-118400000D02*
X112750000Y-118400000D01*
X113150000Y-113150000D02*
X113135000Y-113175000D01*
X113350000Y-113350000D02*
X113150000Y-113150000D01*
X112750000Y-117470000D02*
X112750000Y-117450000D01*
X112750000Y-118400000D02*
X112750000Y-117450000D01*
X111750000Y-117470000D02*
X111750000Y-117450000D01*
X111750000Y-117450000D02*
X111750000Y-118400000D01*
%TO.N,/V33*%
X118900000Y-110800000D02*
X118850000Y-110850000D01*
X118850000Y-110850000D02*
X118850000Y-111250000D01*
X119150000Y-108600000D02*
X119150000Y-109350000D01*
X119100000Y-109400000D02*
X119100000Y-109850000D01*
X118900000Y-110050000D02*
X118900000Y-110800000D01*
X116950000Y-113150000D02*
X116945000Y-113175000D01*
X118850000Y-111250000D02*
X116950000Y-113150000D01*
X119150000Y-109350000D02*
X119100000Y-109400000D01*
X119100000Y-109850000D02*
X118900000Y-110050000D01*
X119750000Y-108000000D02*
X119150000Y-108600000D01*
%TO.N,/LED_GREEN*%
X115050000Y-109550000D02*
X115050000Y-104200000D01*
X103912500Y-111500000D02*
X103900000Y-111500000D01*
X113300000Y-109550000D02*
X115050000Y-109550000D01*
X103900000Y-111500000D02*
X107750000Y-111500000D01*
X113100000Y-109750000D02*
X113300000Y-109550000D01*
X115050000Y-104200000D02*
X115750000Y-103500000D01*
X115750000Y-103500000D02*
X115738500Y-103500000D01*
%TO.N,/CC1*%
X104200000Y-117400000D02*
X104187500Y-117400000D01*
X105150000Y-118350000D02*
X104200000Y-117400000D01*
X105150000Y-118450000D02*
X105150000Y-118350000D01*
X110400000Y-119250000D02*
X110400000Y-119300000D01*
X106250000Y-119450000D02*
X105250000Y-118450000D01*
X111250000Y-118400000D02*
X110400000Y-119250000D01*
X105250000Y-118450000D02*
X105150000Y-118450000D01*
X110400000Y-119300000D02*
X109200000Y-119300000D01*
X109050000Y-119450000D02*
X106250000Y-119450000D01*
X111250000Y-117450000D02*
X111250000Y-118400000D01*
X109200000Y-119300000D02*
X109050000Y-119450000D01*
X111250000Y-117470000D02*
X111250000Y-117450000D01*
%TO.N,/BOOT_PULL*%
X121600000Y-114400000D02*
X121612500Y-114400000D01*
%TO.N,/CC2*%
X119300000Y-117400000D02*
X119900000Y-118000000D01*
X115950000Y-119450000D02*
X115800000Y-119300000D01*
X119287500Y-117400000D02*
X119300000Y-117400000D01*
X118850000Y-122050000D02*
X116250000Y-119450000D01*
X120900000Y-122050000D02*
X118850000Y-122050000D01*
X115800000Y-119300000D02*
X114600000Y-119300000D01*
X119900000Y-118000000D02*
X119900000Y-118750000D01*
X114600000Y-118750000D02*
X114250000Y-118400000D01*
X114250000Y-117450000D02*
X114250000Y-117470000D01*
X119900000Y-118750000D02*
X119950000Y-118800000D01*
X116250000Y-119450000D02*
X115950000Y-119450000D01*
X114600000Y-119300000D02*
X114600000Y-118750000D01*
X120900000Y-119950000D02*
X120900000Y-122050000D01*
X119950000Y-118800000D02*
X119950000Y-119000000D01*
X119950000Y-119000000D02*
X120900000Y-119950000D01*
X114250000Y-118400000D02*
X114250000Y-117450000D01*
%TD*%
%TA.AperFunction,Conductor*%
%TO.N,/GND*%
G36*
X116410438Y-116950500D02*
G01*
X117250500Y-116950500D01*
X117308691Y-116969407D01*
X117344655Y-117018907D01*
X117349500Y-117049500D01*
X117349500Y-118639564D01*
X117369978Y-118715988D01*
X117383909Y-118740116D01*
X117409540Y-118784511D01*
X119320505Y-120695476D01*
X119348281Y-120749991D01*
X119349500Y-120765478D01*
X119349500Y-121529274D01*
X119352353Y-121559694D01*
X119352355Y-121559703D01*
X119372685Y-121617802D01*
X119374058Y-121678972D01*
X119339215Y-121729267D01*
X119281463Y-121749475D01*
X119279241Y-121749500D01*
X119015479Y-121749500D01*
X118957288Y-121730593D01*
X118945475Y-121720504D01*
X117702146Y-120477175D01*
X116434511Y-119209540D01*
X116422894Y-119202833D01*
X116391158Y-119184510D01*
X116391157Y-119184510D01*
X116391155Y-119184509D01*
X116384412Y-119180616D01*
X116365988Y-119169978D01*
X116289564Y-119149500D01*
X116289562Y-119149500D01*
X116115479Y-119149500D01*
X116057288Y-119130593D01*
X116045476Y-119120504D01*
X115984510Y-119059539D01*
X115951464Y-119040460D01*
X115951462Y-119040459D01*
X115915989Y-119019979D01*
X115915986Y-119019978D01*
X115853101Y-119003127D01*
X115801787Y-118969803D01*
X115779861Y-118912681D01*
X115792989Y-118858000D01*
X115794497Y-118855387D01*
X115794501Y-118855384D01*
X115861051Y-118740116D01*
X115895500Y-118611550D01*
X115895500Y-118478450D01*
X115876232Y-118406540D01*
X115879435Y-118345440D01*
X115917940Y-118297890D01*
X115956377Y-118283137D01*
X115975146Y-118280165D01*
X115975151Y-118280163D01*
X116088043Y-118222641D01*
X116177641Y-118133043D01*
X116235163Y-118020151D01*
X116235164Y-118020147D01*
X116250000Y-117926484D01*
X116250000Y-117595001D01*
X116249999Y-117595000D01*
X115799000Y-117595000D01*
X115740809Y-117576093D01*
X115704845Y-117526593D01*
X115700000Y-117496000D01*
X115700000Y-117444000D01*
X115718907Y-117385809D01*
X115768407Y-117349845D01*
X115799000Y-117345000D01*
X116249998Y-117345000D01*
X116249999Y-117344999D01*
X116249999Y-117036529D01*
X116268906Y-116978338D01*
X116318406Y-116942374D01*
X116374622Y-116940903D01*
X116410438Y-116950500D01*
G37*
%TD.AperFunction*%
%TA.AperFunction,Conductor*%
G36*
X110664960Y-102569407D02*
G01*
X110676773Y-102579496D01*
X111203149Y-103105872D01*
X111144194Y-103139910D01*
X111060410Y-103223694D01*
X111026372Y-103282649D01*
X110522801Y-102779078D01*
X110504452Y-102780522D01*
X110491591Y-102789866D01*
X110430406Y-102789865D01*
X110380906Y-102753900D01*
X110362000Y-102695711D01*
X110362000Y-102649500D01*
X110380907Y-102591309D01*
X110430407Y-102555345D01*
X110461000Y-102550500D01*
X110606769Y-102550500D01*
X110664960Y-102569407D01*
G37*
%TD.AperFunction*%
%TA.AperFunction,Conductor*%
G36*
X112791842Y-102569407D02*
G01*
X112827806Y-102618907D01*
X112827806Y-102680093D01*
X112803656Y-102719501D01*
X112769258Y-102753900D01*
X112740085Y-102783073D01*
X112638265Y-102923215D01*
X112638264Y-102923217D01*
X112615986Y-102966941D01*
X112572721Y-103010205D01*
X112512289Y-103019776D01*
X112457773Y-102991998D01*
X112439567Y-102966940D01*
X112404069Y-102897271D01*
X112318196Y-102779078D01*
X111814626Y-103282647D01*
X111780590Y-103223694D01*
X111696806Y-103139910D01*
X111637849Y-103105871D01*
X112164226Y-102579496D01*
X112218743Y-102551719D01*
X112234230Y-102550500D01*
X112733651Y-102550500D01*
X112791842Y-102569407D01*
G37*
%TD.AperFunction*%
%TA.AperFunction,Conductor*%
G36*
X124005520Y-100501121D02*
G01*
X124100071Y-100511774D01*
X124121677Y-100516706D01*
X124206197Y-100546282D01*
X124226167Y-100555899D01*
X124301986Y-100603539D01*
X124319319Y-100617361D01*
X124382638Y-100680680D01*
X124396460Y-100698013D01*
X124444100Y-100773832D01*
X124453718Y-100793804D01*
X124483291Y-100878316D01*
X124488225Y-100899931D01*
X124498878Y-100994479D01*
X124499500Y-101005563D01*
X124499500Y-123994436D01*
X124498878Y-124005520D01*
X124488225Y-124100068D01*
X124483291Y-124121683D01*
X124453718Y-124206195D01*
X124444100Y-124226167D01*
X124396460Y-124301986D01*
X124382638Y-124319319D01*
X124319319Y-124382638D01*
X124301986Y-124396460D01*
X124226167Y-124444100D01*
X124206195Y-124453718D01*
X124121683Y-124483291D01*
X124100069Y-124488224D01*
X124005522Y-124498877D01*
X123994437Y-124499500D01*
X101005563Y-124499500D01*
X100994479Y-124498878D01*
X100899931Y-124488225D01*
X100878316Y-124483291D01*
X100793804Y-124453718D01*
X100773832Y-124444100D01*
X100698013Y-124396460D01*
X100680680Y-124382638D01*
X100617361Y-124319319D01*
X100603539Y-124301986D01*
X100555899Y-124226167D01*
X100546281Y-124206195D01*
X100516706Y-124121677D01*
X100511774Y-124100067D01*
X100501122Y-124005519D01*
X100500500Y-123994436D01*
X100500500Y-116895725D01*
X103474500Y-116895725D01*
X103474500Y-117904274D01*
X103477353Y-117934694D01*
X103477355Y-117934703D01*
X103522207Y-118062883D01*
X103602845Y-118172144D01*
X103602847Y-118172146D01*
X103602850Y-118172150D01*
X103602853Y-118172152D01*
X103602855Y-118172154D01*
X103712116Y-118252792D01*
X103712117Y-118252792D01*
X103712118Y-118252793D01*
X103840301Y-118297646D01*
X103870725Y-118300499D01*
X103870727Y-118300500D01*
X103870734Y-118300500D01*
X104504273Y-118300500D01*
X104504273Y-118300499D01*
X104534699Y-118297646D01*
X104578194Y-118282425D01*
X104639361Y-118281052D01*
X104680895Y-118305866D01*
X104825219Y-118450190D01*
X104850841Y-118494570D01*
X104869978Y-118565988D01*
X104869980Y-118565992D01*
X104908597Y-118632878D01*
X104909540Y-118634511D01*
X104965489Y-118690460D01*
X104965491Y-118690461D01*
X105034005Y-118730018D01*
X105034006Y-118730018D01*
X105034011Y-118730021D01*
X105105431Y-118749158D01*
X105149809Y-118774780D01*
X106065489Y-119690460D01*
X106065491Y-119690461D01*
X106065492Y-119690462D01*
X106065493Y-119690463D01*
X106134008Y-119730020D01*
X106134006Y-119730020D01*
X106134010Y-119730021D01*
X106134012Y-119730022D01*
X106210438Y-119750500D01*
X106210440Y-119750500D01*
X109089563Y-119750500D01*
X109089563Y-119750499D01*
X109165989Y-119730021D01*
X109234511Y-119690460D01*
X109290460Y-119634511D01*
X109295475Y-119629496D01*
X109349992Y-119601719D01*
X109365479Y-119600500D01*
X110439563Y-119600500D01*
X110439563Y-119600499D01*
X110515989Y-119580021D01*
X110584511Y-119540460D01*
X110640460Y-119484511D01*
X110680021Y-119415989D01*
X110680856Y-119412872D01*
X110682468Y-119410079D01*
X110682503Y-119409996D01*
X110682514Y-119410000D01*
X110706476Y-119368493D01*
X111429997Y-118644973D01*
X111484513Y-118617197D01*
X111544945Y-118626768D01*
X111559628Y-118637435D01*
X111560339Y-118636509D01*
X111565487Y-118640459D01*
X111634007Y-118680019D01*
X111634011Y-118680021D01*
X111710435Y-118700499D01*
X111710437Y-118700500D01*
X111710438Y-118700500D01*
X111789562Y-118700500D01*
X112182808Y-118700500D01*
X112240999Y-118719407D01*
X112276963Y-118768907D01*
X112278429Y-118773859D01*
X112283608Y-118793186D01*
X112283609Y-118793189D01*
X112349496Y-118907309D01*
X112349498Y-118907311D01*
X112349500Y-118907314D01*
X112442686Y-119000500D01*
X112442688Y-119000501D01*
X112442690Y-119000503D01*
X112556810Y-119066390D01*
X112556808Y-119066390D01*
X112556812Y-119066391D01*
X112556814Y-119066392D01*
X112684108Y-119100500D01*
X112684110Y-119100500D01*
X112815890Y-119100500D01*
X112815892Y-119100500D01*
X112943186Y-119066392D01*
X112943188Y-119066390D01*
X112943190Y-119066390D01*
X113057309Y-119000503D01*
X113057309Y-119000502D01*
X113057314Y-119000500D01*
X113150500Y-118907314D01*
X113183586Y-118850008D01*
X113216390Y-118793190D01*
X113216390Y-118793188D01*
X113216392Y-118793186D01*
X113250500Y-118665892D01*
X113250500Y-118534108D01*
X113216392Y-118406814D01*
X113216390Y-118406811D01*
X113216390Y-118406809D01*
X113208994Y-118393999D01*
X113196272Y-118334151D01*
X113221158Y-118278255D01*
X113274146Y-118247662D01*
X113294727Y-118245499D01*
X113352132Y-118245499D01*
X113432495Y-118229515D01*
X113444996Y-118221161D01*
X113503883Y-118204551D01*
X113555000Y-118221159D01*
X113567505Y-118229515D01*
X113647867Y-118245500D01*
X113850500Y-118245499D01*
X113908690Y-118264406D01*
X113944654Y-118313906D01*
X113949500Y-118344499D01*
X113949500Y-118439564D01*
X113969978Y-118515988D01*
X113969980Y-118515992D01*
X113998846Y-118565989D01*
X114009540Y-118584511D01*
X114270505Y-118845476D01*
X114298281Y-118899991D01*
X114299500Y-118915478D01*
X114299500Y-119339564D01*
X114319978Y-119415988D01*
X114319980Y-119415992D01*
X114359538Y-119484508D01*
X114359540Y-119484511D01*
X114415489Y-119540460D01*
X114415491Y-119540461D01*
X114484007Y-119580019D01*
X114484011Y-119580021D01*
X114560435Y-119600499D01*
X114560437Y-119600500D01*
X114560438Y-119600500D01*
X114639562Y-119600500D01*
X115634521Y-119600500D01*
X115692712Y-119619407D01*
X115704525Y-119629496D01*
X115709540Y-119634511D01*
X115709539Y-119634511D01*
X115765489Y-119690460D01*
X115834007Y-119730019D01*
X115834009Y-119730020D01*
X115834011Y-119730021D01*
X115910435Y-119750499D01*
X115910437Y-119750500D01*
X115910438Y-119750500D01*
X116084521Y-119750500D01*
X116142712Y-119769407D01*
X116154525Y-119779496D01*
X118609540Y-122234511D01*
X118609539Y-122234511D01*
X118665489Y-122290460D01*
X118734007Y-122330019D01*
X118734011Y-122330021D01*
X118810435Y-122350499D01*
X118810437Y-122350500D01*
X118810438Y-122350500D01*
X120939563Y-122350500D01*
X120939563Y-122350499D01*
X121015989Y-122330021D01*
X121084511Y-122290460D01*
X121140460Y-122234511D01*
X121180021Y-122165989D01*
X121200500Y-122089562D01*
X121200500Y-121923433D01*
X121219407Y-121865242D01*
X121268907Y-121829278D01*
X121330093Y-121829278D01*
X121358830Y-121844180D01*
X121457912Y-121918354D01*
X121592618Y-121968596D01*
X121592629Y-121968598D01*
X121652176Y-121975000D01*
X121824999Y-121975000D01*
X121825000Y-121974999D01*
X121825000Y-121125001D01*
X122075000Y-121125001D01*
X122075000Y-121974999D01*
X122075001Y-121975000D01*
X122247824Y-121975000D01*
X122307370Y-121968598D01*
X122307381Y-121968596D01*
X122442088Y-121918353D01*
X122442090Y-121918352D01*
X122557184Y-121832192D01*
X122557192Y-121832184D01*
X122643352Y-121717090D01*
X122643353Y-121717088D01*
X122693596Y-121582381D01*
X122693598Y-121582370D01*
X122700000Y-121522824D01*
X122700000Y-121125001D01*
X122699999Y-121125000D01*
X122075001Y-121125000D01*
X122075000Y-121125001D01*
X121825000Y-121125001D01*
X121825000Y-120025001D01*
X122075000Y-120025001D01*
X122075000Y-120874999D01*
X122075001Y-120875000D01*
X122699999Y-120875000D01*
X122700000Y-120874999D01*
X122700000Y-120477175D01*
X122693598Y-120417629D01*
X122693596Y-120417618D01*
X122643353Y-120282911D01*
X122643352Y-120282909D01*
X122557192Y-120167815D01*
X122557184Y-120167807D01*
X122442090Y-120081647D01*
X122442088Y-120081646D01*
X122307381Y-120031403D01*
X122307370Y-120031401D01*
X122247824Y-120025000D01*
X122075001Y-120025000D01*
X122075000Y-120025001D01*
X121825000Y-120025001D01*
X121824999Y-120025000D01*
X121652176Y-120025000D01*
X121592629Y-120031401D01*
X121592618Y-120031403D01*
X121457911Y-120081646D01*
X121457909Y-120081647D01*
X121358829Y-120155819D01*
X121300914Y-120175556D01*
X121242459Y-120157482D01*
X121205792Y-120108501D01*
X121200500Y-120076566D01*
X121200500Y-119910437D01*
X121200499Y-119910435D01*
X121180021Y-119834011D01*
X121180019Y-119834007D01*
X121140460Y-119765489D01*
X121084511Y-119709539D01*
X121084511Y-119709540D01*
X120279496Y-118904525D01*
X120251719Y-118850008D01*
X120250500Y-118834521D01*
X120250500Y-118760439D01*
X120250500Y-118760438D01*
X120238590Y-118715989D01*
X120238590Y-118715988D01*
X120238590Y-118715987D01*
X120230022Y-118684013D01*
X120230022Y-118684012D01*
X120220081Y-118666794D01*
X120213762Y-118655848D01*
X120200500Y-118606350D01*
X120200500Y-118088107D01*
X120219407Y-118029916D01*
X120268907Y-117993952D01*
X120330093Y-117993952D01*
X120379593Y-118029916D01*
X120392258Y-118053511D01*
X120406646Y-118092088D01*
X120406647Y-118092090D01*
X120492807Y-118207184D01*
X120492815Y-118207192D01*
X120607909Y-118293352D01*
X120607911Y-118293353D01*
X120742618Y-118343596D01*
X120742629Y-118343598D01*
X120802176Y-118350000D01*
X120987499Y-118350000D01*
X120987500Y-118349999D01*
X120987500Y-117525001D01*
X121237500Y-117525001D01*
X121237500Y-118349999D01*
X121237501Y-118350000D01*
X121422824Y-118350000D01*
X121482370Y-118343598D01*
X121482381Y-118343596D01*
X121617088Y-118293353D01*
X121617090Y-118293352D01*
X121732184Y-118207192D01*
X121732192Y-118207184D01*
X121818352Y-118092090D01*
X121818353Y-118092088D01*
X121868596Y-117957381D01*
X121868598Y-117957370D01*
X121875000Y-117897824D01*
X121875000Y-117525001D01*
X121874999Y-117525000D01*
X121237501Y-117525000D01*
X121237500Y-117525001D01*
X120987500Y-117525001D01*
X120987499Y-117525000D01*
X120350001Y-117525000D01*
X120350000Y-117525001D01*
X120350000Y-117808949D01*
X120331093Y-117867140D01*
X120281593Y-117903104D01*
X120220407Y-117903104D01*
X120170907Y-117867140D01*
X120165264Y-117858450D01*
X120140459Y-117815488D01*
X120084511Y-117759539D01*
X120084511Y-117759540D01*
X120029496Y-117704525D01*
X120001719Y-117650008D01*
X120000500Y-117634521D01*
X120000500Y-116902175D01*
X120350000Y-116902175D01*
X120350000Y-117274999D01*
X120350001Y-117275000D01*
X120987499Y-117275000D01*
X120987500Y-117274999D01*
X120987500Y-116450001D01*
X121237500Y-116450001D01*
X121237500Y-117274999D01*
X121237501Y-117275000D01*
X121874999Y-117275000D01*
X121875000Y-117274999D01*
X121875000Y-116902175D01*
X121868598Y-116842629D01*
X121868596Y-116842618D01*
X121818353Y-116707911D01*
X121818352Y-116707909D01*
X121732192Y-116592815D01*
X121732184Y-116592807D01*
X121617090Y-116506647D01*
X121617088Y-116506646D01*
X121482381Y-116456403D01*
X121482370Y-116456401D01*
X121422824Y-116450000D01*
X121237501Y-116450000D01*
X121237500Y-116450001D01*
X120987500Y-116450001D01*
X120987499Y-116450000D01*
X120802176Y-116450000D01*
X120742629Y-116456401D01*
X120742618Y-116456403D01*
X120607911Y-116506646D01*
X120607909Y-116506647D01*
X120492815Y-116592807D01*
X120492807Y-116592815D01*
X120406647Y-116707909D01*
X120406646Y-116707911D01*
X120356403Y-116842618D01*
X120356401Y-116842629D01*
X120350000Y-116902175D01*
X120000500Y-116902175D01*
X120000500Y-116895727D01*
X120000499Y-116895725D01*
X119999598Y-116886121D01*
X119997646Y-116865301D01*
X119952793Y-116737118D01*
X119939303Y-116718840D01*
X119872154Y-116627855D01*
X119872152Y-116627853D01*
X119872150Y-116627850D01*
X119872146Y-116627847D01*
X119872144Y-116627845D01*
X119762883Y-116547207D01*
X119634703Y-116502355D01*
X119634694Y-116502353D01*
X119604274Y-116499500D01*
X119604266Y-116499500D01*
X118970734Y-116499500D01*
X118970725Y-116499500D01*
X118940305Y-116502353D01*
X118940296Y-116502355D01*
X118812116Y-116547207D01*
X118702855Y-116627845D01*
X118702845Y-116627855D01*
X118622207Y-116737116D01*
X118577355Y-116865296D01*
X118577353Y-116865305D01*
X118574500Y-116895725D01*
X118574500Y-117904274D01*
X118577353Y-117934694D01*
X118577355Y-117934703D01*
X118622207Y-118062883D01*
X118702845Y-118172144D01*
X118702847Y-118172146D01*
X118702850Y-118172150D01*
X118702853Y-118172152D01*
X118702855Y-118172154D01*
X118812116Y-118252792D01*
X118812117Y-118252792D01*
X118812118Y-118252793D01*
X118940301Y-118297646D01*
X118970725Y-118300499D01*
X118970727Y-118300500D01*
X118970734Y-118300500D01*
X119500500Y-118300500D01*
X119558691Y-118319407D01*
X119594655Y-118368907D01*
X119599500Y-118399500D01*
X119599500Y-118789564D01*
X119619978Y-118865987D01*
X119619979Y-118865989D01*
X119628339Y-118880469D01*
X119636237Y-118894149D01*
X119649500Y-118943647D01*
X119649500Y-119039564D01*
X119669978Y-119115987D01*
X119669979Y-119115989D01*
X119701150Y-119169979D01*
X119709540Y-119184511D01*
X120105048Y-119580019D01*
X120430718Y-119905689D01*
X120458495Y-119960206D01*
X120448924Y-120020638D01*
X120405659Y-120063903D01*
X120356581Y-120074480D01*
X120356581Y-120074500D01*
X120356490Y-120074500D01*
X120356096Y-120074585D01*
X120354276Y-120074500D01*
X120354266Y-120074500D01*
X119745734Y-120074500D01*
X119745725Y-120074500D01*
X119715303Y-120077353D01*
X119653284Y-120099054D01*
X119592114Y-120100426D01*
X119550584Y-120075613D01*
X117979496Y-118504525D01*
X117951719Y-118450008D01*
X117950500Y-118434521D01*
X117950500Y-116610437D01*
X117950499Y-116610435D01*
X117930021Y-116534011D01*
X117930019Y-116534007D01*
X117890461Y-116465491D01*
X117890460Y-116465489D01*
X117834511Y-116409540D01*
X117834508Y-116409538D01*
X117765992Y-116369980D01*
X117765988Y-116369978D01*
X117689564Y-116349500D01*
X117689562Y-116349500D01*
X116615478Y-116349500D01*
X116557287Y-116330593D01*
X116545480Y-116320509D01*
X116534511Y-116309540D01*
X116511308Y-116296144D01*
X116482575Y-116279555D01*
X116465988Y-116269978D01*
X116389564Y-116249500D01*
X116389562Y-116249500D01*
X115767192Y-116249500D01*
X115709001Y-116230593D01*
X115673037Y-116181093D01*
X115671570Y-116176140D01*
X115666392Y-116156814D01*
X115663414Y-116151656D01*
X115600503Y-116042690D01*
X115600501Y-116042688D01*
X115600500Y-116042686D01*
X115507314Y-115949500D01*
X115495512Y-115942686D01*
X115408667Y-115892545D01*
X115367727Y-115847075D01*
X115361332Y-115786225D01*
X115388165Y-115736805D01*
X116295476Y-114829496D01*
X116349992Y-114801719D01*
X116365479Y-114800500D01*
X117466160Y-114800500D01*
X117515658Y-114813763D01*
X117606814Y-114866392D01*
X117734108Y-114900500D01*
X117734110Y-114900500D01*
X117865890Y-114900500D01*
X117865892Y-114900500D01*
X117993186Y-114866392D01*
X117993188Y-114866390D01*
X117993190Y-114866390D01*
X118107309Y-114800503D01*
X118107309Y-114800502D01*
X118107314Y-114800500D01*
X118200500Y-114707314D01*
X118200503Y-114707309D01*
X118266390Y-114593190D01*
X118266390Y-114593188D01*
X118266392Y-114593186D01*
X118300500Y-114465892D01*
X118300500Y-114334108D01*
X118284695Y-114275122D01*
X118287898Y-114214021D01*
X118326403Y-114166471D01*
X118380322Y-114150500D01*
X118975500Y-114150500D01*
X119033691Y-114169407D01*
X119069655Y-114218907D01*
X119074500Y-114249500D01*
X119074500Y-114904274D01*
X119077353Y-114934694D01*
X119077355Y-114934703D01*
X119122207Y-115062883D01*
X119202845Y-115172144D01*
X119202847Y-115172146D01*
X119202850Y-115172150D01*
X119202853Y-115172152D01*
X119202855Y-115172154D01*
X119312116Y-115252792D01*
X119312117Y-115252792D01*
X119312118Y-115252793D01*
X119440301Y-115297646D01*
X119470725Y-115300499D01*
X119470727Y-115300500D01*
X119470734Y-115300500D01*
X120104273Y-115300500D01*
X120104273Y-115300499D01*
X120134699Y-115297646D01*
X120262882Y-115252793D01*
X120372150Y-115172150D01*
X120452793Y-115062882D01*
X120497646Y-114934699D01*
X120500499Y-114904273D01*
X120500500Y-114904273D01*
X120500500Y-113895727D01*
X120500499Y-113895725D01*
X120899500Y-113895725D01*
X120899500Y-114904274D01*
X120902353Y-114934694D01*
X120902355Y-114934703D01*
X120947207Y-115062883D01*
X121027845Y-115172144D01*
X121027847Y-115172146D01*
X121027850Y-115172150D01*
X121027853Y-115172152D01*
X121027855Y-115172154D01*
X121137116Y-115252792D01*
X121137117Y-115252792D01*
X121137118Y-115252793D01*
X121265301Y-115297646D01*
X121295725Y-115300499D01*
X121295727Y-115300500D01*
X121295734Y-115300500D01*
X121929273Y-115300500D01*
X121929273Y-115300499D01*
X121959699Y-115297646D01*
X122087882Y-115252793D01*
X122197150Y-115172150D01*
X122277793Y-115062882D01*
X122322646Y-114934699D01*
X122325499Y-114904273D01*
X122325500Y-114904273D01*
X122325500Y-113895727D01*
X122325499Y-113895725D01*
X122322646Y-113865305D01*
X122322646Y-113865301D01*
X122277793Y-113737118D01*
X122268030Y-113723890D01*
X122197154Y-113627855D01*
X122197152Y-113627853D01*
X122197150Y-113627850D01*
X122197146Y-113627847D01*
X122197144Y-113627845D01*
X122087883Y-113547207D01*
X121959703Y-113502355D01*
X121959694Y-113502353D01*
X121929274Y-113499500D01*
X121929266Y-113499500D01*
X121295734Y-113499500D01*
X121295725Y-113499500D01*
X121265305Y-113502353D01*
X121265296Y-113502355D01*
X121137116Y-113547207D01*
X121027855Y-113627845D01*
X121027845Y-113627855D01*
X120947207Y-113737116D01*
X120902355Y-113865296D01*
X120902353Y-113865305D01*
X120899500Y-113895725D01*
X120500499Y-113895725D01*
X120497646Y-113865305D01*
X120497646Y-113865301D01*
X120452793Y-113737118D01*
X120443030Y-113723890D01*
X120372154Y-113627855D01*
X120372152Y-113627853D01*
X120372150Y-113627850D01*
X120372146Y-113627847D01*
X120372144Y-113627845D01*
X120262883Y-113547207D01*
X120166802Y-113513586D01*
X120118121Y-113476520D01*
X120100500Y-113420142D01*
X120100500Y-112087361D01*
X120119407Y-112029170D01*
X120166801Y-111993917D01*
X120212882Y-111977793D01*
X120220858Y-111971907D01*
X120250542Y-111949999D01*
X120322150Y-111897150D01*
X120402793Y-111787882D01*
X120447646Y-111659699D01*
X120450499Y-111629273D01*
X120450500Y-111629273D01*
X120450500Y-111622824D01*
X120899999Y-111622824D01*
X120906401Y-111682370D01*
X120906403Y-111682381D01*
X120956646Y-111817088D01*
X120956647Y-111817090D01*
X121042807Y-111932184D01*
X121042815Y-111932192D01*
X121157909Y-112018352D01*
X121157911Y-112018353D01*
X121292618Y-112068596D01*
X121292629Y-112068598D01*
X121352176Y-112075000D01*
X121524999Y-112075000D01*
X121525000Y-112074999D01*
X121525000Y-111225001D01*
X121775000Y-111225001D01*
X121775000Y-112074999D01*
X121775001Y-112075000D01*
X121947824Y-112075000D01*
X122007370Y-112068598D01*
X122007381Y-112068596D01*
X122142088Y-112018353D01*
X122142090Y-112018352D01*
X122257184Y-111932192D01*
X122257192Y-111932184D01*
X122343352Y-111817090D01*
X122343353Y-111817088D01*
X122393596Y-111682381D01*
X122393598Y-111682370D01*
X122400000Y-111622824D01*
X122400000Y-111225001D01*
X122399999Y-111225000D01*
X121775001Y-111225000D01*
X121775000Y-111225001D01*
X121525000Y-111225001D01*
X121524999Y-111225000D01*
X120900001Y-111225000D01*
X120900000Y-111225001D01*
X120900000Y-111622824D01*
X120899999Y-111622824D01*
X120450500Y-111622824D01*
X120450500Y-110577175D01*
X120900000Y-110577175D01*
X120900000Y-110974999D01*
X120900001Y-110975000D01*
X121524999Y-110975000D01*
X121525000Y-110974999D01*
X121525000Y-110125001D01*
X121775000Y-110125001D01*
X121775000Y-110974999D01*
X121775001Y-110975000D01*
X122399999Y-110975000D01*
X122400000Y-110974999D01*
X122400000Y-110577175D01*
X122393598Y-110517629D01*
X122393596Y-110517618D01*
X122343353Y-110382911D01*
X122343352Y-110382909D01*
X122257192Y-110267815D01*
X122257184Y-110267807D01*
X122142090Y-110181647D01*
X122142088Y-110181646D01*
X122007381Y-110131403D01*
X122007370Y-110131401D01*
X121947824Y-110125000D01*
X121775001Y-110125000D01*
X121775000Y-110125001D01*
X121525000Y-110125001D01*
X121524999Y-110125000D01*
X121352176Y-110125000D01*
X121292629Y-110131401D01*
X121292618Y-110131403D01*
X121157911Y-110181646D01*
X121157909Y-110181647D01*
X121042815Y-110267807D01*
X121042807Y-110267815D01*
X120956647Y-110382909D01*
X120956646Y-110382911D01*
X120906403Y-110517618D01*
X120906401Y-110517629D01*
X120900000Y-110577175D01*
X120450500Y-110577175D01*
X120450500Y-110570727D01*
X120450499Y-110570725D01*
X120447646Y-110540305D01*
X120447646Y-110540301D01*
X120402793Y-110412118D01*
X120381237Y-110382911D01*
X120322154Y-110302855D01*
X120322152Y-110302853D01*
X120322150Y-110302850D01*
X120322146Y-110302847D01*
X120322144Y-110302845D01*
X120212883Y-110222207D01*
X120084703Y-110177355D01*
X120084694Y-110177353D01*
X120054274Y-110174500D01*
X120054266Y-110174500D01*
X119445734Y-110174500D01*
X119445731Y-110174500D01*
X119439778Y-110175058D01*
X119380076Y-110161664D01*
X119339650Y-110115737D01*
X119333939Y-110054818D01*
X119344800Y-110026993D01*
X119380022Y-109965988D01*
X119400500Y-109889562D01*
X119400500Y-109810438D01*
X119400500Y-109543647D01*
X119413765Y-109494145D01*
X119428337Y-109468907D01*
X119430022Y-109465988D01*
X119450500Y-109389562D01*
X119450500Y-109310438D01*
X119450500Y-109024500D01*
X119469407Y-108966309D01*
X119518907Y-108930345D01*
X119549500Y-108925500D01*
X120054273Y-108925500D01*
X120054273Y-108925499D01*
X120084699Y-108922646D01*
X120212882Y-108877793D01*
X120322150Y-108797150D01*
X120402793Y-108687882D01*
X120447646Y-108559699D01*
X120450499Y-108529273D01*
X120450500Y-108529273D01*
X120450500Y-108522824D01*
X120899999Y-108522824D01*
X120906401Y-108582370D01*
X120906403Y-108582381D01*
X120956646Y-108717088D01*
X120956647Y-108717090D01*
X121042807Y-108832184D01*
X121042815Y-108832192D01*
X121157909Y-108918352D01*
X121157911Y-108918353D01*
X121292618Y-108968596D01*
X121292629Y-108968598D01*
X121352176Y-108975000D01*
X121524999Y-108975000D01*
X121525000Y-108974999D01*
X121525000Y-108125001D01*
X121775000Y-108125001D01*
X121775000Y-108974999D01*
X121775001Y-108975000D01*
X121947824Y-108975000D01*
X122007370Y-108968598D01*
X122007381Y-108968596D01*
X122142088Y-108918353D01*
X122142090Y-108918352D01*
X122257184Y-108832192D01*
X122257192Y-108832184D01*
X122343352Y-108717090D01*
X122343353Y-108717088D01*
X122393596Y-108582381D01*
X122393598Y-108582370D01*
X122400000Y-108522824D01*
X122400000Y-108125001D01*
X122399999Y-108125000D01*
X121775001Y-108125000D01*
X121775000Y-108125001D01*
X121525000Y-108125001D01*
X121524999Y-108125000D01*
X120900001Y-108125000D01*
X120900000Y-108125001D01*
X120900000Y-108522824D01*
X120899999Y-108522824D01*
X120450500Y-108522824D01*
X120450500Y-107477175D01*
X120900000Y-107477175D01*
X120900000Y-107874999D01*
X120900001Y-107875000D01*
X121524999Y-107875000D01*
X121525000Y-107874999D01*
X121525000Y-107025001D01*
X121775000Y-107025001D01*
X121775000Y-107874999D01*
X121775001Y-107875000D01*
X122399999Y-107875000D01*
X122400000Y-107874999D01*
X122400000Y-107477175D01*
X122393598Y-107417629D01*
X122393596Y-107417618D01*
X122343353Y-107282911D01*
X122343352Y-107282909D01*
X122257192Y-107167815D01*
X122257184Y-107167807D01*
X122142090Y-107081647D01*
X122142088Y-107081646D01*
X122007381Y-107031403D01*
X122007370Y-107031401D01*
X121947824Y-107025000D01*
X121775001Y-107025000D01*
X121775000Y-107025001D01*
X121525000Y-107025001D01*
X121524999Y-107025000D01*
X121352176Y-107025000D01*
X121292629Y-107031401D01*
X121292618Y-107031403D01*
X121157911Y-107081646D01*
X121157909Y-107081647D01*
X121042815Y-107167807D01*
X121042807Y-107167815D01*
X120956647Y-107282909D01*
X120956646Y-107282911D01*
X120906403Y-107417618D01*
X120906401Y-107417629D01*
X120900000Y-107477175D01*
X120450500Y-107477175D01*
X120450500Y-107470727D01*
X120450499Y-107470725D01*
X120447646Y-107440305D01*
X120447646Y-107440301D01*
X120402793Y-107312118D01*
X120392821Y-107298607D01*
X120322154Y-107202855D01*
X120322152Y-107202853D01*
X120322150Y-107202850D01*
X120322146Y-107202847D01*
X120322144Y-107202845D01*
X120212883Y-107122207D01*
X120084703Y-107077355D01*
X120084694Y-107077353D01*
X120054274Y-107074500D01*
X120054266Y-107074500D01*
X119445734Y-107074500D01*
X119445725Y-107074500D01*
X119415305Y-107077353D01*
X119415296Y-107077355D01*
X119287116Y-107122207D01*
X119177855Y-107202845D01*
X119177845Y-107202855D01*
X119097207Y-107312116D01*
X119052355Y-107440296D01*
X119052353Y-107440305D01*
X119049500Y-107470725D01*
X119049500Y-108234521D01*
X119030593Y-108292712D01*
X119020504Y-108304525D01*
X118965489Y-108359540D01*
X118965488Y-108359539D01*
X118909539Y-108415489D01*
X118869980Y-108484007D01*
X118869978Y-108484011D01*
X118849500Y-108560435D01*
X118849500Y-109206351D01*
X118836237Y-109255849D01*
X118819981Y-109284006D01*
X118819977Y-109284014D01*
X118799500Y-109360435D01*
X118799500Y-109684521D01*
X118780593Y-109742712D01*
X118770504Y-109754525D01*
X118715489Y-109809540D01*
X118715488Y-109809539D01*
X118659539Y-109865489D01*
X118619980Y-109934007D01*
X118619978Y-109934011D01*
X118599500Y-110010435D01*
X118599500Y-110656351D01*
X118586237Y-110705849D01*
X118569981Y-110734006D01*
X118569977Y-110734014D01*
X118549500Y-110810435D01*
X118549500Y-111084520D01*
X118530593Y-111142711D01*
X118520504Y-111154524D01*
X117527858Y-112147170D01*
X117473341Y-112174947D01*
X117412909Y-112165376D01*
X117387850Y-112147170D01*
X117384198Y-112143518D01*
X117384198Y-112143517D01*
X117301483Y-112060802D01*
X117289498Y-112054943D01*
X117196395Y-112009427D01*
X117167587Y-112005230D01*
X117128260Y-111999500D01*
X116761740Y-111999500D01*
X116733772Y-112003575D01*
X116693604Y-112009427D01*
X116588518Y-112060801D01*
X116505801Y-112143518D01*
X116454427Y-112248604D01*
X116444500Y-112316743D01*
X116444500Y-112599495D01*
X116425593Y-112657686D01*
X116376093Y-112693650D01*
X116314907Y-112693650D01*
X116296006Y-112685235D01*
X116293189Y-112683609D01*
X116293187Y-112683608D01*
X116248875Y-112671734D01*
X116197561Y-112638409D01*
X116175636Y-112581288D01*
X116175500Y-112576108D01*
X116175500Y-112316743D01*
X116175500Y-112316740D01*
X116165573Y-112248607D01*
X116114198Y-112143517D01*
X116031483Y-112060802D01*
X116019498Y-112054943D01*
X115926395Y-112009427D01*
X115897587Y-112005230D01*
X115858260Y-111999500D01*
X115491740Y-111999500D01*
X115463772Y-112003575D01*
X115423604Y-112009427D01*
X115318518Y-112060801D01*
X115235801Y-112143518D01*
X115184427Y-112248604D01*
X115174500Y-112316743D01*
X115174500Y-113159521D01*
X115155593Y-113217712D01*
X115145504Y-113229525D01*
X115085018Y-113290011D01*
X115030501Y-113317788D01*
X114970069Y-113308217D01*
X114958759Y-113300000D01*
X114530001Y-113300000D01*
X114530000Y-113300001D01*
X114530000Y-114399998D01*
X114557511Y-114427509D01*
X114585288Y-114482026D01*
X114575717Y-114542458D01*
X114557511Y-114567517D01*
X113754525Y-115370504D01*
X113700008Y-115398281D01*
X113684521Y-115399500D01*
X113060435Y-115399500D01*
X112984011Y-115419978D01*
X112969594Y-115428302D01*
X112909745Y-115441021D01*
X112870596Y-115428300D01*
X112793189Y-115383609D01*
X112793191Y-115383609D01*
X112743799Y-115370375D01*
X112665892Y-115349500D01*
X112534108Y-115349500D01*
X112502847Y-115357876D01*
X112441746Y-115354671D01*
X112407224Y-115332252D01*
X112184511Y-115109540D01*
X112133382Y-115080020D01*
X112133380Y-115080020D01*
X112115989Y-115069979D01*
X112115986Y-115069978D01*
X112039564Y-115049500D01*
X112039562Y-115049500D01*
X111439562Y-115049500D01*
X111360438Y-115049500D01*
X111322225Y-115059739D01*
X111284010Y-115069978D01*
X111220300Y-115106762D01*
X111196426Y-115116651D01*
X111184012Y-115119977D01*
X111184008Y-115119979D01*
X111115493Y-115159536D01*
X111115488Y-115159540D01*
X110859539Y-115415489D01*
X110819982Y-115484003D01*
X110819977Y-115484015D01*
X110816649Y-115496433D01*
X110806762Y-115520301D01*
X110769980Y-115584009D01*
X110769978Y-115584014D01*
X110769140Y-115587140D01*
X110767525Y-115589935D01*
X110767499Y-115590000D01*
X110767490Y-115589996D01*
X110743521Y-115631505D01*
X110280272Y-116094755D01*
X110225755Y-116122533D01*
X110165323Y-116112962D01*
X110122058Y-116069697D01*
X110118802Y-116062634D01*
X110116393Y-116056818D01*
X110116392Y-116056814D01*
X110116389Y-116056809D01*
X110116388Y-116056806D01*
X110050503Y-115942690D01*
X110050501Y-115942688D01*
X110050500Y-115942686D01*
X109957314Y-115849500D01*
X109957311Y-115849498D01*
X109957309Y-115849496D01*
X109843189Y-115783609D01*
X109843191Y-115783609D01*
X109793799Y-115770375D01*
X109715892Y-115749500D01*
X109584108Y-115749500D01*
X109506200Y-115770375D01*
X109456809Y-115783609D01*
X109342690Y-115849496D01*
X109249496Y-115942690D01*
X109183609Y-116056809D01*
X109180156Y-116069697D01*
X109156680Y-116157314D01*
X109151640Y-116176123D01*
X109118316Y-116227437D01*
X109061194Y-116249364D01*
X109056013Y-116249500D01*
X108460435Y-116249500D01*
X108384011Y-116269978D01*
X108338694Y-116296143D01*
X108338693Y-116296143D01*
X108315491Y-116309538D01*
X108315489Y-116309539D01*
X108315489Y-116309540D01*
X108304523Y-116320505D01*
X108250009Y-116348281D01*
X108234522Y-116349500D01*
X107310435Y-116349500D01*
X107234011Y-116369978D01*
X107234007Y-116369980D01*
X107165491Y-116409538D01*
X107109538Y-116465491D01*
X107069980Y-116534007D01*
X107069978Y-116534011D01*
X107049500Y-116610435D01*
X107049500Y-116856013D01*
X107030593Y-116914204D01*
X106981093Y-116950168D01*
X106976128Y-116951638D01*
X106963490Y-116955024D01*
X106897494Y-116972707D01*
X106836392Y-116969504D01*
X106788843Y-116930998D01*
X106773439Y-116887660D01*
X106768598Y-116842630D01*
X106768596Y-116842618D01*
X106718353Y-116707911D01*
X106718352Y-116707909D01*
X106632192Y-116592815D01*
X106632184Y-116592807D01*
X106517090Y-116506647D01*
X106517088Y-116506646D01*
X106382381Y-116456403D01*
X106382370Y-116456401D01*
X106322824Y-116450000D01*
X106137501Y-116450000D01*
X106137500Y-116450001D01*
X106137500Y-118349999D01*
X106137501Y-118350000D01*
X106322824Y-118350000D01*
X106382370Y-118343598D01*
X106382381Y-118343596D01*
X106517088Y-118293353D01*
X106517090Y-118293352D01*
X106632184Y-118207192D01*
X106632192Y-118207184D01*
X106718351Y-118092092D01*
X106759058Y-117982949D01*
X106797109Y-117935034D01*
X106856055Y-117918636D01*
X106877434Y-117921917D01*
X106984108Y-117950500D01*
X106984110Y-117950500D01*
X107115890Y-117950500D01*
X107115892Y-117950500D01*
X107243186Y-117916392D01*
X107243188Y-117916390D01*
X107243190Y-117916390D01*
X107357309Y-117850503D01*
X107357309Y-117850502D01*
X107357314Y-117850500D01*
X107450500Y-117757314D01*
X107497719Y-117675529D01*
X107516390Y-117643190D01*
X107516390Y-117643188D01*
X107516392Y-117643186D01*
X107550500Y-117515892D01*
X107550500Y-117415477D01*
X107569407Y-117357286D01*
X107579494Y-117345476D01*
X107590460Y-117334511D01*
X107590461Y-117334507D01*
X107590463Y-117334507D01*
X107619616Y-117284011D01*
X107624818Y-117275000D01*
X107630021Y-117265989D01*
X107650500Y-117189562D01*
X107650500Y-117049500D01*
X107669407Y-116991309D01*
X107718907Y-116955345D01*
X107749500Y-116950500D01*
X108439563Y-116950500D01*
X108439563Y-116950499D01*
X108515989Y-116930021D01*
X108584511Y-116890460D01*
X108588851Y-116886119D01*
X108643364Y-116858341D01*
X108703796Y-116867909D01*
X108747063Y-116911171D01*
X108756638Y-116971603D01*
X108756637Y-116971607D01*
X108750000Y-117013514D01*
X108750000Y-117344999D01*
X108750001Y-117345000D01*
X109201000Y-117345000D01*
X109259191Y-117363907D01*
X109295155Y-117413407D01*
X109300000Y-117444000D01*
X109300000Y-117496000D01*
X109281093Y-117554191D01*
X109231593Y-117590155D01*
X109201000Y-117595000D01*
X108750002Y-117595000D01*
X108750001Y-117595001D01*
X108750001Y-117926485D01*
X108764833Y-118020141D01*
X108764836Y-118020151D01*
X108822358Y-118133043D01*
X108911956Y-118222641D01*
X109024848Y-118280163D01*
X109024853Y-118280165D01*
X109043626Y-118283138D01*
X109098143Y-118310914D01*
X109125922Y-118365430D01*
X109123768Y-118406540D01*
X109104500Y-118478450D01*
X109104500Y-118611550D01*
X109125644Y-118690460D01*
X109138950Y-118740120D01*
X109207010Y-118858001D01*
X109219732Y-118917849D01*
X109194846Y-118973745D01*
X109146899Y-119003127D01*
X109084010Y-119019979D01*
X109056035Y-119036130D01*
X109050093Y-119039562D01*
X109048539Y-119040459D01*
X109048538Y-119040459D01*
X109015489Y-119059539D01*
X108954524Y-119120504D01*
X108900007Y-119148281D01*
X108884521Y-119149500D01*
X106415479Y-119149500D01*
X106357288Y-119130593D01*
X106345475Y-119120504D01*
X105743975Y-118519004D01*
X105716198Y-118464487D01*
X105725769Y-118404055D01*
X105769034Y-118360790D01*
X105813979Y-118350000D01*
X105887499Y-118350000D01*
X105887500Y-118349999D01*
X105887500Y-117525001D01*
X105887499Y-117525000D01*
X105250001Y-117525000D01*
X105250000Y-117525001D01*
X105250000Y-117786021D01*
X105231093Y-117844212D01*
X105181593Y-117880176D01*
X105120407Y-117880176D01*
X105080996Y-117856025D01*
X104929496Y-117704525D01*
X104901719Y-117650008D01*
X104900500Y-117634521D01*
X104900500Y-116902175D01*
X105250000Y-116902175D01*
X105250000Y-117274999D01*
X105250001Y-117275000D01*
X105887499Y-117275000D01*
X105887500Y-117274999D01*
X105887500Y-116450001D01*
X105887499Y-116450000D01*
X105702176Y-116450000D01*
X105642629Y-116456401D01*
X105642618Y-116456403D01*
X105507911Y-116506646D01*
X105507909Y-116506647D01*
X105392815Y-116592807D01*
X105392807Y-116592815D01*
X105306647Y-116707909D01*
X105306646Y-116707911D01*
X105256403Y-116842618D01*
X105256401Y-116842629D01*
X105250000Y-116902175D01*
X104900500Y-116902175D01*
X104900500Y-116895727D01*
X104900499Y-116895725D01*
X104899598Y-116886121D01*
X104897646Y-116865301D01*
X104852793Y-116737118D01*
X104839303Y-116718840D01*
X104772154Y-116627855D01*
X104772152Y-116627853D01*
X104772150Y-116627850D01*
X104772146Y-116627847D01*
X104772144Y-116627845D01*
X104662883Y-116547207D01*
X104534703Y-116502355D01*
X104534694Y-116502353D01*
X104504274Y-116499500D01*
X104504266Y-116499500D01*
X103870734Y-116499500D01*
X103870725Y-116499500D01*
X103840305Y-116502353D01*
X103840296Y-116502355D01*
X103712116Y-116547207D01*
X103602855Y-116627845D01*
X103602845Y-116627855D01*
X103522207Y-116737116D01*
X103477355Y-116865296D01*
X103477353Y-116865305D01*
X103474500Y-116895725D01*
X100500500Y-116895725D01*
X100500500Y-113510435D01*
X100949500Y-113510435D01*
X100949500Y-115689564D01*
X100969978Y-115765988D01*
X100969980Y-115765992D01*
X100981662Y-115786225D01*
X101009540Y-115834511D01*
X101065489Y-115890460D01*
X101088329Y-115903647D01*
X101134007Y-115930019D01*
X101134011Y-115930021D01*
X101210435Y-115950499D01*
X101210437Y-115950500D01*
X101210438Y-115950500D01*
X108139563Y-115950500D01*
X108139563Y-115950499D01*
X108215989Y-115930021D01*
X108284511Y-115890460D01*
X108340460Y-115834511D01*
X108895475Y-115279496D01*
X108949992Y-115251719D01*
X108965479Y-115250500D01*
X110089563Y-115250500D01*
X110089563Y-115250499D01*
X110165989Y-115230021D01*
X110229707Y-115193233D01*
X110253576Y-115183346D01*
X110265989Y-115180021D01*
X110329707Y-115143233D01*
X110353576Y-115133346D01*
X110365989Y-115130021D01*
X110434511Y-115090460D01*
X110475471Y-115049500D01*
X110490461Y-115034511D01*
X110540459Y-114984512D01*
X110540460Y-114984511D01*
X110580022Y-114915988D01*
X110583346Y-114903579D01*
X110593236Y-114879702D01*
X110600922Y-114866390D01*
X110630022Y-114815988D01*
X110650500Y-114739562D01*
X110650500Y-114660438D01*
X110650500Y-114449500D01*
X110669407Y-114391309D01*
X110718907Y-114355345D01*
X110749500Y-114350500D01*
X110778257Y-114350500D01*
X110778260Y-114350500D01*
X110846393Y-114340573D01*
X110951483Y-114289198D01*
X111034198Y-114206483D01*
X111085573Y-114101393D01*
X111095500Y-114033260D01*
X111095500Y-113742321D01*
X111114407Y-113684130D01*
X111163907Y-113648166D01*
X111225093Y-113648166D01*
X111264501Y-113672315D01*
X111335505Y-113743319D01*
X111363281Y-113797834D01*
X111364500Y-113813321D01*
X111364500Y-114033260D01*
X111369169Y-114065305D01*
X111374427Y-114101395D01*
X111417382Y-114189260D01*
X111425802Y-114206483D01*
X111508517Y-114289198D01*
X111545519Y-114307287D01*
X111613604Y-114340572D01*
X111613605Y-114340572D01*
X111613607Y-114340573D01*
X111681740Y-114350500D01*
X111681743Y-114350500D01*
X112048257Y-114350500D01*
X112048260Y-114350500D01*
X112116393Y-114340573D01*
X112221483Y-114289198D01*
X112304198Y-114206483D01*
X112355573Y-114101393D01*
X112365500Y-114033260D01*
X112365500Y-112316740D01*
X112634500Y-112316740D01*
X112634500Y-114033260D01*
X112639169Y-114065305D01*
X112644427Y-114101395D01*
X112687382Y-114189260D01*
X112695802Y-114206483D01*
X112778517Y-114289198D01*
X112815519Y-114307287D01*
X112883604Y-114340572D01*
X112883605Y-114340572D01*
X112883607Y-114340573D01*
X112951740Y-114350500D01*
X112951743Y-114350500D01*
X113318257Y-114350500D01*
X113318260Y-114350500D01*
X113386393Y-114340573D01*
X113491483Y-114289198D01*
X113574198Y-114206483D01*
X113625573Y-114101393D01*
X113635500Y-114033260D01*
X113635500Y-113813321D01*
X113654407Y-113755130D01*
X113664495Y-113743319D01*
X113673303Y-113734511D01*
X113685997Y-113721816D01*
X113740511Y-113694039D01*
X113800943Y-113703609D01*
X113844209Y-113746873D01*
X113855000Y-113791820D01*
X113855000Y-114031483D01*
X113855001Y-114031485D01*
X113869833Y-114125141D01*
X113869836Y-114125151D01*
X113927358Y-114238043D01*
X114016956Y-114327641D01*
X114129848Y-114385163D01*
X114129852Y-114385164D01*
X114223516Y-114399999D01*
X114279999Y-114399998D01*
X114280000Y-114399998D01*
X114280000Y-111950001D01*
X114530000Y-111950001D01*
X114530000Y-113049999D01*
X114530001Y-113050000D01*
X114954998Y-113050000D01*
X114954999Y-113049999D01*
X114954999Y-112318516D01*
X114954998Y-112318514D01*
X114940166Y-112224858D01*
X114940163Y-112224848D01*
X114882641Y-112111956D01*
X114793043Y-112022358D01*
X114680151Y-111964836D01*
X114680147Y-111964835D01*
X114586484Y-111950000D01*
X114530001Y-111950000D01*
X114530000Y-111950001D01*
X114280000Y-111950001D01*
X114280000Y-111949999D01*
X114223518Y-111950000D01*
X114223513Y-111950001D01*
X114129858Y-111964833D01*
X114129848Y-111964836D01*
X114016956Y-112022358D01*
X113927358Y-112111956D01*
X113869836Y-112224848D01*
X113869835Y-112224852D01*
X113855000Y-112318515D01*
X113855000Y-112908179D01*
X113836093Y-112966370D01*
X113786593Y-113002334D01*
X113725407Y-113002334D01*
X113685998Y-112978184D01*
X113664494Y-112956680D01*
X113636719Y-112902166D01*
X113635500Y-112886679D01*
X113635500Y-112316743D01*
X113635500Y-112316740D01*
X113625573Y-112248607D01*
X113574198Y-112143517D01*
X113491483Y-112060802D01*
X113479498Y-112054943D01*
X113386395Y-112009427D01*
X113357587Y-112005230D01*
X113318260Y-111999500D01*
X112951740Y-111999500D01*
X112923772Y-112003575D01*
X112883604Y-112009427D01*
X112778518Y-112060801D01*
X112695801Y-112143518D01*
X112644427Y-112248604D01*
X112644427Y-112248607D01*
X112634500Y-112316740D01*
X112365500Y-112316740D01*
X112355573Y-112248607D01*
X112304198Y-112143517D01*
X112221483Y-112060802D01*
X112209498Y-112054943D01*
X112116395Y-112009427D01*
X112087587Y-112005230D01*
X112048260Y-111999500D01*
X111681740Y-111999500D01*
X111653772Y-112003575D01*
X111613604Y-112009427D01*
X111508518Y-112060801D01*
X111425801Y-112143518D01*
X111374427Y-112248604D01*
X111364500Y-112316743D01*
X111364500Y-112886679D01*
X111345593Y-112944870D01*
X111335509Y-112956676D01*
X111264501Y-113027684D01*
X111209987Y-113055460D01*
X111149555Y-113045889D01*
X111106290Y-113002624D01*
X111095500Y-112957679D01*
X111095500Y-112316743D01*
X111095500Y-112316740D01*
X111085573Y-112248607D01*
X111034198Y-112143517D01*
X110951483Y-112060802D01*
X110939498Y-112054943D01*
X110846395Y-112009427D01*
X110817587Y-112005230D01*
X110778260Y-111999500D01*
X110464479Y-111999500D01*
X110406288Y-111980593D01*
X110370324Y-111931093D01*
X110370324Y-111869907D01*
X110394475Y-111830496D01*
X112345475Y-109879496D01*
X112399992Y-109851719D01*
X112415479Y-109850500D01*
X112532807Y-109850500D01*
X112590998Y-109869407D01*
X112626962Y-109918907D01*
X112628433Y-109923875D01*
X112633608Y-109943186D01*
X112633609Y-109943189D01*
X112699496Y-110057309D01*
X112699498Y-110057311D01*
X112699500Y-110057314D01*
X112792686Y-110150500D01*
X112792688Y-110150501D01*
X112792690Y-110150503D01*
X112906810Y-110216390D01*
X112906808Y-110216390D01*
X112906812Y-110216391D01*
X112906814Y-110216392D01*
X113034108Y-110250500D01*
X113034110Y-110250500D01*
X113165890Y-110250500D01*
X113165892Y-110250500D01*
X113293186Y-110216392D01*
X113293188Y-110216390D01*
X113293190Y-110216390D01*
X113407309Y-110150503D01*
X113407309Y-110150502D01*
X113407314Y-110150500D01*
X113500500Y-110057314D01*
X113566392Y-109943186D01*
X113571565Y-109923876D01*
X113604888Y-109872563D01*
X113662010Y-109850636D01*
X113667192Y-109850500D01*
X115089563Y-109850500D01*
X115089563Y-109850499D01*
X115165989Y-109830021D01*
X115234511Y-109790460D01*
X115290460Y-109734511D01*
X115330021Y-109665989D01*
X115350500Y-109589562D01*
X115350500Y-109494390D01*
X115369407Y-109436199D01*
X115418907Y-109400235D01*
X115463773Y-109396425D01*
X115491740Y-109400500D01*
X115491741Y-109400500D01*
X115858257Y-109400500D01*
X115858260Y-109400500D01*
X115926393Y-109390573D01*
X116031483Y-109339198D01*
X116114198Y-109256483D01*
X116165573Y-109151393D01*
X116175500Y-109083260D01*
X116175500Y-108140478D01*
X116194407Y-108082288D01*
X116204496Y-108070475D01*
X116275496Y-107999475D01*
X116330013Y-107971698D01*
X116390445Y-107981269D01*
X116433710Y-108024534D01*
X116444500Y-108069479D01*
X116444500Y-109083260D01*
X116451118Y-109128682D01*
X116454427Y-109151395D01*
X116464571Y-109172144D01*
X116505802Y-109256483D01*
X116588517Y-109339198D01*
X116642285Y-109365483D01*
X116693604Y-109390572D01*
X116693605Y-109390572D01*
X116693607Y-109390573D01*
X116761740Y-109400500D01*
X116761743Y-109400500D01*
X117128257Y-109400500D01*
X117128260Y-109400500D01*
X117196393Y-109390573D01*
X117301483Y-109339198D01*
X117384198Y-109256483D01*
X117435573Y-109151393D01*
X117445500Y-109083260D01*
X117445500Y-107366740D01*
X117435573Y-107298607D01*
X117435571Y-107298603D01*
X117410483Y-107247285D01*
X117384198Y-107193517D01*
X117301483Y-107110802D01*
X117279500Y-107100055D01*
X117196395Y-107059427D01*
X117166228Y-107055032D01*
X117128260Y-107049500D01*
X116814479Y-107049500D01*
X116756288Y-107030593D01*
X116720324Y-106981093D01*
X116720324Y-106919907D01*
X116744475Y-106880496D01*
X116850191Y-106774780D01*
X117240460Y-106384511D01*
X117269616Y-106334011D01*
X117280021Y-106315989D01*
X117300500Y-106239562D01*
X117300500Y-106216924D01*
X117319407Y-106158733D01*
X117368907Y-106122769D01*
X117425120Y-106121297D01*
X117534108Y-106150500D01*
X117534110Y-106150500D01*
X117665890Y-106150500D01*
X117665892Y-106150500D01*
X117793186Y-106116392D01*
X117793188Y-106116390D01*
X117793190Y-106116390D01*
X117907309Y-106050503D01*
X117907309Y-106050502D01*
X117907314Y-106050500D01*
X118000500Y-105957314D01*
X118045036Y-105880176D01*
X118066390Y-105843190D01*
X118066390Y-105843188D01*
X118066392Y-105843186D01*
X118100500Y-105715892D01*
X118100500Y-105584108D01*
X118066392Y-105456814D01*
X118066390Y-105456811D01*
X118066390Y-105456809D01*
X118000503Y-105342690D01*
X118000501Y-105342688D01*
X118000500Y-105342686D01*
X117907314Y-105249500D01*
X117907311Y-105249498D01*
X117907309Y-105249496D01*
X117793189Y-105183609D01*
X117793186Y-105183608D01*
X117773875Y-105178433D01*
X117722561Y-105145108D01*
X117700636Y-105087986D01*
X117700500Y-105082807D01*
X117700500Y-102599218D01*
X121019500Y-102599218D01*
X121019500Y-102800781D01*
X121051028Y-102999846D01*
X121113314Y-103191542D01*
X121181979Y-103326306D01*
X121204818Y-103371129D01*
X121323289Y-103534190D01*
X121465810Y-103676711D01*
X121628871Y-103795182D01*
X121808458Y-103886686D01*
X122000149Y-103948970D01*
X122000150Y-103948970D01*
X122000153Y-103948971D01*
X122199219Y-103980500D01*
X122199222Y-103980500D01*
X122400781Y-103980500D01*
X122599846Y-103948971D01*
X122599847Y-103948970D01*
X122599851Y-103948970D01*
X122791542Y-103886686D01*
X122971129Y-103795182D01*
X123134190Y-103676711D01*
X123276711Y-103534190D01*
X123395182Y-103371129D01*
X123486686Y-103191542D01*
X123548970Y-102999851D01*
X123550214Y-102991998D01*
X123580500Y-102800781D01*
X123580500Y-102599218D01*
X123548971Y-102400153D01*
X123518806Y-102307314D01*
X123486686Y-102208458D01*
X123395182Y-102028871D01*
X123276711Y-101865810D01*
X123134190Y-101723289D01*
X122971129Y-101604818D01*
X122971128Y-101604817D01*
X122971126Y-101604816D01*
X122791542Y-101513314D01*
X122599846Y-101451028D01*
X122400781Y-101419500D01*
X122400778Y-101419500D01*
X122199222Y-101419500D01*
X122199219Y-101419500D01*
X122000153Y-101451028D01*
X121808457Y-101513314D01*
X121628873Y-101604816D01*
X121465811Y-101723288D01*
X121323288Y-101865811D01*
X121204816Y-102028873D01*
X121113314Y-102208457D01*
X121051028Y-102400153D01*
X121019500Y-102599218D01*
X117700500Y-102599218D01*
X117700500Y-102248321D01*
X117719407Y-102190130D01*
X117729490Y-102178323D01*
X117800500Y-102107314D01*
X117866392Y-101993186D01*
X117900500Y-101865892D01*
X117900500Y-101734108D01*
X117866392Y-101606814D01*
X117866390Y-101606811D01*
X117866390Y-101606809D01*
X117800503Y-101492690D01*
X117800501Y-101492688D01*
X117800500Y-101492686D01*
X117707314Y-101399500D01*
X117707311Y-101399498D01*
X117707309Y-101399496D01*
X117593189Y-101333609D01*
X117593191Y-101333609D01*
X117543799Y-101320375D01*
X117465892Y-101299500D01*
X117334108Y-101299500D01*
X117256200Y-101320375D01*
X117206809Y-101333609D01*
X117092690Y-101399496D01*
X116999496Y-101492690D01*
X116933609Y-101606809D01*
X116933608Y-101606814D01*
X116899501Y-101734107D01*
X116899500Y-101734109D01*
X116899500Y-101850500D01*
X116880593Y-101908691D01*
X116831093Y-101944655D01*
X116800500Y-101949500D01*
X109865479Y-101949500D01*
X109807288Y-101930593D01*
X109795476Y-101920504D01*
X109634511Y-101759540D01*
X109590460Y-101734107D01*
X109590459Y-101734107D01*
X109565988Y-101719978D01*
X109489564Y-101699500D01*
X109489562Y-101699500D01*
X108398321Y-101699500D01*
X108340130Y-101680593D01*
X108328323Y-101670509D01*
X108257314Y-101599500D01*
X108257311Y-101599498D01*
X108257309Y-101599496D01*
X108143189Y-101533609D01*
X108143191Y-101533609D01*
X108093799Y-101520375D01*
X108015892Y-101499500D01*
X107884108Y-101499500D01*
X107806200Y-101520375D01*
X107756809Y-101533609D01*
X107642690Y-101599496D01*
X107549496Y-101692690D01*
X107483609Y-101806809D01*
X107483608Y-101806814D01*
X107449500Y-101934108D01*
X107449500Y-102065892D01*
X107460598Y-102107309D01*
X107483609Y-102193190D01*
X107549496Y-102307309D01*
X107549498Y-102307311D01*
X107549500Y-102307314D01*
X107642686Y-102400500D01*
X107642688Y-102400501D01*
X107642690Y-102400503D01*
X107756810Y-102466390D01*
X107756808Y-102466390D01*
X107756812Y-102466391D01*
X107756814Y-102466392D01*
X107884108Y-102500500D01*
X107884110Y-102500500D01*
X108015891Y-102500500D01*
X108015892Y-102500500D01*
X108036377Y-102495011D01*
X108097477Y-102498212D01*
X108145027Y-102536716D01*
X108161000Y-102590637D01*
X108161000Y-103723384D01*
X108142093Y-103781575D01*
X108092593Y-103817539D01*
X108087629Y-103819009D01*
X108084011Y-103819978D01*
X108084007Y-103819980D01*
X108015489Y-103859539D01*
X107931507Y-103943520D01*
X107890001Y-103967484D01*
X107890006Y-103967495D01*
X107889924Y-103967528D01*
X107887132Y-103969141D01*
X107884016Y-103969976D01*
X107884012Y-103969977D01*
X107855853Y-103986236D01*
X107806352Y-103999500D01*
X106489562Y-103999500D01*
X106410438Y-103999500D01*
X106334012Y-104019978D01*
X106334011Y-104019978D01*
X106334009Y-104019979D01*
X106305853Y-104036236D01*
X106256352Y-104049500D01*
X104710435Y-104049500D01*
X104634011Y-104069978D01*
X104634007Y-104069980D01*
X104565491Y-104109538D01*
X104509538Y-104165491D01*
X104469980Y-104234007D01*
X104469978Y-104234011D01*
X104449500Y-104310435D01*
X104449500Y-107384521D01*
X104430593Y-107442712D01*
X104420503Y-107454526D01*
X104387375Y-107487653D01*
X104332858Y-107515429D01*
X104284677Y-107511093D01*
X104259698Y-107502353D01*
X104229274Y-107499500D01*
X104229266Y-107499500D01*
X103595734Y-107499500D01*
X103595725Y-107499500D01*
X103565305Y-107502353D01*
X103565296Y-107502355D01*
X103437116Y-107547207D01*
X103327855Y-107627845D01*
X103327845Y-107627855D01*
X103247207Y-107737116D01*
X103202355Y-107865296D01*
X103202353Y-107865305D01*
X103199500Y-107895725D01*
X103199500Y-108904274D01*
X103202353Y-108934694D01*
X103202355Y-108934703D01*
X103247207Y-109062883D01*
X103327845Y-109172144D01*
X103327847Y-109172146D01*
X103327850Y-109172150D01*
X103327853Y-109172152D01*
X103327855Y-109172154D01*
X103437116Y-109252792D01*
X103437117Y-109252792D01*
X103437118Y-109252793D01*
X103565301Y-109297646D01*
X103595725Y-109300499D01*
X103595727Y-109300500D01*
X103595734Y-109300500D01*
X104229273Y-109300500D01*
X104229273Y-109300499D01*
X104259699Y-109297646D01*
X104387882Y-109252793D01*
X104497150Y-109172150D01*
X104577793Y-109062882D01*
X104622646Y-108934699D01*
X104625499Y-108904273D01*
X104625500Y-108904273D01*
X104625500Y-108140478D01*
X104644407Y-108082287D01*
X104654490Y-108070480D01*
X104990460Y-107734511D01*
X105030022Y-107665988D01*
X105050500Y-107589562D01*
X105050500Y-107510438D01*
X105050500Y-106370759D01*
X105069407Y-106312568D01*
X105118907Y-106276604D01*
X105180093Y-106276604D01*
X105182198Y-106277315D01*
X105240301Y-106297646D01*
X105270725Y-106300499D01*
X105270727Y-106300500D01*
X105270734Y-106300500D01*
X105904273Y-106300500D01*
X105904273Y-106300499D01*
X105934699Y-106297646D01*
X105978194Y-106282425D01*
X106039361Y-106281052D01*
X106080895Y-106305866D01*
X106225219Y-106450190D01*
X106250841Y-106494570D01*
X106269978Y-106565988D01*
X106269980Y-106565992D01*
X106295123Y-106609540D01*
X106309540Y-106634511D01*
X106365489Y-106690460D01*
X106365491Y-106690461D01*
X106434005Y-106730018D01*
X106434006Y-106730018D01*
X106434011Y-106730021D01*
X106505431Y-106749158D01*
X106549809Y-106774780D01*
X106809540Y-107034511D01*
X106809539Y-107034511D01*
X106865489Y-107090460D01*
X106934007Y-107130019D01*
X106934011Y-107130021D01*
X107010435Y-107150499D01*
X107010437Y-107150500D01*
X107010438Y-107150500D01*
X107089562Y-107150500D01*
X107478237Y-107150500D01*
X107536428Y-107169407D01*
X107572392Y-107218907D01*
X107572392Y-107280093D01*
X107567176Y-107292983D01*
X107564427Y-107298603D01*
X107562458Y-107312118D01*
X107554500Y-107366740D01*
X107554500Y-109083260D01*
X107561118Y-109128682D01*
X107564427Y-109151395D01*
X107574571Y-109172144D01*
X107615802Y-109256483D01*
X107698517Y-109339198D01*
X107752285Y-109365483D01*
X107803604Y-109390572D01*
X107803605Y-109390572D01*
X107803607Y-109390573D01*
X107871740Y-109400500D01*
X107871743Y-109400500D01*
X108238257Y-109400500D01*
X108238260Y-109400500D01*
X108306393Y-109390573D01*
X108411483Y-109339198D01*
X108494198Y-109256483D01*
X108545573Y-109151393D01*
X108555500Y-109083260D01*
X108555500Y-107366740D01*
X108545573Y-107298607D01*
X108545572Y-107298604D01*
X108545572Y-107298603D01*
X108542824Y-107292983D01*
X108534251Y-107232402D01*
X108562924Y-107178351D01*
X108617892Y-107151477D01*
X108631763Y-107150500D01*
X108748237Y-107150500D01*
X108806428Y-107169407D01*
X108842392Y-107218907D01*
X108842392Y-107280093D01*
X108837176Y-107292983D01*
X108834427Y-107298603D01*
X108832458Y-107312118D01*
X108824500Y-107366740D01*
X108824500Y-109083260D01*
X108831118Y-109128682D01*
X108834427Y-109151395D01*
X108844571Y-109172144D01*
X108885802Y-109256483D01*
X108968517Y-109339198D01*
X109022285Y-109365483D01*
X109073604Y-109390572D01*
X109073605Y-109390572D01*
X109073607Y-109390573D01*
X109141740Y-109400500D01*
X109141743Y-109400500D01*
X109508257Y-109400500D01*
X109508260Y-109400500D01*
X109576393Y-109390573D01*
X109681483Y-109339198D01*
X109764198Y-109256483D01*
X109815573Y-109151393D01*
X109825500Y-109083260D01*
X109825500Y-108089479D01*
X109844407Y-108031288D01*
X109893907Y-107995324D01*
X109955093Y-107995324D01*
X109994504Y-108019475D01*
X110065504Y-108090475D01*
X110093281Y-108144992D01*
X110094500Y-108160479D01*
X110094500Y-109083260D01*
X110101118Y-109128682D01*
X110104427Y-109151395D01*
X110114571Y-109172144D01*
X110155802Y-109256483D01*
X110238517Y-109339198D01*
X110292285Y-109365483D01*
X110343604Y-109390572D01*
X110343605Y-109390572D01*
X110343607Y-109390573D01*
X110411740Y-109400500D01*
X110411743Y-109400500D01*
X110778257Y-109400500D01*
X110778260Y-109400500D01*
X110846393Y-109390573D01*
X110951483Y-109339198D01*
X111034198Y-109256483D01*
X111085573Y-109151393D01*
X111095500Y-109083260D01*
X111095500Y-108297586D01*
X111098873Y-108271963D01*
X111100500Y-108265891D01*
X111100500Y-108134109D01*
X111100499Y-108134105D01*
X111098873Y-108128035D01*
X111095500Y-108102414D01*
X111095500Y-107366743D01*
X111095500Y-107366740D01*
X111085573Y-107298607D01*
X111085571Y-107298603D01*
X111060483Y-107247285D01*
X111034198Y-107193517D01*
X110951483Y-107110802D01*
X110929500Y-107100055D01*
X110846395Y-107059427D01*
X110816228Y-107055032D01*
X110778260Y-107049500D01*
X110411740Y-107049500D01*
X110363772Y-107056488D01*
X110303465Y-107046169D01*
X110260740Y-107002371D01*
X110250500Y-106958523D01*
X110250500Y-106860439D01*
X110250499Y-106860435D01*
X110230022Y-106784012D01*
X110230020Y-106784009D01*
X110230020Y-106784007D01*
X110190463Y-106715493D01*
X110190461Y-106715491D01*
X110190460Y-106715489D01*
X110084511Y-106609540D01*
X110084508Y-106609538D01*
X110051464Y-106590460D01*
X110051462Y-106590459D01*
X110015989Y-106569979D01*
X110015986Y-106569978D01*
X109939564Y-106549500D01*
X109939562Y-106549500D01*
X107215479Y-106549500D01*
X107157288Y-106530593D01*
X107145475Y-106520504D01*
X107143975Y-106519004D01*
X107116198Y-106464487D01*
X107125769Y-106404055D01*
X107169034Y-106360790D01*
X107213979Y-106350000D01*
X107287499Y-106350000D01*
X107287500Y-106349999D01*
X107287500Y-105525001D01*
X107537500Y-105525001D01*
X107537500Y-106349999D01*
X107537501Y-106350000D01*
X107722824Y-106350000D01*
X107782370Y-106343598D01*
X107782381Y-106343596D01*
X107917088Y-106293353D01*
X107917090Y-106293352D01*
X108032184Y-106207192D01*
X108032192Y-106207184D01*
X108118352Y-106092090D01*
X108118353Y-106092088D01*
X108168596Y-105957381D01*
X108168598Y-105957370D01*
X108175000Y-105897824D01*
X108175000Y-105525001D01*
X108174999Y-105525000D01*
X107537501Y-105525000D01*
X107537500Y-105525001D01*
X107287500Y-105525001D01*
X107287499Y-105525000D01*
X106650001Y-105525000D01*
X106650000Y-105525001D01*
X106650000Y-105786021D01*
X106631093Y-105844212D01*
X106581593Y-105880176D01*
X106520407Y-105880176D01*
X106480996Y-105856025D01*
X106329496Y-105704525D01*
X106301719Y-105650008D01*
X106300500Y-105634521D01*
X106300500Y-104895727D01*
X106300499Y-104895725D01*
X106297646Y-104865305D01*
X106297646Y-104865301D01*
X106268566Y-104782197D01*
X106267194Y-104721028D01*
X106302037Y-104670733D01*
X106359789Y-104650525D01*
X106362011Y-104650500D01*
X106439563Y-104650500D01*
X106439563Y-104650499D01*
X106515989Y-104630021D01*
X106530431Y-104621683D01*
X106544150Y-104613763D01*
X106593649Y-104600500D01*
X106604122Y-104600500D01*
X106662313Y-104619407D01*
X106698277Y-104668907D01*
X106698277Y-104730093D01*
X106696880Y-104734096D01*
X106656403Y-104842618D01*
X106656401Y-104842629D01*
X106650000Y-104902175D01*
X106650000Y-105274999D01*
X106650001Y-105275000D01*
X108174999Y-105275000D01*
X108175000Y-105274999D01*
X108175000Y-104902175D01*
X108168598Y-104842629D01*
X108168596Y-104842618D01*
X108118353Y-104707911D01*
X108114959Y-104701694D01*
X108117488Y-104700312D01*
X108101782Y-104654225D01*
X108119856Y-104595770D01*
X108168837Y-104559102D01*
X108230016Y-104558228D01*
X108255773Y-104570494D01*
X108283269Y-104588867D01*
X108317973Y-104595770D01*
X108341741Y-104600498D01*
X108341746Y-104600498D01*
X108341752Y-104600500D01*
X108341753Y-104600500D01*
X110181247Y-104600500D01*
X110181248Y-104600500D01*
X110239731Y-104588867D01*
X110306052Y-104544552D01*
X110350367Y-104478231D01*
X110362000Y-104419748D01*
X110362000Y-104304286D01*
X110380907Y-104246095D01*
X110430407Y-104210131D01*
X110491593Y-104210131D01*
X110504456Y-104219477D01*
X110522801Y-104220920D01*
X111026371Y-103717349D01*
X111060410Y-103776306D01*
X111144194Y-103860090D01*
X111203147Y-103894126D01*
X110699578Y-104397696D01*
X110817771Y-104483569D01*
X110979059Y-104565749D01*
X111151210Y-104621683D01*
X111329990Y-104650000D01*
X111511010Y-104650000D01*
X111689789Y-104621683D01*
X111861940Y-104565749D01*
X112023230Y-104483568D01*
X112023236Y-104483564D01*
X112141420Y-104397697D01*
X112141420Y-104397696D01*
X111637850Y-103894127D01*
X111696806Y-103860090D01*
X111780590Y-103776306D01*
X111814627Y-103717350D01*
X112318196Y-104220920D01*
X112318197Y-104220920D01*
X112404064Y-104102736D01*
X112404071Y-104102725D01*
X112439567Y-104033060D01*
X112482831Y-103989795D01*
X112543263Y-103980223D01*
X112597780Y-104008000D01*
X112615987Y-104033059D01*
X112624364Y-104049500D01*
X112638268Y-104076788D01*
X112680592Y-104135042D01*
X112699500Y-104193231D01*
X112699500Y-104706351D01*
X112686237Y-104755849D01*
X112669981Y-104784006D01*
X112669977Y-104784014D01*
X112649500Y-104860435D01*
X112649500Y-105384521D01*
X112630593Y-105442712D01*
X112620504Y-105454525D01*
X112315489Y-105759540D01*
X112315488Y-105759539D01*
X112259539Y-105815489D01*
X112219980Y-105884007D01*
X112219978Y-105884011D01*
X112199500Y-105960435D01*
X112199500Y-106957066D01*
X112180593Y-107015257D01*
X112131093Y-107051221D01*
X112086227Y-107055031D01*
X112048260Y-107049500D01*
X111681740Y-107049500D01*
X111653772Y-107053575D01*
X111613604Y-107059427D01*
X111508518Y-107110801D01*
X111425801Y-107193518D01*
X111374427Y-107298604D01*
X111372458Y-107312118D01*
X111364500Y-107366740D01*
X111364500Y-109083260D01*
X111371118Y-109128682D01*
X111374427Y-109151395D01*
X111384571Y-109172144D01*
X111425802Y-109256483D01*
X111508517Y-109339198D01*
X111562285Y-109365483D01*
X111613604Y-109390572D01*
X111613605Y-109390572D01*
X111613607Y-109390573D01*
X111681740Y-109400500D01*
X111735521Y-109400500D01*
X111793712Y-109419407D01*
X111829676Y-109468907D01*
X111829676Y-109530093D01*
X111805525Y-109569504D01*
X109765489Y-111609540D01*
X109765488Y-111609539D01*
X109709539Y-111665489D01*
X109669980Y-111734007D01*
X109669978Y-111734011D01*
X109649500Y-111810435D01*
X109649500Y-111905609D01*
X109630593Y-111963800D01*
X109581093Y-111999764D01*
X109536227Y-112003574D01*
X109508260Y-111999500D01*
X109141740Y-111999500D01*
X109113772Y-112003575D01*
X109073604Y-112009427D01*
X108968518Y-112060801D01*
X108885801Y-112143518D01*
X108834427Y-112248604D01*
X108834427Y-112248607D01*
X108824500Y-112316740D01*
X108824500Y-114033260D01*
X108826790Y-114048975D01*
X108834427Y-114101396D01*
X108837176Y-114107017D01*
X108845749Y-114167598D01*
X108817076Y-114221649D01*
X108762108Y-114248523D01*
X108748237Y-114249500D01*
X108631763Y-114249500D01*
X108573572Y-114230593D01*
X108537608Y-114181093D01*
X108537608Y-114119907D01*
X108542824Y-114107017D01*
X108545572Y-114101396D01*
X108545572Y-114101394D01*
X108545573Y-114101393D01*
X108555500Y-114033260D01*
X108555500Y-112316740D01*
X108545573Y-112248607D01*
X108494198Y-112143517D01*
X108411483Y-112060802D01*
X108399498Y-112054943D01*
X108306395Y-112009427D01*
X108277587Y-112005230D01*
X108238260Y-111999500D01*
X108197321Y-111999500D01*
X108139130Y-111980593D01*
X108103166Y-111931093D01*
X108103166Y-111869907D01*
X108127315Y-111830498D01*
X108150500Y-111807314D01*
X108161719Y-111787882D01*
X108216390Y-111693190D01*
X108216390Y-111693188D01*
X108216392Y-111693186D01*
X108250500Y-111565892D01*
X108250500Y-111434108D01*
X108216392Y-111306814D01*
X108216390Y-111306811D01*
X108216390Y-111306809D01*
X108150503Y-111192690D01*
X108150501Y-111192688D01*
X108150500Y-111192686D01*
X108057314Y-111099500D01*
X108057311Y-111099498D01*
X108057309Y-111099496D01*
X107943189Y-111033609D01*
X107943191Y-111033609D01*
X107893799Y-111020375D01*
X107815892Y-110999500D01*
X107684108Y-110999500D01*
X107606200Y-111020375D01*
X107556809Y-111033609D01*
X107442690Y-111099496D01*
X107442689Y-111099497D01*
X107442686Y-111099499D01*
X107442686Y-111099500D01*
X107371680Y-111170505D01*
X107317166Y-111198281D01*
X107301679Y-111199500D01*
X104724500Y-111199500D01*
X104666309Y-111180593D01*
X104630345Y-111131093D01*
X104625500Y-111100500D01*
X104625500Y-110995727D01*
X104625499Y-110995725D01*
X104622646Y-110965301D01*
X104577793Y-110837118D01*
X104558102Y-110810438D01*
X104497154Y-110727855D01*
X104497152Y-110727853D01*
X104497150Y-110727850D01*
X104497146Y-110727847D01*
X104497144Y-110727845D01*
X104387883Y-110647207D01*
X104259703Y-110602355D01*
X104259694Y-110602353D01*
X104229274Y-110599500D01*
X104229266Y-110599500D01*
X103595734Y-110599500D01*
X103595725Y-110599500D01*
X103565305Y-110602353D01*
X103565296Y-110602355D01*
X103437116Y-110647207D01*
X103327855Y-110727845D01*
X103327845Y-110727855D01*
X103247207Y-110837116D01*
X103202355Y-110965296D01*
X103202353Y-110965305D01*
X103199500Y-110995725D01*
X103199500Y-112004274D01*
X103202353Y-112034694D01*
X103202355Y-112034703D01*
X103247207Y-112162883D01*
X103327845Y-112272144D01*
X103327847Y-112272146D01*
X103327850Y-112272150D01*
X103327853Y-112272152D01*
X103327855Y-112272154D01*
X103437116Y-112352792D01*
X103437117Y-112352792D01*
X103437118Y-112352793D01*
X103565301Y-112397646D01*
X103595725Y-112400499D01*
X103595727Y-112400500D01*
X103595734Y-112400500D01*
X104229273Y-112400500D01*
X104229273Y-112400499D01*
X104259699Y-112397646D01*
X104387882Y-112352793D01*
X104497150Y-112272150D01*
X104577793Y-112162882D01*
X104622646Y-112034699D01*
X104625499Y-112004273D01*
X104625500Y-112004273D01*
X104625500Y-111899500D01*
X104644407Y-111841309D01*
X104693907Y-111805345D01*
X104724500Y-111800500D01*
X107301679Y-111800500D01*
X107359870Y-111819407D01*
X107371676Y-111829490D01*
X107442686Y-111900500D01*
X107442688Y-111900501D01*
X107442690Y-111900503D01*
X107556810Y-111966390D01*
X107556811Y-111966391D01*
X107556813Y-111966391D01*
X107556814Y-111966392D01*
X107577399Y-111971907D01*
X107628713Y-112005230D01*
X107650641Y-112062351D01*
X107634806Y-112121452D01*
X107621784Y-112137535D01*
X107615801Y-112143517D01*
X107615801Y-112143518D01*
X107564427Y-112248604D01*
X107554500Y-112316743D01*
X107554500Y-112750500D01*
X107535593Y-112808691D01*
X107486093Y-112844655D01*
X107455500Y-112849500D01*
X107310435Y-112849500D01*
X107234012Y-112869978D01*
X107185193Y-112898164D01*
X107185192Y-112898163D01*
X107165491Y-112909538D01*
X107165489Y-112909539D01*
X107165489Y-112909540D01*
X107154523Y-112920505D01*
X107100009Y-112948281D01*
X107084522Y-112949500D01*
X106539562Y-112949500D01*
X106460438Y-112949500D01*
X106384012Y-112969978D01*
X106384011Y-112969978D01*
X106384009Y-112969979D01*
X106355853Y-112986236D01*
X106306352Y-112999500D01*
X103360435Y-112999500D01*
X103284012Y-113019978D01*
X103232879Y-113049500D01*
X103232878Y-113049499D01*
X103215489Y-113059539D01*
X103049808Y-113225219D01*
X103005430Y-113250841D01*
X102934009Y-113269979D01*
X102934007Y-113269980D01*
X102865491Y-113309538D01*
X102809538Y-113365491D01*
X102769980Y-113434007D01*
X102769978Y-113434011D01*
X102750841Y-113505430D01*
X102725218Y-113549810D01*
X102580894Y-113694133D01*
X102526378Y-113721910D01*
X102478193Y-113717573D01*
X102434703Y-113702355D01*
X102434694Y-113702353D01*
X102404274Y-113699500D01*
X102404266Y-113699500D01*
X101770734Y-113699500D01*
X101770721Y-113699500D01*
X101768900Y-113699585D01*
X101768590Y-113699500D01*
X101768419Y-113699500D01*
X101768419Y-113699453D01*
X101709891Y-113683412D01*
X101671658Y-113635642D01*
X101668805Y-113574523D01*
X101688289Y-113541022D01*
X101686511Y-113539657D01*
X101690456Y-113534514D01*
X101690460Y-113534511D01*
X101704359Y-113510438D01*
X101730020Y-113465992D01*
X101730020Y-113465990D01*
X101730022Y-113465988D01*
X101750500Y-113389562D01*
X101750500Y-113310438D01*
X101750500Y-113043647D01*
X101763765Y-112994145D01*
X101768332Y-112986236D01*
X101780022Y-112965988D01*
X101800500Y-112889562D01*
X101800500Y-112810438D01*
X101800500Y-112499500D01*
X101819407Y-112441309D01*
X101868907Y-112405345D01*
X101899500Y-112400500D01*
X102404273Y-112400500D01*
X102404273Y-112400499D01*
X102434699Y-112397646D01*
X102562882Y-112352793D01*
X102672150Y-112272150D01*
X102752793Y-112162882D01*
X102797646Y-112034699D01*
X102800499Y-112004273D01*
X102800500Y-112004273D01*
X102800500Y-110995727D01*
X102800499Y-110995725D01*
X102797646Y-110965301D01*
X102752793Y-110837118D01*
X102733102Y-110810438D01*
X102672154Y-110727855D01*
X102672152Y-110727853D01*
X102672150Y-110727850D01*
X102672146Y-110727847D01*
X102672144Y-110727845D01*
X102562883Y-110647207D01*
X102434703Y-110602355D01*
X102434694Y-110602353D01*
X102404274Y-110599500D01*
X102404266Y-110599500D01*
X101770734Y-110599500D01*
X101770725Y-110599500D01*
X101740305Y-110602353D01*
X101740296Y-110602355D01*
X101612116Y-110647207D01*
X101502855Y-110727845D01*
X101502845Y-110727855D01*
X101422207Y-110837116D01*
X101377355Y-110965296D01*
X101377353Y-110965305D01*
X101374500Y-110995725D01*
X101374500Y-111759521D01*
X101355593Y-111817712D01*
X101345504Y-111829525D01*
X101315489Y-111859540D01*
X101315488Y-111859539D01*
X101259539Y-111915489D01*
X101219980Y-111984007D01*
X101219978Y-111984011D01*
X101199500Y-112060435D01*
X101199500Y-112706351D01*
X101186237Y-112755849D01*
X101169981Y-112784006D01*
X101169977Y-112784014D01*
X101149500Y-112860435D01*
X101149500Y-113184521D01*
X101130593Y-113242712D01*
X101120504Y-113254525D01*
X101065489Y-113309540D01*
X101065488Y-113309539D01*
X101009539Y-113365489D01*
X100969980Y-113434007D01*
X100969978Y-113434011D01*
X100949500Y-113510435D01*
X100500500Y-113510435D01*
X100500500Y-107895725D01*
X101374500Y-107895725D01*
X101374500Y-108904274D01*
X101377353Y-108934694D01*
X101377355Y-108934703D01*
X101422207Y-109062883D01*
X101502845Y-109172144D01*
X101502847Y-109172146D01*
X101502850Y-109172150D01*
X101502853Y-109172152D01*
X101502855Y-109172154D01*
X101612116Y-109252792D01*
X101612117Y-109252792D01*
X101612118Y-109252793D01*
X101740301Y-109297646D01*
X101770725Y-109300499D01*
X101770727Y-109300500D01*
X101770734Y-109300500D01*
X102404273Y-109300500D01*
X102404273Y-109300499D01*
X102434699Y-109297646D01*
X102562882Y-109252793D01*
X102672150Y-109172150D01*
X102752793Y-109062882D01*
X102797646Y-108934699D01*
X102800499Y-108904273D01*
X102800500Y-108904273D01*
X102800500Y-107895727D01*
X102800499Y-107895725D01*
X102797646Y-107865301D01*
X102752793Y-107737118D01*
X102750865Y-107734506D01*
X102672154Y-107627855D01*
X102672152Y-107627853D01*
X102672150Y-107627850D01*
X102672146Y-107627847D01*
X102672144Y-107627845D01*
X102562883Y-107547207D01*
X102434703Y-107502355D01*
X102434694Y-107502353D01*
X102404274Y-107499500D01*
X102404266Y-107499500D01*
X101770734Y-107499500D01*
X101770725Y-107499500D01*
X101740305Y-107502353D01*
X101740296Y-107502355D01*
X101612116Y-107547207D01*
X101502855Y-107627845D01*
X101502845Y-107627855D01*
X101422207Y-107737116D01*
X101377355Y-107865296D01*
X101377353Y-107865305D01*
X101374500Y-107895725D01*
X100500500Y-107895725D01*
X100500500Y-102599218D01*
X101419500Y-102599218D01*
X101419500Y-102800781D01*
X101451028Y-102999846D01*
X101513314Y-103191542D01*
X101581979Y-103326306D01*
X101604818Y-103371129D01*
X101723289Y-103534190D01*
X101865810Y-103676711D01*
X102028871Y-103795182D01*
X102208458Y-103886686D01*
X102400149Y-103948970D01*
X102400150Y-103948970D01*
X102400153Y-103948971D01*
X102599219Y-103980500D01*
X102599222Y-103980500D01*
X102800781Y-103980500D01*
X102999846Y-103948971D01*
X102999847Y-103948970D01*
X102999851Y-103948970D01*
X103191542Y-103886686D01*
X103371129Y-103795182D01*
X103534190Y-103676711D01*
X103676711Y-103534190D01*
X103795182Y-103371129D01*
X103886686Y-103191542D01*
X103948970Y-102999851D01*
X103950214Y-102991998D01*
X103980500Y-102800781D01*
X103980500Y-102599218D01*
X103948971Y-102400153D01*
X103918806Y-102307314D01*
X103886686Y-102208458D01*
X103795182Y-102028871D01*
X103676711Y-101865810D01*
X103534190Y-101723289D01*
X103371129Y-101604818D01*
X103371128Y-101604817D01*
X103371126Y-101604816D01*
X103191542Y-101513314D01*
X102999846Y-101451028D01*
X102800781Y-101419500D01*
X102800778Y-101419500D01*
X102599222Y-101419500D01*
X102599219Y-101419500D01*
X102400153Y-101451028D01*
X102208457Y-101513314D01*
X102028873Y-101604816D01*
X101865811Y-101723288D01*
X101723288Y-101865811D01*
X101604816Y-102028873D01*
X101513314Y-102208457D01*
X101451028Y-102400153D01*
X101419500Y-102599218D01*
X100500500Y-102599218D01*
X100500500Y-101005563D01*
X100501122Y-100994480D01*
X100511774Y-100899932D01*
X100511775Y-100899931D01*
X100511774Y-100899928D01*
X100516705Y-100878324D01*
X100546283Y-100793798D01*
X100555899Y-100773832D01*
X100603542Y-100698008D01*
X100617357Y-100680684D01*
X100680684Y-100617357D01*
X100698008Y-100603542D01*
X100773834Y-100555897D01*
X100793798Y-100546283D01*
X100878324Y-100516705D01*
X100899928Y-100511774D01*
X100980091Y-100502743D01*
X100994480Y-100501122D01*
X101005563Y-100500500D01*
X101065892Y-100500500D01*
X123934108Y-100500500D01*
X123994437Y-100500500D01*
X124005520Y-100501121D01*
G37*
%TD.AperFunction*%
%TD*%
M02*
