%TF.GenerationSoftware,KiCad,Pcbnew,10.0.6*%
%TF.CreationDate,2026-09-05T18:57:33+08:00*%
%TF.ProjectId,sl25,736c3235-2e6b-4696-9361-645f70636258,rev?*%
%TF.SameCoordinates,Original*%
%TF.FileFunction,Legend,Top*%
%TF.FilePolarity,Positive*%
%FSLAX46Y46*%
G04 Gerber Fmt 4.6, Leading zero omitted, Abs format (unit mm)*
G04 Created by KiCad (PCBNEW 10.0.6) date 2026-09-05 18:57:33*
%MOMM*%
%LPD*%
G01*
G04 APERTURE LIST*
%ADD10C,0.120000*%
G04 APERTURE END LIST*
D10*
X120566667Y-109707664D02*
X120528571Y-109745760D01*
X120528571Y-109745760D02*
X120414286Y-109783855D01*
X120414286Y-109783855D02*
X120338095Y-109783855D01*
X120338095Y-109783855D02*
X120223809Y-109745760D01*
X120223809Y-109745760D02*
X120147619Y-109669569D01*
X120147619Y-109669569D02*
X120109524Y-109593379D01*
X120109524Y-109593379D02*
X120071428Y-109440998D01*
X120071428Y-109440998D02*
X120071428Y-109326712D01*
X120071428Y-109326712D02*
X120109524Y-109174331D01*
X120109524Y-109174331D02*
X120147619Y-109098140D01*
X120147619Y-109098140D02*
X120223809Y-109021950D01*
X120223809Y-109021950D02*
X120338095Y-108983855D01*
X120338095Y-108983855D02*
X120414286Y-108983855D01*
X120414286Y-108983855D02*
X120528571Y-109021950D01*
X120528571Y-109021950D02*
X120566667Y-109060045D01*
X121328571Y-109783855D02*
X120871428Y-109783855D01*
X121100000Y-109783855D02*
X121100000Y-108983855D01*
X121100000Y-108983855D02*
X121023809Y-109098140D01*
X121023809Y-109098140D02*
X120947619Y-109174331D01*
X120947619Y-109174331D02*
X120871428Y-109212426D01*
X102866667Y-113313855D02*
X102600000Y-112932902D01*
X102409524Y-113313855D02*
X102409524Y-112513855D01*
X102409524Y-112513855D02*
X102714286Y-112513855D01*
X102714286Y-112513855D02*
X102790476Y-112551950D01*
X102790476Y-112551950D02*
X102828571Y-112590045D01*
X102828571Y-112590045D02*
X102866667Y-112666236D01*
X102866667Y-112666236D02*
X102866667Y-112780521D01*
X102866667Y-112780521D02*
X102828571Y-112856712D01*
X102828571Y-112856712D02*
X102790476Y-112894807D01*
X102790476Y-112894807D02*
X102714286Y-112932902D01*
X102714286Y-112932902D02*
X102409524Y-112932902D01*
X103590476Y-112513855D02*
X103209524Y-112513855D01*
X103209524Y-112513855D02*
X103171428Y-112894807D01*
X103171428Y-112894807D02*
X103209524Y-112856712D01*
X103209524Y-112856712D02*
X103285714Y-112818617D01*
X103285714Y-112818617D02*
X103476190Y-112818617D01*
X103476190Y-112818617D02*
X103552381Y-112856712D01*
X103552381Y-112856712D02*
X103590476Y-112894807D01*
X103590476Y-112894807D02*
X103628571Y-112970998D01*
X103628571Y-112970998D02*
X103628571Y-113161474D01*
X103628571Y-113161474D02*
X103590476Y-113237664D01*
X103590476Y-113237664D02*
X103552381Y-113275760D01*
X103552381Y-113275760D02*
X103476190Y-113313855D01*
X103476190Y-113313855D02*
X103285714Y-113313855D01*
X103285714Y-113313855D02*
X103209524Y-113275760D01*
X103209524Y-113275760D02*
X103171428Y-113237664D01*
X106366667Y-104113855D02*
X106100000Y-103732902D01*
X105909524Y-104113855D02*
X105909524Y-103313855D01*
X105909524Y-103313855D02*
X106214286Y-103313855D01*
X106214286Y-103313855D02*
X106290476Y-103351950D01*
X106290476Y-103351950D02*
X106328571Y-103390045D01*
X106328571Y-103390045D02*
X106366667Y-103466236D01*
X106366667Y-103466236D02*
X106366667Y-103580521D01*
X106366667Y-103580521D02*
X106328571Y-103656712D01*
X106328571Y-103656712D02*
X106290476Y-103694807D01*
X106290476Y-103694807D02*
X106214286Y-103732902D01*
X106214286Y-103732902D02*
X105909524Y-103732902D01*
X106633333Y-103313855D02*
X107166667Y-103313855D01*
X107166667Y-103313855D02*
X106823809Y-104113855D01*
X102866667Y-107113855D02*
X102600000Y-106732902D01*
X102409524Y-107113855D02*
X102409524Y-106313855D01*
X102409524Y-106313855D02*
X102714286Y-106313855D01*
X102714286Y-106313855D02*
X102790476Y-106351950D01*
X102790476Y-106351950D02*
X102828571Y-106390045D01*
X102828571Y-106390045D02*
X102866667Y-106466236D01*
X102866667Y-106466236D02*
X102866667Y-106580521D01*
X102866667Y-106580521D02*
X102828571Y-106656712D01*
X102828571Y-106656712D02*
X102790476Y-106694807D01*
X102790476Y-106694807D02*
X102714286Y-106732902D01*
X102714286Y-106732902D02*
X102409524Y-106732902D01*
X103133333Y-106313855D02*
X103628571Y-106313855D01*
X103628571Y-106313855D02*
X103361905Y-106618617D01*
X103361905Y-106618617D02*
X103476190Y-106618617D01*
X103476190Y-106618617D02*
X103552381Y-106656712D01*
X103552381Y-106656712D02*
X103590476Y-106694807D01*
X103590476Y-106694807D02*
X103628571Y-106770998D01*
X103628571Y-106770998D02*
X103628571Y-106961474D01*
X103628571Y-106961474D02*
X103590476Y-107037664D01*
X103590476Y-107037664D02*
X103552381Y-107075760D01*
X103552381Y-107075760D02*
X103476190Y-107113855D01*
X103476190Y-107113855D02*
X103247619Y-107113855D01*
X103247619Y-107113855D02*
X103171428Y-107075760D01*
X103171428Y-107075760D02*
X103133333Y-107037664D01*
X117963855Y-111309523D02*
X118611474Y-111309523D01*
X118611474Y-111309523D02*
X118687664Y-111271428D01*
X118687664Y-111271428D02*
X118725760Y-111233333D01*
X118725760Y-111233333D02*
X118763855Y-111157142D01*
X118763855Y-111157142D02*
X118763855Y-111004761D01*
X118763855Y-111004761D02*
X118725760Y-110928571D01*
X118725760Y-110928571D02*
X118687664Y-110890476D01*
X118687664Y-110890476D02*
X118611474Y-110852380D01*
X118611474Y-110852380D02*
X117963855Y-110852380D01*
X118763855Y-110052381D02*
X118763855Y-110509524D01*
X118763855Y-110280952D02*
X117963855Y-110280952D01*
X117963855Y-110280952D02*
X118078140Y-110357143D01*
X118078140Y-110357143D02*
X118154331Y-110433333D01*
X118154331Y-110433333D02*
X118192426Y-110509524D01*
X120866667Y-119607664D02*
X120828571Y-119645760D01*
X120828571Y-119645760D02*
X120714286Y-119683855D01*
X120714286Y-119683855D02*
X120638095Y-119683855D01*
X120638095Y-119683855D02*
X120523809Y-119645760D01*
X120523809Y-119645760D02*
X120447619Y-119569569D01*
X120447619Y-119569569D02*
X120409524Y-119493379D01*
X120409524Y-119493379D02*
X120371428Y-119340998D01*
X120371428Y-119340998D02*
X120371428Y-119226712D01*
X120371428Y-119226712D02*
X120409524Y-119074331D01*
X120409524Y-119074331D02*
X120447619Y-118998140D01*
X120447619Y-118998140D02*
X120523809Y-118921950D01*
X120523809Y-118921950D02*
X120638095Y-118883855D01*
X120638095Y-118883855D02*
X120714286Y-118883855D01*
X120714286Y-118883855D02*
X120828571Y-118921950D01*
X120828571Y-118921950D02*
X120866667Y-118960045D01*
X121133333Y-118883855D02*
X121628571Y-118883855D01*
X121628571Y-118883855D02*
X121361905Y-119188617D01*
X121361905Y-119188617D02*
X121476190Y-119188617D01*
X121476190Y-119188617D02*
X121552381Y-119226712D01*
X121552381Y-119226712D02*
X121590476Y-119264807D01*
X121590476Y-119264807D02*
X121628571Y-119340998D01*
X121628571Y-119340998D02*
X121628571Y-119531474D01*
X121628571Y-119531474D02*
X121590476Y-119607664D01*
X121590476Y-119607664D02*
X121552381Y-119645760D01*
X121552381Y-119645760D02*
X121476190Y-119683855D01*
X121476190Y-119683855D02*
X121247619Y-119683855D01*
X121247619Y-119683855D02*
X121171428Y-119645760D01*
X121171428Y-119645760D02*
X121133333Y-119607664D01*
X118009524Y-105663855D02*
X118009524Y-104863855D01*
X118009524Y-104863855D02*
X118200000Y-104863855D01*
X118200000Y-104863855D02*
X118314286Y-104901950D01*
X118314286Y-104901950D02*
X118390476Y-104978140D01*
X118390476Y-104978140D02*
X118428571Y-105054331D01*
X118428571Y-105054331D02*
X118466667Y-105206712D01*
X118466667Y-105206712D02*
X118466667Y-105320998D01*
X118466667Y-105320998D02*
X118428571Y-105473379D01*
X118428571Y-105473379D02*
X118390476Y-105549569D01*
X118390476Y-105549569D02*
X118314286Y-105625760D01*
X118314286Y-105625760D02*
X118200000Y-105663855D01*
X118200000Y-105663855D02*
X118009524Y-105663855D01*
X119228571Y-105663855D02*
X118771428Y-105663855D01*
X119000000Y-105663855D02*
X119000000Y-104863855D01*
X119000000Y-104863855D02*
X118923809Y-104978140D01*
X118923809Y-104978140D02*
X118847619Y-105054331D01*
X118847619Y-105054331D02*
X118771428Y-105092426D01*
X104966667Y-116113855D02*
X104700000Y-115732902D01*
X104509524Y-116113855D02*
X104509524Y-115313855D01*
X104509524Y-115313855D02*
X104814286Y-115313855D01*
X104814286Y-115313855D02*
X104890476Y-115351950D01*
X104890476Y-115351950D02*
X104928571Y-115390045D01*
X104928571Y-115390045D02*
X104966667Y-115466236D01*
X104966667Y-115466236D02*
X104966667Y-115580521D01*
X104966667Y-115580521D02*
X104928571Y-115656712D01*
X104928571Y-115656712D02*
X104890476Y-115694807D01*
X104890476Y-115694807D02*
X104814286Y-115732902D01*
X104814286Y-115732902D02*
X104509524Y-115732902D01*
X105728571Y-116113855D02*
X105271428Y-116113855D01*
X105500000Y-116113855D02*
X105500000Y-115313855D01*
X105500000Y-115313855D02*
X105423809Y-115428140D01*
X105423809Y-115428140D02*
X105347619Y-115504331D01*
X105347619Y-115504331D02*
X105271428Y-115542426D01*
X120566667Y-113113855D02*
X120300000Y-112732902D01*
X120109524Y-113113855D02*
X120109524Y-112313855D01*
X120109524Y-112313855D02*
X120414286Y-112313855D01*
X120414286Y-112313855D02*
X120490476Y-112351950D01*
X120490476Y-112351950D02*
X120528571Y-112390045D01*
X120528571Y-112390045D02*
X120566667Y-112466236D01*
X120566667Y-112466236D02*
X120566667Y-112580521D01*
X120566667Y-112580521D02*
X120528571Y-112656712D01*
X120528571Y-112656712D02*
X120490476Y-112694807D01*
X120490476Y-112694807D02*
X120414286Y-112732902D01*
X120414286Y-112732902D02*
X120109524Y-112732902D01*
X121252381Y-112313855D02*
X121100000Y-112313855D01*
X121100000Y-112313855D02*
X121023809Y-112351950D01*
X121023809Y-112351950D02*
X120985714Y-112390045D01*
X120985714Y-112390045D02*
X120909524Y-112504331D01*
X120909524Y-112504331D02*
X120871428Y-112656712D01*
X120871428Y-112656712D02*
X120871428Y-112961474D01*
X120871428Y-112961474D02*
X120909524Y-113037664D01*
X120909524Y-113037664D02*
X120947619Y-113075760D01*
X120947619Y-113075760D02*
X121023809Y-113113855D01*
X121023809Y-113113855D02*
X121176190Y-113113855D01*
X121176190Y-113113855D02*
X121252381Y-113075760D01*
X121252381Y-113075760D02*
X121290476Y-113037664D01*
X121290476Y-113037664D02*
X121328571Y-112961474D01*
X121328571Y-112961474D02*
X121328571Y-112770998D01*
X121328571Y-112770998D02*
X121290476Y-112694807D01*
X121290476Y-112694807D02*
X121252381Y-112656712D01*
X121252381Y-112656712D02*
X121176190Y-112618617D01*
X121176190Y-112618617D02*
X121023809Y-112618617D01*
X121023809Y-112618617D02*
X120947619Y-112656712D01*
X120947619Y-112656712D02*
X120909524Y-112694807D01*
X120909524Y-112694807D02*
X120871428Y-112770998D01*
X120566667Y-106607664D02*
X120528571Y-106645760D01*
X120528571Y-106645760D02*
X120414286Y-106683855D01*
X120414286Y-106683855D02*
X120338095Y-106683855D01*
X120338095Y-106683855D02*
X120223809Y-106645760D01*
X120223809Y-106645760D02*
X120147619Y-106569569D01*
X120147619Y-106569569D02*
X120109524Y-106493379D01*
X120109524Y-106493379D02*
X120071428Y-106340998D01*
X120071428Y-106340998D02*
X120071428Y-106226712D01*
X120071428Y-106226712D02*
X120109524Y-106074331D01*
X120109524Y-106074331D02*
X120147619Y-105998140D01*
X120147619Y-105998140D02*
X120223809Y-105921950D01*
X120223809Y-105921950D02*
X120338095Y-105883855D01*
X120338095Y-105883855D02*
X120414286Y-105883855D01*
X120414286Y-105883855D02*
X120528571Y-105921950D01*
X120528571Y-105921950D02*
X120566667Y-105960045D01*
X120871428Y-105960045D02*
X120909524Y-105921950D01*
X120909524Y-105921950D02*
X120985714Y-105883855D01*
X120985714Y-105883855D02*
X121176190Y-105883855D01*
X121176190Y-105883855D02*
X121252381Y-105921950D01*
X121252381Y-105921950D02*
X121290476Y-105960045D01*
X121290476Y-105960045D02*
X121328571Y-106036236D01*
X121328571Y-106036236D02*
X121328571Y-106112426D01*
X121328571Y-106112426D02*
X121290476Y-106226712D01*
X121290476Y-106226712D02*
X120833333Y-106683855D01*
X120833333Y-106683855D02*
X121328571Y-106683855D01*
X112233333Y-115213855D02*
X112233333Y-115785283D01*
X112233333Y-115785283D02*
X112195238Y-115899569D01*
X112195238Y-115899569D02*
X112119047Y-115975760D01*
X112119047Y-115975760D02*
X112004762Y-116013855D01*
X112004762Y-116013855D02*
X111928571Y-116013855D01*
X113033333Y-116013855D02*
X112576190Y-116013855D01*
X112804762Y-116013855D02*
X112804762Y-115213855D01*
X112804762Y-115213855D02*
X112728571Y-115328140D01*
X112728571Y-115328140D02*
X112652381Y-115404331D01*
X112652381Y-115404331D02*
X112576190Y-115442426D01*
X102866667Y-110213855D02*
X102600000Y-109832902D01*
X102409524Y-110213855D02*
X102409524Y-109413855D01*
X102409524Y-109413855D02*
X102714286Y-109413855D01*
X102714286Y-109413855D02*
X102790476Y-109451950D01*
X102790476Y-109451950D02*
X102828571Y-109490045D01*
X102828571Y-109490045D02*
X102866667Y-109566236D01*
X102866667Y-109566236D02*
X102866667Y-109680521D01*
X102866667Y-109680521D02*
X102828571Y-109756712D01*
X102828571Y-109756712D02*
X102790476Y-109794807D01*
X102790476Y-109794807D02*
X102714286Y-109832902D01*
X102714286Y-109832902D02*
X102409524Y-109832902D01*
X103552381Y-109680521D02*
X103552381Y-110213855D01*
X103361905Y-109375760D02*
X103171428Y-109947188D01*
X103171428Y-109947188D02*
X103666667Y-109947188D01*
X120066667Y-116113855D02*
X119800000Y-115732902D01*
X119609524Y-116113855D02*
X119609524Y-115313855D01*
X119609524Y-115313855D02*
X119914286Y-115313855D01*
X119914286Y-115313855D02*
X119990476Y-115351950D01*
X119990476Y-115351950D02*
X120028571Y-115390045D01*
X120028571Y-115390045D02*
X120066667Y-115466236D01*
X120066667Y-115466236D02*
X120066667Y-115580521D01*
X120066667Y-115580521D02*
X120028571Y-115656712D01*
X120028571Y-115656712D02*
X119990476Y-115694807D01*
X119990476Y-115694807D02*
X119914286Y-115732902D01*
X119914286Y-115732902D02*
X119609524Y-115732902D01*
X120371428Y-115390045D02*
X120409524Y-115351950D01*
X120409524Y-115351950D02*
X120485714Y-115313855D01*
X120485714Y-115313855D02*
X120676190Y-115313855D01*
X120676190Y-115313855D02*
X120752381Y-115351950D01*
X120752381Y-115351950D02*
X120790476Y-115390045D01*
X120790476Y-115390045D02*
X120828571Y-115466236D01*
X120828571Y-115466236D02*
X120828571Y-115542426D01*
X120828571Y-115542426D02*
X120790476Y-115656712D01*
X120790476Y-115656712D02*
X120333333Y-116113855D01*
X120333333Y-116113855D02*
X120828571Y-116113855D01*
%TO.C,C1*%
X120438748Y-110365000D02*
X120961252Y-110365000D01*
X120438748Y-111835000D02*
X120961252Y-111835000D01*
%TO.C,R5*%
X102772936Y-113865000D02*
X103227064Y-113865000D01*
X102772936Y-115335000D02*
X103227064Y-115335000D01*
%TO.C,R7*%
X106272936Y-104665000D02*
X106727064Y-104665000D01*
X106272936Y-106135000D02*
X106727064Y-106135000D01*
%TO.C,R3*%
X102772936Y-107665000D02*
X103227064Y-107665000D01*
X102772936Y-109135000D02*
X103227064Y-109135000D01*
%TO.C,U1*%
X107440000Y-108640000D02*
X107495000Y-108640000D01*
X107440000Y-112760000D02*
X107440000Y-108640000D01*
X107495000Y-112760000D02*
X107440000Y-112760000D01*
X117505000Y-108640000D02*
X117560000Y-108640000D01*
X117560000Y-108640000D02*
X117560000Y-112760000D01*
X117560000Y-112760000D02*
X117505000Y-112760000D01*
X117510000Y-108100000D02*
X117840000Y-107860000D01*
X117840000Y-108340000D01*
X117510000Y-108100000D01*
G36*
X117840000Y-108340000D02*
G01*
X117510000Y-108100000D01*
X117840000Y-107860000D01*
X117840000Y-108340000D01*
G37*
%TO.C,C3*%
X120738748Y-120265000D02*
X121261252Y-120265000D01*
X120738748Y-121735000D02*
X121261252Y-121735000D01*
%TO.C,D1*%
X109940000Y-101955000D02*
X109940000Y-102420000D01*
X109940000Y-104580000D02*
X109940000Y-105045000D01*
X109940000Y-101955170D02*
G75*
G02*
X115287815Y-102419173I2560000J-1544830D01*
G01*
X110245316Y-102420000D02*
G75*
G02*
X114754479Y-102419571I2254684J-1080000D01*
G01*
X114754479Y-104580429D02*
G75*
G02*
X110245316Y-104580000I-2254479J1080429D01*
G01*
X115287815Y-104580827D02*
G75*
G02*
X109940000Y-105044830I-2787815J1080827D01*
G01*
%TO.C,R1*%
X104872936Y-116665000D02*
X105327064Y-116665000D01*
X104872936Y-118135000D02*
X105327064Y-118135000D01*
%TO.C,R6*%
X120472936Y-113665000D02*
X120927064Y-113665000D01*
X120472936Y-115135000D02*
X120927064Y-115135000D01*
%TO.C,C2*%
X120438748Y-107265000D02*
X120961252Y-107265000D01*
X120438748Y-108735000D02*
X120961252Y-108735000D01*
%TO.C,J1*%
X107830000Y-121050000D02*
X107830000Y-119350000D01*
X117170000Y-121050000D02*
X117170000Y-119350000D01*
%TO.C,R4*%
X102772936Y-110765000D02*
X103227064Y-110765000D01*
X102772936Y-112235000D02*
X103227064Y-112235000D01*
%TO.C,R2*%
X119972936Y-116665000D02*
X120427064Y-116665000D01*
X119972936Y-118135000D02*
X120427064Y-118135000D01*
%TD*%
M02*
